G04 #@! TF.GenerationSoftware,KiCad,Pcbnew,5.1.5+dfsg1-2build2*
G04 #@! TF.CreationDate,2021-09-09T19:15:16+02:00*
G04 #@! TF.ProjectId,RPi_V24,5250695f-5632-4342-9e6b-696361645f70,1*
G04 #@! TF.SameCoordinates,Original*
G04 #@! TF.FileFunction,Legend,Top*
G04 #@! TF.FilePolarity,Positive*
%FSLAX46Y46*%
G04 Gerber Fmt 4.6, Leading zero omitted, Abs format (unit mm)*
G04 Created by KiCad (PCBNEW 5.1.5+dfsg1-2build2) date 2021-09-09 19:15:16*
%MOMM*%
%LPD*%
G04 APERTURE LIST*
%ADD10C,0.150000*%
%ADD11C,0.090000*%
%ADD12C,0.250000*%
%ADD13C,0.100000*%
%ADD14C,0.120000*%
G04 APERTURE END LIST*
D10*
X100825761Y-76269904D02*
X100825761Y-76841333D01*
X100787666Y-76955619D01*
X100711476Y-77031809D01*
X100597190Y-77069904D01*
X100521000Y-77069904D01*
X101587666Y-77069904D02*
X101206714Y-77069904D01*
X101206714Y-76269904D01*
X102311476Y-76993714D02*
X102273380Y-77031809D01*
X102159095Y-77069904D01*
X102082904Y-77069904D01*
X101968619Y-77031809D01*
X101892428Y-76955619D01*
X101854333Y-76879428D01*
X101816238Y-76727047D01*
X101816238Y-76612761D01*
X101854333Y-76460380D01*
X101892428Y-76384190D01*
X101968619Y-76308000D01*
X102082904Y-76269904D01*
X102159095Y-76269904D01*
X102273380Y-76308000D01*
X102311476Y-76346095D01*
X102882904Y-76269904D02*
X102882904Y-76841333D01*
X102844809Y-76955619D01*
X102768619Y-77031809D01*
X102654333Y-77069904D01*
X102578142Y-77069904D01*
X103644809Y-77069904D02*
X103263857Y-77069904D01*
X103263857Y-76269904D01*
X104368619Y-76993714D02*
X104330523Y-77031809D01*
X104216238Y-77069904D01*
X104140047Y-77069904D01*
X104025761Y-77031809D01*
X103949571Y-76955619D01*
X103911476Y-76879428D01*
X103873380Y-76727047D01*
X103873380Y-76612761D01*
X103911476Y-76460380D01*
X103949571Y-76384190D01*
X104025761Y-76308000D01*
X104140047Y-76269904D01*
X104216238Y-76269904D01*
X104330523Y-76308000D01*
X104368619Y-76346095D01*
X104940047Y-76269904D02*
X104940047Y-76841333D01*
X104901952Y-76955619D01*
X104825761Y-77031809D01*
X104711476Y-77069904D01*
X104635285Y-77069904D01*
X105701952Y-77069904D02*
X105321000Y-77069904D01*
X105321000Y-76269904D01*
X106425761Y-76993714D02*
X106387666Y-77031809D01*
X106273380Y-77069904D01*
X106197190Y-77069904D01*
X106082904Y-77031809D01*
X106006714Y-76955619D01*
X105968619Y-76879428D01*
X105930523Y-76727047D01*
X105930523Y-76612761D01*
X105968619Y-76460380D01*
X106006714Y-76384190D01*
X106082904Y-76308000D01*
X106197190Y-76269904D01*
X106273380Y-76269904D01*
X106387666Y-76308000D01*
X106425761Y-76346095D01*
X106997190Y-76269904D02*
X106997190Y-76841333D01*
X106959095Y-76955619D01*
X106882904Y-77031809D01*
X106768619Y-77069904D01*
X106692428Y-77069904D01*
X107759095Y-77069904D02*
X107378142Y-77069904D01*
X107378142Y-76269904D01*
X108482904Y-76993714D02*
X108444809Y-77031809D01*
X108330523Y-77069904D01*
X108254333Y-77069904D01*
X108140047Y-77031809D01*
X108063857Y-76955619D01*
X108025761Y-76879428D01*
X107987666Y-76727047D01*
X107987666Y-76612761D01*
X108025761Y-76460380D01*
X108063857Y-76384190D01*
X108140047Y-76308000D01*
X108254333Y-76269904D01*
X108330523Y-76269904D01*
X108444809Y-76308000D01*
X108482904Y-76346095D01*
D11*
X89179428Y-106722857D02*
X89636571Y-106722857D01*
X89408000Y-106951428D02*
X89408000Y-106494285D01*
X85877428Y-106722857D02*
X86334571Y-106722857D01*
X86106000Y-106951428D02*
X86106000Y-106494285D01*
X82575428Y-106722857D02*
X83032571Y-106722857D01*
X82804000Y-106951428D02*
X82804000Y-106494285D01*
X79273428Y-106722857D02*
X79730571Y-106722857D01*
X79502000Y-106951428D02*
X79502000Y-106494285D01*
X134391428Y-111294857D02*
X134848571Y-111294857D01*
X134620000Y-111523428D02*
X134620000Y-111066285D01*
X132105428Y-111294857D02*
X132562571Y-111294857D01*
X132334000Y-111523428D02*
X132334000Y-111066285D01*
X129946428Y-111294857D02*
X130403571Y-111294857D01*
X130175000Y-111523428D02*
X130175000Y-111066285D01*
X127787428Y-111294857D02*
X128244571Y-111294857D01*
X128016000Y-111523428D02*
X128016000Y-111066285D01*
X140487428Y-106595857D02*
X140944571Y-106595857D01*
X140716000Y-106824428D02*
X140716000Y-106367285D01*
X137185428Y-106595857D02*
X137642571Y-106595857D01*
X137414000Y-106824428D02*
X137414000Y-106367285D01*
X133883428Y-106595857D02*
X134340571Y-106595857D01*
X134112000Y-106824428D02*
X134112000Y-106367285D01*
X130581428Y-106595857D02*
X131038571Y-106595857D01*
X130810000Y-106824428D02*
X130810000Y-106367285D01*
X111277428Y-76623857D02*
X111734571Y-76623857D01*
X111506000Y-76852428D02*
X111506000Y-76395285D01*
X105435428Y-71797857D02*
X105892571Y-71797857D01*
X105664000Y-72026428D02*
X105664000Y-71569285D01*
X108610428Y-71797857D02*
X109067571Y-71797857D01*
X108839000Y-72026428D02*
X108839000Y-71569285D01*
X108610428Y-82338857D02*
X109067571Y-82338857D01*
X108839000Y-82567428D02*
X108839000Y-82110285D01*
X113182428Y-92752857D02*
X113639571Y-92752857D01*
X113411000Y-92981428D02*
X113411000Y-92524285D01*
X110388428Y-92752857D02*
X110845571Y-92752857D01*
X110617000Y-92981428D02*
X110617000Y-92524285D01*
X108483428Y-87926857D02*
X108940571Y-87926857D01*
X108712000Y-88155428D02*
X108712000Y-87698285D01*
X111023428Y-82338857D02*
X111480571Y-82338857D01*
X111252000Y-82567428D02*
X111252000Y-82110285D01*
D10*
X124179000Y-72517000D02*
G75*
G03X124179000Y-72517000I-100000J0D01*
G01*
X122798619Y-101821380D02*
X122274809Y-102188047D01*
X122798619Y-102449952D02*
X121698619Y-102449952D01*
X121698619Y-102030904D01*
X121751000Y-101926142D01*
X121803380Y-101873761D01*
X121908142Y-101821380D01*
X122065285Y-101821380D01*
X122170047Y-101873761D01*
X122222428Y-101926142D01*
X122274809Y-102030904D01*
X122274809Y-102449952D01*
X121698619Y-101507095D02*
X121698619Y-100878523D01*
X122798619Y-101192809D02*
X121698619Y-101192809D01*
X122746238Y-100564238D02*
X122798619Y-100407095D01*
X122798619Y-100145190D01*
X122746238Y-100040428D01*
X122693857Y-99988047D01*
X122589095Y-99935666D01*
X122484333Y-99935666D01*
X122379571Y-99988047D01*
X122327190Y-100040428D01*
X122274809Y-100145190D01*
X122222428Y-100354714D01*
X122170047Y-100459476D01*
X122117666Y-100511857D01*
X122012904Y-100564238D01*
X121908142Y-100564238D01*
X121803380Y-100511857D01*
X121751000Y-100459476D01*
X121698619Y-100354714D01*
X121698619Y-100092809D01*
X121751000Y-99935666D01*
X121412000Y-98679000D02*
X121412000Y-95631000D01*
X121412000Y-102870000D02*
X121412000Y-99695000D01*
X122798619Y-98412142D02*
X121698619Y-98412142D01*
X121698619Y-98150238D01*
X121751000Y-97993095D01*
X121855761Y-97888333D01*
X121960523Y-97835952D01*
X122170047Y-97783571D01*
X122327190Y-97783571D01*
X122536714Y-97835952D01*
X122641476Y-97888333D01*
X122746238Y-97993095D01*
X122798619Y-98150238D01*
X122798619Y-98412142D01*
X121698619Y-97469285D02*
X121698619Y-96840714D01*
X122798619Y-97155000D02*
X121698619Y-97155000D01*
X122798619Y-95845476D02*
X122274809Y-96212142D01*
X122798619Y-96474047D02*
X121698619Y-96474047D01*
X121698619Y-96055000D01*
X121751000Y-95950238D01*
X121803380Y-95897857D01*
X121908142Y-95845476D01*
X122065285Y-95845476D01*
X122170047Y-95897857D01*
X122222428Y-95950238D01*
X122274809Y-96055000D01*
X122274809Y-96474047D01*
X124851380Y-73672857D02*
X125951380Y-73672857D01*
X125951380Y-73934761D01*
X125899000Y-74091904D01*
X125794238Y-74196666D01*
X125689476Y-74249047D01*
X125479952Y-74301428D01*
X125322809Y-74301428D01*
X125113285Y-74249047D01*
X125008523Y-74196666D01*
X124903761Y-74091904D01*
X124851380Y-73934761D01*
X124851380Y-73672857D01*
X125951380Y-74615714D02*
X125951380Y-75244285D01*
X124851380Y-74930000D02*
X125951380Y-74930000D01*
X124851380Y-76239523D02*
X125375190Y-75872857D01*
X124851380Y-75610952D02*
X125951380Y-75610952D01*
X125951380Y-76030000D01*
X125899000Y-76134761D01*
X125846619Y-76187142D01*
X125741857Y-76239523D01*
X125584714Y-76239523D01*
X125479952Y-76187142D01*
X125427571Y-76134761D01*
X125375190Y-76030000D01*
X125375190Y-75610952D01*
X126238000Y-77470000D02*
X126238000Y-80518000D01*
X126238000Y-73279000D02*
X126238000Y-76454000D01*
X124851380Y-78391619D02*
X125375190Y-78024952D01*
X124851380Y-77763047D02*
X125951380Y-77763047D01*
X125951380Y-78182095D01*
X125899000Y-78286857D01*
X125846619Y-78339238D01*
X125741857Y-78391619D01*
X125584714Y-78391619D01*
X125479952Y-78339238D01*
X125427571Y-78286857D01*
X125375190Y-78182095D01*
X125375190Y-77763047D01*
X125951380Y-78705904D02*
X125951380Y-79334476D01*
X124851380Y-79020190D02*
X125951380Y-79020190D01*
X124903761Y-79648761D02*
X124851380Y-79805904D01*
X124851380Y-80067809D01*
X124903761Y-80172571D01*
X124956142Y-80224952D01*
X125060904Y-80277333D01*
X125165666Y-80277333D01*
X125270428Y-80224952D01*
X125322809Y-80172571D01*
X125375190Y-80067809D01*
X125427571Y-79858285D01*
X125479952Y-79753523D01*
X125532333Y-79701142D01*
X125637095Y-79648761D01*
X125741857Y-79648761D01*
X125846619Y-79701142D01*
X125899000Y-79753523D01*
X125951380Y-79858285D01*
X125951380Y-80120190D01*
X125899000Y-80277333D01*
X97398619Y-96233380D02*
X96874809Y-96600047D01*
X97398619Y-96861952D02*
X96298619Y-96861952D01*
X96298619Y-96442904D01*
X96351000Y-96338142D01*
X96403380Y-96285761D01*
X96508142Y-96233380D01*
X96665285Y-96233380D01*
X96770047Y-96285761D01*
X96822428Y-96338142D01*
X96874809Y-96442904D01*
X96874809Y-96861952D01*
X96298619Y-95919095D02*
X96298619Y-95290523D01*
X97398619Y-95604809D02*
X96298619Y-95604809D01*
X97346238Y-94976238D02*
X97398619Y-94819095D01*
X97398619Y-94557190D01*
X97346238Y-94452428D01*
X97293857Y-94400047D01*
X97189095Y-94347666D01*
X97084333Y-94347666D01*
X96979571Y-94400047D01*
X96927190Y-94452428D01*
X96874809Y-94557190D01*
X96822428Y-94766714D01*
X96770047Y-94871476D01*
X96717666Y-94923857D01*
X96612904Y-94976238D01*
X96508142Y-94976238D01*
X96403380Y-94923857D01*
X96351000Y-94871476D01*
X96298619Y-94766714D01*
X96298619Y-94504809D01*
X96351000Y-94347666D01*
X96012000Y-101219000D02*
X96012000Y-98171000D01*
X96012000Y-97282000D02*
X96012000Y-94107000D01*
X97398619Y-100952142D02*
X96298619Y-100952142D01*
X96298619Y-100690238D01*
X96351000Y-100533095D01*
X96455761Y-100428333D01*
X96560523Y-100375952D01*
X96770047Y-100323571D01*
X96927190Y-100323571D01*
X97136714Y-100375952D01*
X97241476Y-100428333D01*
X97346238Y-100533095D01*
X97398619Y-100690238D01*
X97398619Y-100952142D01*
X96298619Y-100009285D02*
X96298619Y-99380714D01*
X97398619Y-99695000D02*
X96298619Y-99695000D01*
X97398619Y-98385476D02*
X96874809Y-98752142D01*
X97398619Y-99014047D02*
X96298619Y-99014047D01*
X96298619Y-98595000D01*
X96351000Y-98490238D01*
X96403380Y-98437857D01*
X96508142Y-98385476D01*
X96665285Y-98385476D01*
X96770047Y-98437857D01*
X96822428Y-98490238D01*
X96874809Y-98595000D01*
X96874809Y-99014047D01*
X97293857Y-79088380D02*
X97346238Y-79140761D01*
X97398619Y-79297904D01*
X97398619Y-79402666D01*
X97346238Y-79559809D01*
X97241476Y-79664571D01*
X97136714Y-79716952D01*
X96927190Y-79769333D01*
X96770047Y-79769333D01*
X96560523Y-79716952D01*
X96455761Y-79664571D01*
X96351000Y-79559809D01*
X96298619Y-79402666D01*
X96298619Y-79297904D01*
X96351000Y-79140761D01*
X96403380Y-79088380D01*
X96298619Y-78774095D02*
X96298619Y-78145523D01*
X97398619Y-78459809D02*
X96298619Y-78459809D01*
X97346238Y-77831238D02*
X97398619Y-77674095D01*
X97398619Y-77412190D01*
X97346238Y-77307428D01*
X97293857Y-77255047D01*
X97189095Y-77202666D01*
X97084333Y-77202666D01*
X96979571Y-77255047D01*
X96927190Y-77307428D01*
X96874809Y-77412190D01*
X96822428Y-77621714D01*
X96770047Y-77726476D01*
X96717666Y-77778857D01*
X96612904Y-77831238D01*
X96508142Y-77831238D01*
X96403380Y-77778857D01*
X96351000Y-77726476D01*
X96298619Y-77621714D01*
X96298619Y-77359809D01*
X96351000Y-77202666D01*
X96012000Y-75946000D02*
X96012000Y-72898000D01*
X96012000Y-80137000D02*
X96012000Y-76962000D01*
X97398619Y-75783904D02*
X96298619Y-75783904D01*
X96298619Y-75522000D01*
X96351000Y-75364857D01*
X96455761Y-75260095D01*
X96560523Y-75207714D01*
X96770047Y-75155333D01*
X96927190Y-75155333D01*
X97136714Y-75207714D01*
X97241476Y-75260095D01*
X97346238Y-75364857D01*
X97398619Y-75522000D01*
X97398619Y-75783904D01*
X97346238Y-74736285D02*
X97398619Y-74579142D01*
X97398619Y-74317238D01*
X97346238Y-74212476D01*
X97293857Y-74160095D01*
X97189095Y-74107714D01*
X97084333Y-74107714D01*
X96979571Y-74160095D01*
X96927190Y-74212476D01*
X96874809Y-74317238D01*
X96822428Y-74526761D01*
X96770047Y-74631523D01*
X96717666Y-74683904D01*
X96612904Y-74736285D01*
X96508142Y-74736285D01*
X96403380Y-74683904D01*
X96351000Y-74631523D01*
X96298619Y-74526761D01*
X96298619Y-74264857D01*
X96351000Y-74107714D01*
X97398619Y-73007714D02*
X96874809Y-73374380D01*
X97398619Y-73636285D02*
X96298619Y-73636285D01*
X96298619Y-73217238D01*
X96351000Y-73112476D01*
X96403380Y-73060095D01*
X96508142Y-73007714D01*
X96665285Y-73007714D01*
X96770047Y-73060095D01*
X96822428Y-73112476D01*
X96874809Y-73217238D01*
X96874809Y-73636285D01*
X124956142Y-95028619D02*
X124903761Y-94976238D01*
X124851380Y-94819095D01*
X124851380Y-94714333D01*
X124903761Y-94557190D01*
X125008523Y-94452428D01*
X125113285Y-94400047D01*
X125322809Y-94347666D01*
X125479952Y-94347666D01*
X125689476Y-94400047D01*
X125794238Y-94452428D01*
X125899000Y-94557190D01*
X125951380Y-94714333D01*
X125951380Y-94819095D01*
X125899000Y-94976238D01*
X125846619Y-95028619D01*
X125951380Y-95342904D02*
X125951380Y-95971476D01*
X124851380Y-95657190D02*
X125951380Y-95657190D01*
X124903761Y-96285761D02*
X124851380Y-96442904D01*
X124851380Y-96704809D01*
X124903761Y-96809571D01*
X124956142Y-96861952D01*
X125060904Y-96914333D01*
X125165666Y-96914333D01*
X125270428Y-96861952D01*
X125322809Y-96809571D01*
X125375190Y-96704809D01*
X125427571Y-96495285D01*
X125479952Y-96390523D01*
X125532333Y-96338142D01*
X125637095Y-96285761D01*
X125741857Y-96285761D01*
X125846619Y-96338142D01*
X125899000Y-96390523D01*
X125951380Y-96495285D01*
X125951380Y-96757190D01*
X125899000Y-96914333D01*
X126238000Y-98171000D02*
X126238000Y-101219000D01*
X126238000Y-93980000D02*
X126238000Y-97155000D01*
X124851380Y-98333095D02*
X125951380Y-98333095D01*
X125951380Y-98595000D01*
X125899000Y-98752142D01*
X125794238Y-98856904D01*
X125689476Y-98909285D01*
X125479952Y-98961666D01*
X125322809Y-98961666D01*
X125113285Y-98909285D01*
X125008523Y-98856904D01*
X124903761Y-98752142D01*
X124851380Y-98595000D01*
X124851380Y-98333095D01*
X124903761Y-99380714D02*
X124851380Y-99537857D01*
X124851380Y-99799761D01*
X124903761Y-99904523D01*
X124956142Y-99956904D01*
X125060904Y-100009285D01*
X125165666Y-100009285D01*
X125270428Y-99956904D01*
X125322809Y-99904523D01*
X125375190Y-99799761D01*
X125427571Y-99590238D01*
X125479952Y-99485476D01*
X125532333Y-99433095D01*
X125637095Y-99380714D01*
X125741857Y-99380714D01*
X125846619Y-99433095D01*
X125899000Y-99485476D01*
X125951380Y-99590238D01*
X125951380Y-99852142D01*
X125899000Y-100009285D01*
X124851380Y-101109285D02*
X125375190Y-100742619D01*
X124851380Y-100480714D02*
X125951380Y-100480714D01*
X125951380Y-100899761D01*
X125899000Y-101004523D01*
X125846619Y-101056904D01*
X125741857Y-101109285D01*
X125584714Y-101109285D01*
X125479952Y-101056904D01*
X125427571Y-101004523D01*
X125375190Y-100899761D01*
X125375190Y-100480714D01*
X101092000Y-99822000D02*
X101092000Y-102870000D01*
X101092000Y-95631000D02*
X101092000Y-98806000D01*
X99705380Y-95920095D02*
X100805380Y-95920095D01*
X100805380Y-96182000D01*
X100753000Y-96339142D01*
X100648238Y-96443904D01*
X100543476Y-96496285D01*
X100333952Y-96548666D01*
X100176809Y-96548666D01*
X99967285Y-96496285D01*
X99862523Y-96443904D01*
X99757761Y-96339142D01*
X99705380Y-96182000D01*
X99705380Y-95920095D01*
X99757761Y-96967714D02*
X99705380Y-97124857D01*
X99705380Y-97386761D01*
X99757761Y-97491523D01*
X99810142Y-97543904D01*
X99914904Y-97596285D01*
X100019666Y-97596285D01*
X100124428Y-97543904D01*
X100176809Y-97491523D01*
X100229190Y-97386761D01*
X100281571Y-97177238D01*
X100333952Y-97072476D01*
X100386333Y-97020095D01*
X100491095Y-96967714D01*
X100595857Y-96967714D01*
X100700619Y-97020095D01*
X100753000Y-97072476D01*
X100805380Y-97177238D01*
X100805380Y-97439142D01*
X100753000Y-97596285D01*
X99705380Y-98696285D02*
X100229190Y-98329619D01*
X99705380Y-98067714D02*
X100805380Y-98067714D01*
X100805380Y-98486761D01*
X100753000Y-98591523D01*
X100700619Y-98643904D01*
X100595857Y-98696285D01*
X100438714Y-98696285D01*
X100333952Y-98643904D01*
X100281571Y-98591523D01*
X100229190Y-98486761D01*
X100229190Y-98067714D01*
X99414000Y-79883000D02*
G75*
G03X99414000Y-79883000I-100000J0D01*
G01*
X120877000Y-84836000D02*
G75*
G03X120877000Y-84836000I-100000J0D01*
G01*
X132675380Y-116022380D02*
X132342047Y-115546190D01*
X132103952Y-116022380D02*
X132103952Y-115022380D01*
X132484904Y-115022380D01*
X132580142Y-115070000D01*
X132627761Y-115117619D01*
X132675380Y-115212857D01*
X132675380Y-115355714D01*
X132627761Y-115450952D01*
X132580142Y-115498571D01*
X132484904Y-115546190D01*
X132103952Y-115546190D01*
X132961095Y-115022380D02*
X133532523Y-115022380D01*
X133246809Y-116022380D02*
X133246809Y-115022380D01*
X133818238Y-115974761D02*
X133961095Y-116022380D01*
X134199190Y-116022380D01*
X134294428Y-115974761D01*
X134342047Y-115927142D01*
X134389666Y-115831904D01*
X134389666Y-115736666D01*
X134342047Y-115641428D01*
X134294428Y-115593809D01*
X134199190Y-115546190D01*
X134008714Y-115498571D01*
X133913476Y-115450952D01*
X133865857Y-115403333D01*
X133818238Y-115308095D01*
X133818238Y-115212857D01*
X133865857Y-115117619D01*
X133913476Y-115070000D01*
X134008714Y-115022380D01*
X134246809Y-115022380D01*
X134389666Y-115070000D01*
X128611333Y-116022380D02*
X128278000Y-115546190D01*
X128039904Y-116022380D02*
X128039904Y-115022380D01*
X128420857Y-115022380D01*
X128516095Y-115070000D01*
X128563714Y-115117619D01*
X128611333Y-115212857D01*
X128611333Y-115355714D01*
X128563714Y-115450952D01*
X128516095Y-115498571D01*
X128420857Y-115546190D01*
X128039904Y-115546190D01*
X128944666Y-115022380D02*
X129611333Y-116022380D01*
X129611333Y-115022380D02*
X128944666Y-116022380D01*
X130048095Y-115022380D02*
X130619523Y-115022380D01*
X130333809Y-116022380D02*
X130333809Y-115022380D01*
X130857619Y-115022380D02*
X131524285Y-116022380D01*
X131524285Y-115022380D02*
X130857619Y-116022380D01*
X135469380Y-115927142D02*
X135421761Y-115974761D01*
X135278904Y-116022380D01*
X135183666Y-116022380D01*
X135040809Y-115974761D01*
X134945571Y-115879523D01*
X134897952Y-115784285D01*
X134850333Y-115593809D01*
X134850333Y-115450952D01*
X134897952Y-115260476D01*
X134945571Y-115165238D01*
X135040809Y-115070000D01*
X135183666Y-115022380D01*
X135278904Y-115022380D01*
X135421761Y-115070000D01*
X135469380Y-115117619D01*
X135755095Y-115022380D02*
X136326523Y-115022380D01*
X136040809Y-116022380D02*
X136040809Y-115022380D01*
X136612238Y-115974761D02*
X136755095Y-116022380D01*
X136993190Y-116022380D01*
X137088428Y-115974761D01*
X137136047Y-115927142D01*
X137183666Y-115831904D01*
X137183666Y-115736666D01*
X137136047Y-115641428D01*
X137088428Y-115593809D01*
X136993190Y-115546190D01*
X136802714Y-115498571D01*
X136707476Y-115450952D01*
X136659857Y-115403333D01*
X136612238Y-115308095D01*
X136612238Y-115212857D01*
X136659857Y-115117619D01*
X136707476Y-115070000D01*
X136802714Y-115022380D01*
X137040809Y-115022380D01*
X137183666Y-115070000D01*
X86574380Y-108148380D02*
X86241047Y-107672190D01*
X86002952Y-108148380D02*
X86002952Y-107148380D01*
X86383904Y-107148380D01*
X86479142Y-107196000D01*
X86526761Y-107243619D01*
X86574380Y-107338857D01*
X86574380Y-107481714D01*
X86526761Y-107576952D01*
X86479142Y-107624571D01*
X86383904Y-107672190D01*
X86002952Y-107672190D01*
X86860095Y-107148380D02*
X87431523Y-107148380D01*
X87145809Y-108148380D02*
X87145809Y-107148380D01*
X87717238Y-108100761D02*
X87860095Y-108148380D01*
X88098190Y-108148380D01*
X88193428Y-108100761D01*
X88241047Y-108053142D01*
X88288666Y-107957904D01*
X88288666Y-107862666D01*
X88241047Y-107767428D01*
X88193428Y-107719809D01*
X88098190Y-107672190D01*
X87907714Y-107624571D01*
X87812476Y-107576952D01*
X87764857Y-107529333D01*
X87717238Y-107434095D01*
X87717238Y-107338857D01*
X87764857Y-107243619D01*
X87812476Y-107196000D01*
X87907714Y-107148380D01*
X88145809Y-107148380D01*
X88288666Y-107196000D01*
X80097333Y-108148380D02*
X79764000Y-107672190D01*
X79525904Y-108148380D02*
X79525904Y-107148380D01*
X79906857Y-107148380D01*
X80002095Y-107196000D01*
X80049714Y-107243619D01*
X80097333Y-107338857D01*
X80097333Y-107481714D01*
X80049714Y-107576952D01*
X80002095Y-107624571D01*
X79906857Y-107672190D01*
X79525904Y-107672190D01*
X80430666Y-107148380D02*
X81097333Y-108148380D01*
X81097333Y-107148380D02*
X80430666Y-108148380D01*
X82931095Y-107148380D02*
X83502523Y-107148380D01*
X83216809Y-108148380D02*
X83216809Y-107148380D01*
X83740619Y-107148380D02*
X84407285Y-108148380D01*
X84407285Y-107148380D02*
X83740619Y-108148380D01*
X89876380Y-108053142D02*
X89828761Y-108100761D01*
X89685904Y-108148380D01*
X89590666Y-108148380D01*
X89447809Y-108100761D01*
X89352571Y-108005523D01*
X89304952Y-107910285D01*
X89257333Y-107719809D01*
X89257333Y-107576952D01*
X89304952Y-107386476D01*
X89352571Y-107291238D01*
X89447809Y-107196000D01*
X89590666Y-107148380D01*
X89685904Y-107148380D01*
X89828761Y-107196000D01*
X89876380Y-107243619D01*
X90162095Y-107148380D02*
X90733523Y-107148380D01*
X90447809Y-108148380D02*
X90447809Y-107148380D01*
X91019238Y-108100761D02*
X91162095Y-108148380D01*
X91400190Y-108148380D01*
X91495428Y-108100761D01*
X91543047Y-108053142D01*
X91590666Y-107957904D01*
X91590666Y-107862666D01*
X91543047Y-107767428D01*
X91495428Y-107719809D01*
X91400190Y-107672190D01*
X91209714Y-107624571D01*
X91114476Y-107576952D01*
X91066857Y-107529333D01*
X91019238Y-107434095D01*
X91019238Y-107338857D01*
X91066857Y-107243619D01*
X91114476Y-107196000D01*
X91209714Y-107148380D01*
X91447809Y-107148380D01*
X91590666Y-107196000D01*
X141057380Y-107926142D02*
X141009761Y-107973761D01*
X140866904Y-108021380D01*
X140771666Y-108021380D01*
X140628809Y-107973761D01*
X140533571Y-107878523D01*
X140485952Y-107783285D01*
X140438333Y-107592809D01*
X140438333Y-107449952D01*
X140485952Y-107259476D01*
X140533571Y-107164238D01*
X140628809Y-107069000D01*
X140771666Y-107021380D01*
X140866904Y-107021380D01*
X141009761Y-107069000D01*
X141057380Y-107116619D01*
X141343095Y-107021380D02*
X141914523Y-107021380D01*
X141628809Y-108021380D02*
X141628809Y-107021380D01*
X142200238Y-107973761D02*
X142343095Y-108021380D01*
X142581190Y-108021380D01*
X142676428Y-107973761D01*
X142724047Y-107926142D01*
X142771666Y-107830904D01*
X142771666Y-107735666D01*
X142724047Y-107640428D01*
X142676428Y-107592809D01*
X142581190Y-107545190D01*
X142390714Y-107497571D01*
X142295476Y-107449952D01*
X142247857Y-107402333D01*
X142200238Y-107307095D01*
X142200238Y-107211857D01*
X142247857Y-107116619D01*
X142295476Y-107069000D01*
X142390714Y-107021380D01*
X142628809Y-107021380D01*
X142771666Y-107069000D01*
X137755380Y-108021380D02*
X137422047Y-107545190D01*
X137183952Y-108021380D02*
X137183952Y-107021380D01*
X137564904Y-107021380D01*
X137660142Y-107069000D01*
X137707761Y-107116619D01*
X137755380Y-107211857D01*
X137755380Y-107354714D01*
X137707761Y-107449952D01*
X137660142Y-107497571D01*
X137564904Y-107545190D01*
X137183952Y-107545190D01*
X138041095Y-107021380D02*
X138612523Y-107021380D01*
X138326809Y-108021380D02*
X138326809Y-107021380D01*
X138898238Y-107973761D02*
X139041095Y-108021380D01*
X139279190Y-108021380D01*
X139374428Y-107973761D01*
X139422047Y-107926142D01*
X139469666Y-107830904D01*
X139469666Y-107735666D01*
X139422047Y-107640428D01*
X139374428Y-107592809D01*
X139279190Y-107545190D01*
X139088714Y-107497571D01*
X138993476Y-107449952D01*
X138945857Y-107402333D01*
X138898238Y-107307095D01*
X138898238Y-107211857D01*
X138945857Y-107116619D01*
X138993476Y-107069000D01*
X139088714Y-107021380D01*
X139326809Y-107021380D01*
X139469666Y-107069000D01*
X131532333Y-108021380D02*
X131199000Y-107545190D01*
X130960904Y-108021380D02*
X130960904Y-107021380D01*
X131341857Y-107021380D01*
X131437095Y-107069000D01*
X131484714Y-107116619D01*
X131532333Y-107211857D01*
X131532333Y-107354714D01*
X131484714Y-107449952D01*
X131437095Y-107497571D01*
X131341857Y-107545190D01*
X130960904Y-107545190D01*
X131865666Y-107021380D02*
X132532333Y-108021380D01*
X132532333Y-107021380D02*
X131865666Y-108021380D01*
X134366095Y-107021380D02*
X134937523Y-107021380D01*
X134651809Y-108021380D02*
X134651809Y-107021380D01*
X135175619Y-107021380D02*
X135842285Y-108021380D01*
X135842285Y-107021380D02*
X135175619Y-108021380D01*
X99810142Y-100743619D02*
X99757761Y-100691238D01*
X99705380Y-100534095D01*
X99705380Y-100429333D01*
X99757761Y-100272190D01*
X99862523Y-100167428D01*
X99967285Y-100115047D01*
X100176809Y-100062666D01*
X100333952Y-100062666D01*
X100543476Y-100115047D01*
X100648238Y-100167428D01*
X100753000Y-100272190D01*
X100805380Y-100429333D01*
X100805380Y-100534095D01*
X100753000Y-100691238D01*
X100700619Y-100743619D01*
X100805380Y-101057904D02*
X100805380Y-101686476D01*
X99705380Y-101372190D02*
X100805380Y-101372190D01*
X99757761Y-102000761D02*
X99705380Y-102157904D01*
X99705380Y-102419809D01*
X99757761Y-102524571D01*
X99810142Y-102576952D01*
X99914904Y-102629333D01*
X100019666Y-102629333D01*
X100124428Y-102576952D01*
X100176809Y-102524571D01*
X100229190Y-102419809D01*
X100281571Y-102210285D01*
X100333952Y-102105523D01*
X100386333Y-102053142D01*
X100491095Y-102000761D01*
X100595857Y-102000761D01*
X100700619Y-102053142D01*
X100753000Y-102105523D01*
X100805380Y-102210285D01*
X100805380Y-102472190D01*
X100753000Y-102629333D01*
X114181047Y-75906380D02*
X114419142Y-76906380D01*
X114609619Y-76192095D01*
X114800095Y-76906380D01*
X115038190Y-75906380D01*
X115419142Y-76382571D02*
X115752476Y-76382571D01*
X115895333Y-76906380D02*
X115419142Y-76906380D01*
X115419142Y-75906380D01*
X115895333Y-75906380D01*
D11*
X100393595Y-70953380D02*
X100965023Y-70953380D01*
X100679309Y-71953380D02*
X100679309Y-70953380D01*
X101203119Y-70953380D02*
X101869785Y-71953380D01*
X101869785Y-70953380D02*
X101203119Y-71953380D01*
X98448833Y-71953380D02*
X98115500Y-71477190D01*
X97877404Y-71953380D02*
X97877404Y-70953380D01*
X98258357Y-70953380D01*
X98353595Y-71001000D01*
X98401214Y-71048619D01*
X98448833Y-71143857D01*
X98448833Y-71286714D01*
X98401214Y-71381952D01*
X98353595Y-71429571D01*
X98258357Y-71477190D01*
X97877404Y-71477190D01*
X98782166Y-70953380D02*
X99448833Y-71953380D01*
X99448833Y-70953380D02*
X98782166Y-71953380D01*
X94805595Y-71001000D02*
X94710357Y-70953380D01*
X94567500Y-70953380D01*
X94424642Y-71001000D01*
X94329404Y-71096238D01*
X94281785Y-71191476D01*
X94234166Y-71381952D01*
X94234166Y-71524809D01*
X94281785Y-71715285D01*
X94329404Y-71810523D01*
X94424642Y-71905761D01*
X94567500Y-71953380D01*
X94662738Y-71953380D01*
X94805595Y-71905761D01*
X94853214Y-71858142D01*
X94853214Y-71524809D01*
X94662738Y-71524809D01*
X95281785Y-71953380D02*
X95281785Y-70953380D01*
X95853214Y-71953380D01*
X95853214Y-70953380D01*
X96329404Y-71953380D02*
X96329404Y-70953380D01*
X96567500Y-70953380D01*
X96710357Y-71001000D01*
X96805595Y-71096238D01*
X96853214Y-71191476D01*
X96900833Y-71381952D01*
X96900833Y-71524809D01*
X96853214Y-71715285D01*
X96805595Y-71810523D01*
X96710357Y-71905761D01*
X96567500Y-71953380D01*
X96329404Y-71953380D01*
X89178071Y-69429380D02*
X89178071Y-70238904D01*
X89225690Y-70334142D01*
X89273309Y-70381761D01*
X89368547Y-70429380D01*
X89559023Y-70429380D01*
X89654261Y-70381761D01*
X89701880Y-70334142D01*
X89749500Y-70238904D01*
X89749500Y-69429380D01*
X90178071Y-70143666D02*
X90654261Y-70143666D01*
X90082833Y-70429380D02*
X90416166Y-69429380D01*
X90749500Y-70429380D01*
X91654261Y-70429380D02*
X91320928Y-69953190D01*
X91082833Y-70429380D02*
X91082833Y-69429380D01*
X91463785Y-69429380D01*
X91559023Y-69477000D01*
X91606642Y-69524619D01*
X91654261Y-69619857D01*
X91654261Y-69762714D01*
X91606642Y-69857952D01*
X91559023Y-69905571D01*
X91463785Y-69953190D01*
X91082833Y-69953190D01*
X91939976Y-69429380D02*
X92511404Y-69429380D01*
X92225690Y-70429380D02*
X92225690Y-69429380D01*
X93320928Y-69429380D02*
X92844738Y-69429380D01*
X92797119Y-69905571D01*
X92844738Y-69857952D01*
X92939976Y-69810333D01*
X93178071Y-69810333D01*
X93273309Y-69857952D01*
X93320928Y-69905571D01*
X93368547Y-70000809D01*
X93368547Y-70238904D01*
X93320928Y-70334142D01*
X93273309Y-70381761D01*
X93178071Y-70429380D01*
X92939976Y-70429380D01*
X92844738Y-70381761D01*
X92797119Y-70334142D01*
D12*
X79442857Y-68774571D02*
X79442857Y-69988857D01*
X79514285Y-70131714D01*
X79585714Y-70203142D01*
X79728571Y-70274571D01*
X80014285Y-70274571D01*
X80157142Y-70203142D01*
X80228571Y-70131714D01*
X80300000Y-69988857D01*
X80300000Y-68774571D01*
X80942857Y-69846000D02*
X81657142Y-69846000D01*
X80800000Y-70274571D02*
X81300000Y-68774571D01*
X81800000Y-70274571D01*
X83157142Y-70274571D02*
X82657142Y-69560285D01*
X82300000Y-70274571D02*
X82300000Y-68774571D01*
X82871428Y-68774571D01*
X83014285Y-68846000D01*
X83085714Y-68917428D01*
X83157142Y-69060285D01*
X83157142Y-69274571D01*
X83085714Y-69417428D01*
X83014285Y-69488857D01*
X82871428Y-69560285D01*
X82300000Y-69560285D01*
X83585714Y-68774571D02*
X84442857Y-68774571D01*
X84014285Y-70274571D02*
X84014285Y-68774571D01*
X85585714Y-69274571D02*
X85585714Y-70274571D01*
X85228571Y-68703142D02*
X84871428Y-69774571D01*
X85800000Y-69774571D01*
X136338857Y-68774571D02*
X136338857Y-69988857D01*
X136410285Y-70131714D01*
X136481714Y-70203142D01*
X136624571Y-70274571D01*
X136910285Y-70274571D01*
X137053142Y-70203142D01*
X137124571Y-70131714D01*
X137196000Y-69988857D01*
X137196000Y-68774571D01*
X137838857Y-69846000D02*
X138553142Y-69846000D01*
X137696000Y-70274571D02*
X138196000Y-68774571D01*
X138696000Y-70274571D01*
X140053142Y-70274571D02*
X139553142Y-69560285D01*
X139196000Y-70274571D02*
X139196000Y-68774571D01*
X139767428Y-68774571D01*
X139910285Y-68846000D01*
X139981714Y-68917428D01*
X140053142Y-69060285D01*
X140053142Y-69274571D01*
X139981714Y-69417428D01*
X139910285Y-69488857D01*
X139767428Y-69560285D01*
X139196000Y-69560285D01*
X140481714Y-68774571D02*
X141338857Y-68774571D01*
X140910285Y-70274571D02*
X140910285Y-68774571D01*
X142624571Y-70274571D02*
X141767428Y-70274571D01*
X142196000Y-70274571D02*
X142196000Y-68774571D01*
X142053142Y-68988857D01*
X141910285Y-69131714D01*
X141767428Y-69203142D01*
X87951857Y-114367571D02*
X87951857Y-115581857D01*
X88023285Y-115724714D01*
X88094714Y-115796142D01*
X88237571Y-115867571D01*
X88523285Y-115867571D01*
X88666142Y-115796142D01*
X88737571Y-115724714D01*
X88809000Y-115581857D01*
X88809000Y-114367571D01*
X89451857Y-115439000D02*
X90166142Y-115439000D01*
X89309000Y-115867571D02*
X89809000Y-114367571D01*
X90309000Y-115867571D01*
X91666142Y-115867571D02*
X91166142Y-115153285D01*
X90809000Y-115867571D02*
X90809000Y-114367571D01*
X91380428Y-114367571D01*
X91523285Y-114439000D01*
X91594714Y-114510428D01*
X91666142Y-114653285D01*
X91666142Y-114867571D01*
X91594714Y-115010428D01*
X91523285Y-115081857D01*
X91380428Y-115153285D01*
X90809000Y-115153285D01*
X92094714Y-114367571D02*
X92951857Y-114367571D01*
X92523285Y-115867571D02*
X92523285Y-114367571D01*
X93309000Y-114367571D02*
X94237571Y-114367571D01*
X93737571Y-114939000D01*
X93951857Y-114939000D01*
X94094714Y-115010428D01*
X94166142Y-115081857D01*
X94237571Y-115224714D01*
X94237571Y-115581857D01*
X94166142Y-115724714D01*
X94094714Y-115796142D01*
X93951857Y-115867571D01*
X93523285Y-115867571D01*
X93380428Y-115796142D01*
X93309000Y-115724714D01*
D10*
X122444285Y-85609309D02*
X123872857Y-85609309D01*
X122444285Y-86561690D02*
X123872857Y-86561690D01*
X123777619Y-83002166D02*
X122777619Y-83668833D01*
X123777619Y-83668833D02*
X122777619Y-83002166D01*
X122444285Y-88109309D02*
X123872857Y-88109309D01*
X122444285Y-89061690D02*
X123872857Y-89061690D01*
X123777619Y-90752166D02*
X122777619Y-91418833D01*
X123777619Y-91418833D02*
X122777619Y-90752166D01*
X99830214Y-88781690D02*
X98401642Y-88781690D01*
X99830214Y-87829309D02*
X98401642Y-87829309D01*
X98496880Y-91388833D02*
X99496880Y-90722166D01*
X98496880Y-90722166D02*
X99496880Y-91388833D01*
X99830214Y-86281690D02*
X98401642Y-86281690D01*
X99830214Y-85329309D02*
X98401642Y-85329309D01*
X98496880Y-83638833D02*
X99496880Y-82972166D01*
X98496880Y-82972166D02*
X99496880Y-83638833D01*
X110321690Y-95766285D02*
X110321690Y-97194857D01*
X109369309Y-95766285D02*
X109369309Y-97194857D01*
X112821690Y-95766285D02*
X112821690Y-97194857D01*
X111869309Y-95766285D02*
X111869309Y-97194857D01*
X107678833Y-97099619D02*
X107012166Y-96099619D01*
X107012166Y-97099619D02*
X107678833Y-96099619D01*
X115428833Y-97099619D02*
X114762166Y-96099619D01*
X114762166Y-97099619D02*
X115428833Y-96099619D01*
D13*
X78546356Y-63817611D02*
X78546356Y-113817611D01*
X78546356Y-63817611D02*
G75*
G02X81546356Y-60817611I3000000J0D01*
G01*
X140546356Y-60817611D02*
X81546356Y-60817611D01*
X140546356Y-60817611D02*
G75*
G02X143546356Y-63817611I0J-3000000D01*
G01*
X143546247Y-113792001D02*
X143546356Y-63817611D01*
X81546356Y-116817611D02*
G75*
G02X78546356Y-113817611I0J3000000D01*
G01*
X81546356Y-116817611D02*
X140546356Y-116817611D01*
X143546247Y-113792001D02*
G75*
G02X140546356Y-116817611I-2999891J-25610D01*
G01*
D10*
X99896000Y-79206500D02*
X99896000Y-80331500D01*
X109576000Y-79206500D02*
X109576000Y-75056500D01*
X99416000Y-79206500D02*
X99416000Y-75056500D01*
X109576000Y-79206500D02*
X109096000Y-79206500D01*
X109576000Y-75056500D02*
X109096000Y-75056500D01*
X99416000Y-75056500D02*
X99896000Y-75056500D01*
X99416000Y-79206500D02*
X99896000Y-79206500D01*
D14*
X128233500Y-112255500D02*
X128233500Y-114540500D01*
X128233500Y-114540500D02*
X129703500Y-114540500D01*
X129703500Y-114540500D02*
X129703500Y-112255500D01*
D10*
X122175000Y-72675000D02*
X122175000Y-72625000D01*
X118025000Y-72675000D02*
X118025000Y-72530000D01*
X118025000Y-67525000D02*
X118025000Y-67670000D01*
X122175000Y-67525000D02*
X122175000Y-67670000D01*
X122175000Y-72675000D02*
X118025000Y-72675000D01*
X122175000Y-67525000D02*
X118025000Y-67525000D01*
X122175000Y-72625000D02*
X123575000Y-72625000D01*
D14*
X114180000Y-70210000D02*
X114620000Y-70210000D01*
X114180000Y-69190000D02*
X114620000Y-69190000D01*
X117570000Y-75430000D02*
X117570000Y-72770000D01*
X114970000Y-75430000D02*
X117570000Y-75430000D01*
X114970000Y-72770000D02*
X117570000Y-72770000D01*
X114970000Y-75430000D02*
X114970000Y-72770000D01*
X113700000Y-75430000D02*
X112370000Y-75430000D01*
X112370000Y-75430000D02*
X112370000Y-74100000D01*
X114180000Y-70890000D02*
X114620000Y-70890000D01*
X114180000Y-71910000D02*
X114620000Y-71910000D01*
X119880000Y-74510000D02*
X120320000Y-74510000D01*
X119880000Y-73490000D02*
X120320000Y-73490000D01*
X114180000Y-67590000D02*
X114620000Y-67590000D01*
X114180000Y-68610000D02*
X114620000Y-68610000D01*
X143449000Y-102528000D02*
X131109000Y-102528000D01*
X131109000Y-102528000D02*
X131109000Y-71558000D01*
X131109000Y-71558000D02*
X143449000Y-71558000D01*
X130214662Y-92833000D02*
X130214662Y-92333000D01*
X130214662Y-92333000D02*
X130647675Y-92583000D01*
X130647675Y-92583000D02*
X130214662Y-92833000D01*
X105473500Y-104059675D02*
X105223500Y-103626662D01*
X105723500Y-103626662D02*
X105473500Y-104059675D01*
X105223500Y-103626662D02*
X105723500Y-103626662D01*
X126498500Y-104521000D02*
X126498500Y-116861000D01*
X95528500Y-104521000D02*
X126498500Y-104521000D01*
X95528500Y-116861000D02*
X95528500Y-104521000D01*
X78547000Y-71525500D02*
X90887000Y-71525500D01*
X90887000Y-71525500D02*
X90887000Y-102495500D01*
X90887000Y-102495500D02*
X78547000Y-102495500D01*
X91781338Y-81220500D02*
X91781338Y-81720500D01*
X91781338Y-81720500D02*
X91348325Y-81470500D01*
X91348325Y-81470500D02*
X91781338Y-81220500D01*
X129854000Y-72965000D02*
X127194000Y-72965000D01*
X129854000Y-78105000D02*
X129854000Y-72965000D01*
X127194000Y-78105000D02*
X127194000Y-72965000D01*
X129854000Y-78105000D02*
X127194000Y-78105000D01*
X129854000Y-79375000D02*
X129854000Y-80705000D01*
X129854000Y-80705000D02*
X128524000Y-80705000D01*
X127194000Y-93666000D02*
X128524000Y-93666000D01*
X127194000Y-94996000D02*
X127194000Y-93666000D01*
X127194000Y-96266000D02*
X129854000Y-96266000D01*
X129854000Y-96266000D02*
X129854000Y-101406000D01*
X127194000Y-96266000D02*
X127194000Y-101406000D01*
X127194000Y-101406000D02*
X129854000Y-101406000D01*
X99885500Y-67885000D02*
X99885500Y-70545000D01*
X99885500Y-67885000D02*
X94745500Y-67885000D01*
X94745500Y-67885000D02*
X94745500Y-70545000D01*
X99885500Y-70545000D02*
X94745500Y-70545000D01*
X102485500Y-70545000D02*
X101155500Y-70545000D01*
X102485500Y-69215000D02*
X102485500Y-70545000D01*
D10*
X120655000Y-85439000D02*
X120175000Y-85439000D01*
X120655000Y-89589000D02*
X120175000Y-89589000D01*
X110495000Y-89589000D02*
X110975000Y-89589000D01*
X110495000Y-85439000D02*
X110975000Y-85439000D01*
X120655000Y-85439000D02*
X120655000Y-89589000D01*
X110495000Y-85439000D02*
X110495000Y-89589000D01*
X120175000Y-85439000D02*
X120175000Y-84314000D01*
D14*
X124654000Y-92389000D02*
X129854000Y-92389000D01*
X124654000Y-84709000D02*
X124654000Y-92389000D01*
X129854000Y-82109000D02*
X129854000Y-92389000D01*
X124654000Y-84709000D02*
X127254000Y-84709000D01*
X127254000Y-84709000D02*
X127254000Y-82109000D01*
X127254000Y-82109000D02*
X129854000Y-82109000D01*
X124654000Y-83439000D02*
X124654000Y-82109000D01*
X124654000Y-82109000D02*
X125984000Y-82109000D01*
X134266000Y-103455000D02*
X134266000Y-105740000D01*
X135736000Y-103455000D02*
X134266000Y-103455000D01*
X135736000Y-105740000D02*
X135736000Y-103455000D01*
X132434000Y-105740000D02*
X132434000Y-103455000D01*
X132434000Y-103455000D02*
X130964000Y-103455000D01*
X130964000Y-103455000D02*
X130964000Y-105740000D01*
X137568000Y-103455000D02*
X137568000Y-105740000D01*
X139038000Y-103455000D02*
X137568000Y-103455000D01*
X139038000Y-105740000D02*
X139038000Y-103455000D01*
X142340000Y-105740000D02*
X142340000Y-103455000D01*
X142340000Y-103455000D02*
X140870000Y-103455000D01*
X140870000Y-103455000D02*
X140870000Y-105740000D01*
X131862500Y-114540500D02*
X131862500Y-112255500D01*
X130392500Y-114540500D02*
X131862500Y-114540500D01*
X130392500Y-112255500D02*
X130392500Y-114540500D01*
X134021500Y-114540500D02*
X134021500Y-112255500D01*
X132551500Y-114540500D02*
X134021500Y-114540500D01*
X132551500Y-112255500D02*
X132551500Y-114540500D01*
X134837500Y-112255500D02*
X134837500Y-114540500D01*
X134837500Y-114540500D02*
X136307500Y-114540500D01*
X136307500Y-114540500D02*
X136307500Y-112255500D01*
X82958000Y-103518500D02*
X82958000Y-105803500D01*
X84428000Y-103518500D02*
X82958000Y-103518500D01*
X84428000Y-105803500D02*
X84428000Y-103518500D01*
X81126000Y-105803500D02*
X81126000Y-103518500D01*
X81126000Y-103518500D02*
X79656000Y-103518500D01*
X79656000Y-103518500D02*
X79656000Y-105803500D01*
X86260000Y-103544000D02*
X86260000Y-105829000D01*
X87730000Y-103544000D02*
X86260000Y-103544000D01*
X87730000Y-105829000D02*
X87730000Y-103544000D01*
X91032000Y-105803500D02*
X91032000Y-103518500D01*
X91032000Y-103518500D02*
X89562000Y-103518500D01*
X89562000Y-103518500D02*
X89562000Y-105803500D01*
X106112000Y-97984000D02*
X106112000Y-103184000D01*
X113792000Y-97984000D02*
X106112000Y-97984000D01*
X116392000Y-103184000D02*
X106112000Y-103184000D01*
X113792000Y-97984000D02*
X113792000Y-100584000D01*
X113792000Y-100584000D02*
X116392000Y-100584000D01*
X116392000Y-100584000D02*
X116392000Y-103184000D01*
X115062000Y-97984000D02*
X116392000Y-97984000D01*
X116392000Y-97984000D02*
X116392000Y-99314000D01*
X120456000Y-95444000D02*
X117796000Y-95444000D01*
X120456000Y-100584000D02*
X120456000Y-95444000D01*
X117796000Y-100584000D02*
X117796000Y-95444000D01*
X120456000Y-100584000D02*
X117796000Y-100584000D01*
X120456000Y-101854000D02*
X120456000Y-103184000D01*
X120456000Y-103184000D02*
X119126000Y-103184000D01*
X104708000Y-103184000D02*
X103378000Y-103184000D01*
X104708000Y-101854000D02*
X104708000Y-103184000D01*
X104708000Y-100584000D02*
X102048000Y-100584000D01*
X102048000Y-100584000D02*
X102048000Y-95444000D01*
X104708000Y-100584000D02*
X104708000Y-95444000D01*
X104708000Y-95444000D02*
X102048000Y-95444000D01*
X97723000Y-92262000D02*
X96393000Y-92262000D01*
X97723000Y-90932000D02*
X97723000Y-92262000D01*
X95123000Y-92262000D02*
X92523000Y-92262000D01*
X95123000Y-89662000D02*
X95123000Y-92262000D01*
X97723000Y-89662000D02*
X95123000Y-89662000D01*
X92523000Y-92262000D02*
X92523000Y-81982000D01*
X97723000Y-89662000D02*
X97723000Y-81982000D01*
X97723000Y-81982000D02*
X92523000Y-81982000D01*
X92523000Y-101406000D02*
X95183000Y-101406000D01*
X92523000Y-96266000D02*
X92523000Y-101406000D01*
X95183000Y-96266000D02*
X95183000Y-101406000D01*
X92523000Y-96266000D02*
X95183000Y-96266000D01*
X92523000Y-94996000D02*
X92523000Y-93666000D01*
X92523000Y-93666000D02*
X93853000Y-93666000D01*
X95183000Y-80451000D02*
X93853000Y-80451000D01*
X95183000Y-79121000D02*
X95183000Y-80451000D01*
X95183000Y-77851000D02*
X92523000Y-77851000D01*
X92523000Y-77851000D02*
X92523000Y-72711000D01*
X95183000Y-77851000D02*
X95183000Y-72711000D01*
X95183000Y-72711000D02*
X92523000Y-72711000D01*
X145133000Y-97675000D02*
X142593000Y-97675000D01*
X145133000Y-97675000D02*
X145133000Y-95135000D01*
X144883000Y-97425000D02*
X135533000Y-97425000D01*
X144883000Y-76565000D02*
X144883000Y-97425000D01*
X135533000Y-76565000D02*
X144883000Y-76565000D01*
X135533000Y-97425000D02*
X135533000Y-76565000D01*
X100568000Y-108736000D02*
X121428000Y-108736000D01*
X121428000Y-108736000D02*
X121428000Y-118086000D01*
X121428000Y-118086000D02*
X100568000Y-118086000D01*
X100568000Y-118086000D02*
X100568000Y-108736000D01*
X100318000Y-118336000D02*
X102858000Y-118336000D01*
X100318000Y-118336000D02*
X100318000Y-115796000D01*
X76990000Y-76315000D02*
X79530000Y-76315000D01*
X76990000Y-76315000D02*
X76990000Y-78855000D01*
X77240000Y-76565000D02*
X86590000Y-76565000D01*
X77240000Y-97425000D02*
X77240000Y-76565000D01*
X86590000Y-97425000D02*
X77240000Y-97425000D01*
X86590000Y-76565000D02*
X86590000Y-97425000D01*
D13*
X109982047Y-79990190D02*
X109982047Y-80394952D01*
X110005857Y-80442571D01*
X110029666Y-80466380D01*
X110077285Y-80490190D01*
X110172523Y-80490190D01*
X110220142Y-80466380D01*
X110243952Y-80442571D01*
X110267761Y-80394952D01*
X110267761Y-79990190D01*
X110458238Y-79990190D02*
X110767761Y-79990190D01*
X110601095Y-80180666D01*
X110672523Y-80180666D01*
X110720142Y-80204476D01*
X110743952Y-80228285D01*
X110767761Y-80275904D01*
X110767761Y-80394952D01*
X110743952Y-80442571D01*
X110720142Y-80466380D01*
X110672523Y-80490190D01*
X110529666Y-80490190D01*
X110482047Y-80466380D01*
X110458238Y-80442571D01*
X122936047Y-73132190D02*
X122936047Y-73536952D01*
X122959857Y-73584571D01*
X122983666Y-73608380D01*
X123031285Y-73632190D01*
X123126523Y-73632190D01*
X123174142Y-73608380D01*
X123197952Y-73584571D01*
X123221761Y-73536952D01*
X123221761Y-73132190D01*
X123436047Y-73179809D02*
X123459857Y-73156000D01*
X123507476Y-73132190D01*
X123626523Y-73132190D01*
X123674142Y-73156000D01*
X123697952Y-73179809D01*
X123721761Y-73227428D01*
X123721761Y-73275047D01*
X123697952Y-73346476D01*
X123412238Y-73632190D01*
X123721761Y-73632190D01*
X111930666Y-69949190D02*
X111764000Y-69711095D01*
X111644952Y-69949190D02*
X111644952Y-69449190D01*
X111835428Y-69449190D01*
X111883047Y-69473000D01*
X111906857Y-69496809D01*
X111930666Y-69544428D01*
X111930666Y-69615857D01*
X111906857Y-69663476D01*
X111883047Y-69687285D01*
X111835428Y-69711095D01*
X111644952Y-69711095D01*
X112216380Y-69663476D02*
X112168761Y-69639666D01*
X112144952Y-69615857D01*
X112121142Y-69568238D01*
X112121142Y-69544428D01*
X112144952Y-69496809D01*
X112168761Y-69473000D01*
X112216380Y-69449190D01*
X112311619Y-69449190D01*
X112359238Y-69473000D01*
X112383047Y-69496809D01*
X112406857Y-69544428D01*
X112406857Y-69568238D01*
X112383047Y-69615857D01*
X112359238Y-69639666D01*
X112311619Y-69663476D01*
X112216380Y-69663476D01*
X112168761Y-69687285D01*
X112144952Y-69711095D01*
X112121142Y-69758714D01*
X112121142Y-69853952D01*
X112144952Y-69901571D01*
X112168761Y-69925380D01*
X112216380Y-69949190D01*
X112311619Y-69949190D01*
X112359238Y-69925380D01*
X112383047Y-69901571D01*
X112406857Y-69853952D01*
X112406857Y-69758714D01*
X112383047Y-69711095D01*
X112359238Y-69687285D01*
X112311619Y-69663476D01*
X111438571Y-71726190D02*
X111271904Y-71488095D01*
X111152857Y-71726190D02*
X111152857Y-71226190D01*
X111343333Y-71226190D01*
X111390952Y-71250000D01*
X111414761Y-71273809D01*
X111438571Y-71321428D01*
X111438571Y-71392857D01*
X111414761Y-71440476D01*
X111390952Y-71464285D01*
X111343333Y-71488095D01*
X111152857Y-71488095D01*
X111629047Y-71273809D02*
X111652857Y-71250000D01*
X111700476Y-71226190D01*
X111819523Y-71226190D01*
X111867142Y-71250000D01*
X111890952Y-71273809D01*
X111914761Y-71321428D01*
X111914761Y-71369047D01*
X111890952Y-71440476D01*
X111605238Y-71726190D01*
X111914761Y-71726190D01*
X112152857Y-71726190D02*
X112248095Y-71726190D01*
X112295714Y-71702380D01*
X112319523Y-71678571D01*
X112367142Y-71607142D01*
X112390952Y-71511904D01*
X112390952Y-71321428D01*
X112367142Y-71273809D01*
X112343333Y-71250000D01*
X112295714Y-71226190D01*
X112200476Y-71226190D01*
X112152857Y-71250000D01*
X112129047Y-71273809D01*
X112105238Y-71321428D01*
X112105238Y-71440476D01*
X112129047Y-71488095D01*
X112152857Y-71511904D01*
X112200476Y-71535714D01*
X112295714Y-71535714D01*
X112343333Y-71511904D01*
X112367142Y-71488095D01*
X112390952Y-71440476D01*
X119778571Y-75537190D02*
X119611904Y-75299095D01*
X119492857Y-75537190D02*
X119492857Y-75037190D01*
X119683333Y-75037190D01*
X119730952Y-75061000D01*
X119754761Y-75084809D01*
X119778571Y-75132428D01*
X119778571Y-75203857D01*
X119754761Y-75251476D01*
X119730952Y-75275285D01*
X119683333Y-75299095D01*
X119492857Y-75299095D01*
X120254761Y-75537190D02*
X119969047Y-75537190D01*
X120111904Y-75537190D02*
X120111904Y-75037190D01*
X120064285Y-75108619D01*
X120016666Y-75156238D01*
X119969047Y-75180047D01*
X120730952Y-75537190D02*
X120445238Y-75537190D01*
X120588095Y-75537190D02*
X120588095Y-75037190D01*
X120540476Y-75108619D01*
X120492857Y-75156238D01*
X120445238Y-75180047D01*
X111930666Y-68226190D02*
X111764000Y-67988095D01*
X111644952Y-68226190D02*
X111644952Y-67726190D01*
X111835428Y-67726190D01*
X111883047Y-67750000D01*
X111906857Y-67773809D01*
X111930666Y-67821428D01*
X111930666Y-67892857D01*
X111906857Y-67940476D01*
X111883047Y-67964285D01*
X111835428Y-67988095D01*
X111644952Y-67988095D01*
X112359238Y-67726190D02*
X112264000Y-67726190D01*
X112216380Y-67750000D01*
X112192571Y-67773809D01*
X112144952Y-67845238D01*
X112121142Y-67940476D01*
X112121142Y-68130952D01*
X112144952Y-68178571D01*
X112168761Y-68202380D01*
X112216380Y-68226190D01*
X112311619Y-68226190D01*
X112359238Y-68202380D01*
X112383047Y-68178571D01*
X112406857Y-68130952D01*
X112406857Y-68011904D01*
X112383047Y-67964285D01*
X112359238Y-67940476D01*
X112311619Y-67916666D01*
X112216380Y-67916666D01*
X112168761Y-67940476D01*
X112144952Y-67964285D01*
X112121142Y-68011904D01*
X120142047Y-91166190D02*
X120142047Y-91570952D01*
X120165857Y-91618571D01*
X120189666Y-91642380D01*
X120237285Y-91666190D01*
X120332523Y-91666190D01*
X120380142Y-91642380D01*
X120403952Y-91618571D01*
X120427761Y-91570952D01*
X120427761Y-91166190D01*
X120927761Y-91666190D02*
X120642047Y-91666190D01*
X120784904Y-91666190D02*
X120784904Y-91166190D01*
X120737285Y-91237619D01*
X120689666Y-91285238D01*
X120642047Y-91309047D01*
X108509571Y-86884833D02*
X108533380Y-86908642D01*
X108557190Y-86980071D01*
X108557190Y-87027690D01*
X108533380Y-87099119D01*
X108485761Y-87146738D01*
X108438142Y-87170547D01*
X108342904Y-87194357D01*
X108271476Y-87194357D01*
X108176238Y-87170547D01*
X108128619Y-87146738D01*
X108081000Y-87099119D01*
X108057190Y-87027690D01*
X108057190Y-86980071D01*
X108081000Y-86908642D01*
X108104809Y-86884833D01*
X108557190Y-86408642D02*
X108557190Y-86694357D01*
X108557190Y-86551500D02*
X108057190Y-86551500D01*
X108128619Y-86599119D01*
X108176238Y-86646738D01*
X108200047Y-86694357D01*
X111699666Y-93269571D02*
X111675857Y-93293380D01*
X111604428Y-93317190D01*
X111556809Y-93317190D01*
X111485380Y-93293380D01*
X111437761Y-93245761D01*
X111413952Y-93198142D01*
X111390142Y-93102904D01*
X111390142Y-93031476D01*
X111413952Y-92936238D01*
X111437761Y-92888619D01*
X111485380Y-92841000D01*
X111556809Y-92817190D01*
X111604428Y-92817190D01*
X111675857Y-92841000D01*
X111699666Y-92864809D01*
X111890142Y-92864809D02*
X111913952Y-92841000D01*
X111961571Y-92817190D01*
X112080619Y-92817190D01*
X112128238Y-92841000D01*
X112152047Y-92864809D01*
X112175857Y-92912428D01*
X112175857Y-92960047D01*
X112152047Y-93031476D01*
X111866333Y-93317190D01*
X112175857Y-93317190D01*
X112279166Y-82220571D02*
X112255357Y-82244380D01*
X112183928Y-82268190D01*
X112136309Y-82268190D01*
X112064880Y-82244380D01*
X112017261Y-82196761D01*
X111993452Y-82149142D01*
X111969642Y-82053904D01*
X111969642Y-81982476D01*
X111993452Y-81887238D01*
X112017261Y-81839619D01*
X112064880Y-81792000D01*
X112136309Y-81768190D01*
X112183928Y-81768190D01*
X112255357Y-81792000D01*
X112279166Y-81815809D01*
X112445833Y-81768190D02*
X112755357Y-81768190D01*
X112588690Y-81958666D01*
X112660119Y-81958666D01*
X112707738Y-81982476D01*
X112731547Y-82006285D01*
X112755357Y-82053904D01*
X112755357Y-82172952D01*
X112731547Y-82220571D01*
X112707738Y-82244380D01*
X112660119Y-82268190D01*
X112517261Y-82268190D01*
X112469642Y-82244380D01*
X112445833Y-82220571D01*
X114493666Y-93269571D02*
X114469857Y-93293380D01*
X114398428Y-93317190D01*
X114350809Y-93317190D01*
X114279380Y-93293380D01*
X114231761Y-93245761D01*
X114207952Y-93198142D01*
X114184142Y-93102904D01*
X114184142Y-93031476D01*
X114207952Y-92936238D01*
X114231761Y-92888619D01*
X114279380Y-92841000D01*
X114350809Y-92817190D01*
X114398428Y-92817190D01*
X114469857Y-92841000D01*
X114493666Y-92864809D01*
X114922238Y-92983857D02*
X114922238Y-93317190D01*
X114803190Y-92793380D02*
X114684142Y-93150523D01*
X114993666Y-93150523D01*
X107612666Y-82855571D02*
X107588857Y-82879380D01*
X107517428Y-82903190D01*
X107469809Y-82903190D01*
X107398380Y-82879380D01*
X107350761Y-82831761D01*
X107326952Y-82784142D01*
X107303142Y-82688904D01*
X107303142Y-82617476D01*
X107326952Y-82522238D01*
X107350761Y-82474619D01*
X107398380Y-82427000D01*
X107469809Y-82403190D01*
X107517428Y-82403190D01*
X107588857Y-82427000D01*
X107612666Y-82450809D01*
X108065047Y-82403190D02*
X107826952Y-82403190D01*
X107803142Y-82641285D01*
X107826952Y-82617476D01*
X107874571Y-82593666D01*
X107993619Y-82593666D01*
X108041238Y-82617476D01*
X108065047Y-82641285D01*
X108088857Y-82688904D01*
X108088857Y-82807952D01*
X108065047Y-82855571D01*
X108041238Y-82879380D01*
X107993619Y-82903190D01*
X107874571Y-82903190D01*
X107826952Y-82879380D01*
X107803142Y-82855571D01*
X112065571Y-77927333D02*
X112089380Y-77951142D01*
X112113190Y-78022571D01*
X112113190Y-78070190D01*
X112089380Y-78141619D01*
X112041761Y-78189238D01*
X111994142Y-78213047D01*
X111898904Y-78236857D01*
X111827476Y-78236857D01*
X111732238Y-78213047D01*
X111684619Y-78189238D01*
X111637000Y-78141619D01*
X111613190Y-78070190D01*
X111613190Y-78022571D01*
X111637000Y-77951142D01*
X111660809Y-77927333D01*
X111613190Y-77498761D02*
X111613190Y-77594000D01*
X111637000Y-77641619D01*
X111660809Y-77665428D01*
X111732238Y-77713047D01*
X111827476Y-77736857D01*
X112017952Y-77736857D01*
X112065571Y-77713047D01*
X112089380Y-77689238D01*
X112113190Y-77641619D01*
X112113190Y-77546380D01*
X112089380Y-77498761D01*
X112065571Y-77474952D01*
X112017952Y-77451142D01*
X111898904Y-77451142D01*
X111851285Y-77474952D01*
X111827476Y-77498761D01*
X111803666Y-77546380D01*
X111803666Y-77641619D01*
X111827476Y-77689238D01*
X111851285Y-77713047D01*
X111898904Y-77736857D01*
X107675166Y-71679571D02*
X107651357Y-71703380D01*
X107579928Y-71727190D01*
X107532309Y-71727190D01*
X107460880Y-71703380D01*
X107413261Y-71655761D01*
X107389452Y-71608142D01*
X107365642Y-71512904D01*
X107365642Y-71441476D01*
X107389452Y-71346238D01*
X107413261Y-71298619D01*
X107460880Y-71251000D01*
X107532309Y-71227190D01*
X107579928Y-71227190D01*
X107651357Y-71251000D01*
X107675166Y-71274809D01*
X107841833Y-71227190D02*
X108175166Y-71227190D01*
X107960880Y-71727190D01*
X104421166Y-71679571D02*
X104397357Y-71703380D01*
X104325928Y-71727190D01*
X104278309Y-71727190D01*
X104206880Y-71703380D01*
X104159261Y-71655761D01*
X104135452Y-71608142D01*
X104111642Y-71512904D01*
X104111642Y-71441476D01*
X104135452Y-71346238D01*
X104159261Y-71298619D01*
X104206880Y-71251000D01*
X104278309Y-71227190D01*
X104325928Y-71227190D01*
X104397357Y-71251000D01*
X104421166Y-71274809D01*
X104706880Y-71441476D02*
X104659261Y-71417666D01*
X104635452Y-71393857D01*
X104611642Y-71346238D01*
X104611642Y-71322428D01*
X104635452Y-71274809D01*
X104659261Y-71251000D01*
X104706880Y-71227190D01*
X104802119Y-71227190D01*
X104849738Y-71251000D01*
X104873547Y-71274809D01*
X104897357Y-71322428D01*
X104897357Y-71346238D01*
X104873547Y-71393857D01*
X104849738Y-71417666D01*
X104802119Y-71441476D01*
X104706880Y-71441476D01*
X104659261Y-71465285D01*
X104635452Y-71489095D01*
X104611642Y-71536714D01*
X104611642Y-71631952D01*
X104635452Y-71679571D01*
X104659261Y-71703380D01*
X104706880Y-71727190D01*
X104802119Y-71727190D01*
X104849738Y-71703380D01*
X104873547Y-71679571D01*
X104897357Y-71631952D01*
X104897357Y-71536714D01*
X104873547Y-71489095D01*
X104849738Y-71465285D01*
X104802119Y-71441476D01*
X105850571Y-91793190D02*
X105683904Y-91555095D01*
X105564857Y-91793190D02*
X105564857Y-91293190D01*
X105755333Y-91293190D01*
X105802952Y-91317000D01*
X105826761Y-91340809D01*
X105850571Y-91388428D01*
X105850571Y-91459857D01*
X105826761Y-91507476D01*
X105802952Y-91531285D01*
X105755333Y-91555095D01*
X105564857Y-91555095D01*
X106326761Y-91793190D02*
X106041047Y-91793190D01*
X106183904Y-91793190D02*
X106183904Y-91293190D01*
X106136285Y-91364619D01*
X106088666Y-91412238D01*
X106041047Y-91436047D01*
X106755333Y-91293190D02*
X106660095Y-91293190D01*
X106612476Y-91317000D01*
X106588666Y-91340809D01*
X106541047Y-91412238D01*
X106517238Y-91507476D01*
X106517238Y-91697952D01*
X106541047Y-91745571D01*
X106564857Y-91769380D01*
X106612476Y-91793190D01*
X106707714Y-91793190D01*
X106755333Y-91769380D01*
X106779142Y-91745571D01*
X106802952Y-91697952D01*
X106802952Y-91578904D01*
X106779142Y-91531285D01*
X106755333Y-91507476D01*
X106707714Y-91483666D01*
X106612476Y-91483666D01*
X106564857Y-91507476D01*
X106541047Y-91531285D01*
X106517238Y-91578904D01*
X105850571Y-89888190D02*
X105683904Y-89650095D01*
X105564857Y-89888190D02*
X105564857Y-89388190D01*
X105755333Y-89388190D01*
X105802952Y-89412000D01*
X105826761Y-89435809D01*
X105850571Y-89483428D01*
X105850571Y-89554857D01*
X105826761Y-89602476D01*
X105802952Y-89626285D01*
X105755333Y-89650095D01*
X105564857Y-89650095D01*
X106326761Y-89888190D02*
X106041047Y-89888190D01*
X106183904Y-89888190D02*
X106183904Y-89388190D01*
X106136285Y-89459619D01*
X106088666Y-89507238D01*
X106041047Y-89531047D01*
X106493428Y-89388190D02*
X106826761Y-89388190D01*
X106612476Y-89888190D01*
X100389571Y-73124190D02*
X100222904Y-72886095D01*
X100103857Y-73124190D02*
X100103857Y-72624190D01*
X100294333Y-72624190D01*
X100341952Y-72648000D01*
X100365761Y-72671809D01*
X100389571Y-72719428D01*
X100389571Y-72790857D01*
X100365761Y-72838476D01*
X100341952Y-72862285D01*
X100294333Y-72886095D01*
X100103857Y-72886095D01*
X100865761Y-73124190D02*
X100580047Y-73124190D01*
X100722904Y-73124190D02*
X100722904Y-72624190D01*
X100675285Y-72695619D01*
X100627666Y-72743238D01*
X100580047Y-72767047D01*
X101151476Y-72838476D02*
X101103857Y-72814666D01*
X101080047Y-72790857D01*
X101056238Y-72743238D01*
X101056238Y-72719428D01*
X101080047Y-72671809D01*
X101103857Y-72648000D01*
X101151476Y-72624190D01*
X101246714Y-72624190D01*
X101294333Y-72648000D01*
X101318142Y-72671809D01*
X101341952Y-72719428D01*
X101341952Y-72743238D01*
X101318142Y-72790857D01*
X101294333Y-72814666D01*
X101246714Y-72838476D01*
X101151476Y-72838476D01*
X101103857Y-72862285D01*
X101080047Y-72886095D01*
X101056238Y-72933714D01*
X101056238Y-73028952D01*
X101080047Y-73076571D01*
X101103857Y-73100380D01*
X101151476Y-73124190D01*
X101246714Y-73124190D01*
X101294333Y-73100380D01*
X101318142Y-73076571D01*
X101341952Y-73028952D01*
X101341952Y-72933714D01*
X101318142Y-72886095D01*
X101294333Y-72862285D01*
X101246714Y-72838476D01*
X98524190Y-76013428D02*
X98286095Y-76180095D01*
X98524190Y-76299142D02*
X98024190Y-76299142D01*
X98024190Y-76108666D01*
X98048000Y-76061047D01*
X98071809Y-76037238D01*
X98119428Y-76013428D01*
X98190857Y-76013428D01*
X98238476Y-76037238D01*
X98262285Y-76061047D01*
X98286095Y-76108666D01*
X98286095Y-76299142D01*
X98524190Y-75537238D02*
X98524190Y-75822952D01*
X98524190Y-75680095D02*
X98024190Y-75680095D01*
X98095619Y-75727714D01*
X98143238Y-75775333D01*
X98167047Y-75822952D01*
X98524190Y-75299142D02*
X98524190Y-75203904D01*
X98500380Y-75156285D01*
X98476571Y-75132476D01*
X98405142Y-75084857D01*
X98309904Y-75061047D01*
X98119428Y-75061047D01*
X98071809Y-75084857D01*
X98048000Y-75108666D01*
X98024190Y-75156285D01*
X98024190Y-75251523D01*
X98048000Y-75299142D01*
X98071809Y-75322952D01*
X98119428Y-75346761D01*
X98238476Y-75346761D01*
X98286095Y-75322952D01*
X98309904Y-75299142D01*
X98333714Y-75251523D01*
X98333714Y-75156285D01*
X98309904Y-75108666D01*
X98286095Y-75084857D01*
X98238476Y-75061047D01*
M02*
