M48
; DRILL file {KiCad 5.1.5+dfsg1-2build2} date fre 10 sep 2021 06:31:12
; FORMAT={3:3/ absolute / metric / suppress leading zeros}
; #@! TF.CreationDate,2021-09-10T06:31:12+02:00
; #@! TF.GenerationSoftware,Kicad,Pcbnew,5.1.5+dfsg1-2build2
FMAT,2
METRIC,TZ
T1C0.200
T2C1.000
T3C1.016
T4C3.200
T5C2.750
%
G90
G05
T1
X80391Y-103124
X82042Y-103632
X83693Y-103124
X85344Y-103759
X86995Y-103124
X88646Y-103759
X90297Y-103124
X92075Y-103759
X98298Y-72644
X98933Y-85598
X99314Y-73533
X99695Y-90551
X100965Y-88519
X101047Y-77896
X101727Y-80899
X102108Y-70993
X102997Y-78740
X103124Y-71628
X103124Y-72644
X103632Y-78740
X104267Y-78740
X104902Y-78740
X106172Y-78613
X106807Y-78613
X106807Y-89662
X106807Y-91440
X107315Y-82804
X109601Y-89789
X109601Y-91567
X110236Y-70612
X112776Y-81915
X113284Y-86233
X113792Y-81788
X114046Y-86233
X114554Y-91186
X114841Y-81788
X115316Y-83820
X115316Y-91186
X115697Y-81788
X115770Y-92129
X115916Y-91186
X115951Y-83820
X116586Y-81788
X116586Y-83820
X117094Y-91186
X117221Y-83820
X117602Y-81788
X117729Y-91186
X118364Y-91186
X121666Y-84963
X121980Y-74000
X123317Y-82423
X124500Y-68000
X124500Y-69500
X124500Y-71000
X124500Y-72000
X128910Y-106675
X129032Y-114808
X131064Y-108679
X131064Y-114808
X131699Y-103251
X133223Y-107315
X133223Y-108679
X133350Y-114681
X135001Y-103251
X135636Y-114681
X138303Y-103251
X141605Y-103251
T2
X125984Y-83439
X125984Y-85979
X125984Y-88519
X125984Y-91059
X128524Y-83439
X128524Y-85979
X128524Y-88519
X128524Y-91059
X107442Y-99314
X107442Y-101854
X109982Y-99314
X109982Y-101854
X112522Y-99314
X112522Y-101854
X115062Y-99314
X115062Y-101854
X93853Y-94996
X93853Y-97536
X93853Y-100076
X128524Y-74295
X128524Y-76835
X128524Y-79375
X96076Y-69215
X98616Y-69215
X101156Y-69215
X103378Y-96774
X103378Y-99314
X103378Y-101854
X93853Y-83312
X93853Y-85852
X93853Y-88392
X93853Y-90932
X96393Y-83312
X96393Y-85852
X96393Y-88392
X96393Y-90932
X113700Y-74100
X116240Y-74100
X86920Y-63050
X86920Y-65590
X89460Y-63050
X89460Y-65590
X92000Y-63050
X92000Y-65590
X94540Y-63050
X94540Y-65590
X97080Y-63050
X97080Y-65590
X99620Y-63050
X99620Y-65590
X102160Y-63050
X102160Y-65590
X104700Y-63050
X104700Y-65590
X107240Y-63050
X107240Y-65590
X109780Y-63050
X109780Y-65590
X112320Y-63050
X112320Y-65590
X114860Y-63050
X114860Y-65590
X117400Y-63050
X117400Y-65590
X119940Y-63050
X119940Y-65590
X122480Y-63050
X122480Y-65590
X125020Y-63050
X125020Y-65590
X127560Y-63050
X127560Y-65590
X130100Y-63050
X130100Y-65590
X132640Y-63050
X132640Y-65590
X135180Y-63050
X135180Y-65590
X119126Y-96774
X119126Y-99314
X119126Y-101854
X93853Y-74041
X93853Y-76581
X93853Y-79121
X86187Y-82856
X86187Y-85626
X86187Y-88396
X86187Y-91166
X89027Y-81471
X89027Y-84241
X89027Y-87011
X89027Y-89781
X89027Y-92551
X128524Y-94996
X128524Y-97536
X128524Y-100076
X132969Y-81503
X132969Y-84273
X132969Y-87043
X132969Y-89813
X132969Y-92583
X135809Y-82888
X135809Y-85658
X135809Y-88428
X135809Y-91198
X105474Y-106381
X106859Y-109221
X108243Y-106381
X109628Y-109221
X111014Y-106381
X112398Y-109221
X113783Y-106381
X115168Y-109221
X116554Y-106381
T3
X105918Y-112141
X105918Y-114681
X108458Y-112141
X108458Y-114681
X110998Y-112141
X110998Y-114681
X113538Y-112141
X113538Y-114681
X116078Y-112141
X116078Y-114681
X80645Y-81915
X80645Y-84455
X80645Y-86995
X80645Y-89535
X80645Y-92075
X83185Y-81915
X83185Y-84455
X83185Y-86995
X83185Y-89535
X83185Y-92075
X138938Y-81915
X138938Y-84455
X138938Y-86995
X138938Y-89535
X138938Y-92075
X141478Y-81915
X141478Y-84455
X141478Y-86995
X141478Y-89535
X141478Y-92075
T4
X87607Y-74511
X87607Y-99511
X134389Y-74543
X134389Y-99543
X98514Y-107801
X123514Y-107801
T5
X140030Y-113310
X82040Y-113320
X140040Y-64330
X82040Y-64310
T0
M30
