G04 #@! TF.GenerationSoftware,KiCad,Pcbnew,5.1.5+dfsg1-2build2*
G04 #@! TF.CreationDate,2021-09-10T06:31:07+02:00*
G04 #@! TF.ProjectId,RPi_V24,5250695f-5632-4342-9e6b-696361645f70,1*
G04 #@! TF.SameCoordinates,Original*
G04 #@! TF.FileFunction,Copper,L1,Top*
G04 #@! TF.FilePolarity,Positive*
%FSLAX46Y46*%
G04 Gerber Fmt 4.6, Leading zero omitted, Abs format (unit mm)*
G04 Created by KiCad (PCBNEW 5.1.5+dfsg1-2build2) date 2021-09-10 06:31:07*
%MOMM*%
%LPD*%
G04 APERTURE LIST*
%ADD10C,0.300000*%
%ADD11C,0.100000*%
%ADD12R,0.400000X1.200000*%
%ADD13R,1.700000X1.700000*%
%ADD14O,1.700000X1.700000*%
%ADD15R,1.550000X0.600000*%
%ADD16R,0.845000X1.000000*%
%ADD17C,3.000000*%
%ADD18R,1.600000X1.600000*%
%ADD19C,1.600000*%
%ADD20C,4.000000*%
%ADD21O,1.727200X1.727200*%
%ADD22R,1.727200X1.727200*%
%ADD23C,0.400000*%
%ADD24C,0.200000*%
%ADD25C,0.150000*%
%ADD26C,0.250000*%
G04 APERTURE END LIST*
D10*
X121459571Y-115994571D02*
X120602428Y-115994571D01*
X121031000Y-115994571D02*
X121031000Y-114494571D01*
X120888142Y-114708857D01*
X120745285Y-114851714D01*
X120602428Y-114923142D01*
D11*
X78546356Y-63817611D02*
X78546356Y-113817611D01*
X78546356Y-63817611D02*
G75*
G02X81546356Y-60817611I3000000J0D01*
G01*
X140546356Y-60817611D02*
X81546356Y-60817611D01*
X140546356Y-60817611D02*
G75*
G02X143546356Y-63817611I0J-3000000D01*
G01*
X143546247Y-113792001D02*
X143546356Y-63817611D01*
X81546356Y-116817611D02*
G75*
G02X78546356Y-113817611I0J3000000D01*
G01*
X81546356Y-116817611D02*
X140546356Y-116817611D01*
X143546247Y-113792001D02*
G75*
G02X140546356Y-116817611I-2999891J-25610D01*
G01*
D12*
X100368500Y-74531500D03*
X101003500Y-74531500D03*
X101638500Y-74531500D03*
X102273500Y-74531500D03*
X102908500Y-74531500D03*
X103543500Y-74531500D03*
X104178500Y-74531500D03*
X104813500Y-74531500D03*
X105448500Y-74531500D03*
X106083500Y-74531500D03*
X106718500Y-74531500D03*
X107353500Y-74531500D03*
X107988500Y-74531500D03*
X108623500Y-74531500D03*
X108623500Y-79731500D03*
X107988500Y-79731500D03*
X107353500Y-79731500D03*
X106718500Y-79731500D03*
X106083500Y-79731500D03*
X105448500Y-79731500D03*
X104813500Y-79731500D03*
X104178500Y-79731500D03*
X103543500Y-79731500D03*
X102908500Y-79731500D03*
X102273500Y-79731500D03*
X101638500Y-79731500D03*
X101003500Y-79731500D03*
X100368500Y-79731500D03*
G04 #@! TA.AperFunction,SMDPad,CuDef*
D11*
G36*
X129246191Y-113406553D02*
G01*
X129267426Y-113409703D01*
X129288250Y-113414919D01*
X129308462Y-113422151D01*
X129327868Y-113431330D01*
X129346281Y-113442366D01*
X129363524Y-113455154D01*
X129379430Y-113469570D01*
X129393846Y-113485476D01*
X129406634Y-113502719D01*
X129417670Y-113521132D01*
X129426849Y-113540538D01*
X129434081Y-113560750D01*
X129439297Y-113581574D01*
X129442447Y-113602809D01*
X129443500Y-113624250D01*
X129443500Y-114061750D01*
X129442447Y-114083191D01*
X129439297Y-114104426D01*
X129434081Y-114125250D01*
X129426849Y-114145462D01*
X129417670Y-114164868D01*
X129406634Y-114183281D01*
X129393846Y-114200524D01*
X129379430Y-114216430D01*
X129363524Y-114230846D01*
X129346281Y-114243634D01*
X129327868Y-114254670D01*
X129308462Y-114263849D01*
X129288250Y-114271081D01*
X129267426Y-114276297D01*
X129246191Y-114279447D01*
X129224750Y-114280500D01*
X128712250Y-114280500D01*
X128690809Y-114279447D01*
X128669574Y-114276297D01*
X128648750Y-114271081D01*
X128628538Y-114263849D01*
X128609132Y-114254670D01*
X128590719Y-114243634D01*
X128573476Y-114230846D01*
X128557570Y-114216430D01*
X128543154Y-114200524D01*
X128530366Y-114183281D01*
X128519330Y-114164868D01*
X128510151Y-114145462D01*
X128502919Y-114125250D01*
X128497703Y-114104426D01*
X128494553Y-114083191D01*
X128493500Y-114061750D01*
X128493500Y-113624250D01*
X128494553Y-113602809D01*
X128497703Y-113581574D01*
X128502919Y-113560750D01*
X128510151Y-113540538D01*
X128519330Y-113521132D01*
X128530366Y-113502719D01*
X128543154Y-113485476D01*
X128557570Y-113469570D01*
X128573476Y-113455154D01*
X128590719Y-113442366D01*
X128609132Y-113431330D01*
X128628538Y-113422151D01*
X128648750Y-113414919D01*
X128669574Y-113409703D01*
X128690809Y-113406553D01*
X128712250Y-113405500D01*
X129224750Y-113405500D01*
X129246191Y-113406553D01*
G37*
G04 #@! TD.AperFunction*
G04 #@! TA.AperFunction,SMDPad,CuDef*
G36*
X129246191Y-111831553D02*
G01*
X129267426Y-111834703D01*
X129288250Y-111839919D01*
X129308462Y-111847151D01*
X129327868Y-111856330D01*
X129346281Y-111867366D01*
X129363524Y-111880154D01*
X129379430Y-111894570D01*
X129393846Y-111910476D01*
X129406634Y-111927719D01*
X129417670Y-111946132D01*
X129426849Y-111965538D01*
X129434081Y-111985750D01*
X129439297Y-112006574D01*
X129442447Y-112027809D01*
X129443500Y-112049250D01*
X129443500Y-112486750D01*
X129442447Y-112508191D01*
X129439297Y-112529426D01*
X129434081Y-112550250D01*
X129426849Y-112570462D01*
X129417670Y-112589868D01*
X129406634Y-112608281D01*
X129393846Y-112625524D01*
X129379430Y-112641430D01*
X129363524Y-112655846D01*
X129346281Y-112668634D01*
X129327868Y-112679670D01*
X129308462Y-112688849D01*
X129288250Y-112696081D01*
X129267426Y-112701297D01*
X129246191Y-112704447D01*
X129224750Y-112705500D01*
X128712250Y-112705500D01*
X128690809Y-112704447D01*
X128669574Y-112701297D01*
X128648750Y-112696081D01*
X128628538Y-112688849D01*
X128609132Y-112679670D01*
X128590719Y-112668634D01*
X128573476Y-112655846D01*
X128557570Y-112641430D01*
X128543154Y-112625524D01*
X128530366Y-112608281D01*
X128519330Y-112589868D01*
X128510151Y-112570462D01*
X128502919Y-112550250D01*
X128497703Y-112529426D01*
X128494553Y-112508191D01*
X128493500Y-112486750D01*
X128493500Y-112049250D01*
X128494553Y-112027809D01*
X128497703Y-112006574D01*
X128502919Y-111985750D01*
X128510151Y-111965538D01*
X128519330Y-111946132D01*
X128530366Y-111927719D01*
X128543154Y-111910476D01*
X128557570Y-111894570D01*
X128573476Y-111880154D01*
X128590719Y-111867366D01*
X128609132Y-111856330D01*
X128628538Y-111847151D01*
X128648750Y-111839919D01*
X128669574Y-111834703D01*
X128690809Y-111831553D01*
X128712250Y-111830500D01*
X129224750Y-111830500D01*
X129246191Y-111831553D01*
G37*
G04 #@! TD.AperFunction*
D13*
X86920000Y-65590000D03*
D14*
X86920000Y-63050000D03*
X89460000Y-65590000D03*
X89460000Y-63050000D03*
X92000000Y-65590000D03*
X92000000Y-63050000D03*
X94540000Y-65590000D03*
X94540000Y-63050000D03*
X97080000Y-65590000D03*
X97080000Y-63050000D03*
X99620000Y-65590000D03*
X99620000Y-63050000D03*
X102160000Y-65590000D03*
X102160000Y-63050000D03*
X104700000Y-65590000D03*
X104700000Y-63050000D03*
X107240000Y-65590000D03*
X107240000Y-63050000D03*
X109780000Y-65590000D03*
X109780000Y-63050000D03*
X112320000Y-65590000D03*
X112320000Y-63050000D03*
X114860000Y-65590000D03*
X114860000Y-63050000D03*
X117400000Y-65590000D03*
X117400000Y-63050000D03*
X119940000Y-65590000D03*
X119940000Y-63050000D03*
X122480000Y-65590000D03*
X122480000Y-63050000D03*
X125020000Y-65590000D03*
X125020000Y-63050000D03*
X127560000Y-65590000D03*
X127560000Y-63050000D03*
X130100000Y-65590000D03*
X130100000Y-63050000D03*
X132640000Y-65590000D03*
X132640000Y-63050000D03*
X135180000Y-65590000D03*
X135180000Y-63050000D03*
D15*
X122800000Y-72005000D03*
X122800000Y-70735000D03*
X122800000Y-69465000D03*
X122800000Y-68195000D03*
X117400000Y-68195000D03*
X117400000Y-69465000D03*
X117400000Y-70735000D03*
X117400000Y-72005000D03*
D16*
X115362500Y-69700000D03*
X113437500Y-69700000D03*
D13*
X113700000Y-74100000D03*
D14*
X116240000Y-74100000D03*
D16*
X113437500Y-71400000D03*
X115362500Y-71400000D03*
X121062500Y-74000000D03*
X119137500Y-74000000D03*
X113437500Y-68100000D03*
X115362500Y-68100000D03*
D17*
X82040000Y-64310000D03*
X140040000Y-64330000D03*
X82040000Y-113320000D03*
X140030000Y-113310000D03*
D18*
X132969000Y-92583000D03*
D19*
X132969000Y-89813000D03*
X132969000Y-87043000D03*
X132969000Y-84273000D03*
X132969000Y-81503000D03*
X135809000Y-91198000D03*
X135809000Y-88428000D03*
X135809000Y-85658000D03*
X135809000Y-82888000D03*
D20*
X134389000Y-99543000D03*
X134389000Y-74543000D03*
X123513500Y-107801000D03*
X98513500Y-107801000D03*
D19*
X115168500Y-109221000D03*
X112398500Y-109221000D03*
X109628500Y-109221000D03*
X106858500Y-109221000D03*
X116553500Y-106381000D03*
X113783500Y-106381000D03*
X111013500Y-106381000D03*
X108243500Y-106381000D03*
D18*
X105473500Y-106381000D03*
X89027000Y-81470500D03*
D19*
X89027000Y-84240500D03*
X89027000Y-87010500D03*
X89027000Y-89780500D03*
X89027000Y-92550500D03*
X86187000Y-82855500D03*
X86187000Y-85625500D03*
X86187000Y-88395500D03*
X86187000Y-91165500D03*
D20*
X87607000Y-74510500D03*
X87607000Y-99510500D03*
D13*
X128524000Y-79375000D03*
D14*
X128524000Y-76835000D03*
X128524000Y-74295000D03*
X128524000Y-100076000D03*
X128524000Y-97536000D03*
D13*
X128524000Y-94996000D03*
X101155500Y-69215000D03*
D14*
X98615500Y-69215000D03*
X96075500Y-69215000D03*
D12*
X119702500Y-84914000D03*
X119067500Y-84914000D03*
X118432500Y-84914000D03*
X117797500Y-84914000D03*
X117162500Y-84914000D03*
X116527500Y-84914000D03*
X115892500Y-84914000D03*
X115257500Y-84914000D03*
X114622500Y-84914000D03*
X113987500Y-84914000D03*
X113352500Y-84914000D03*
X112717500Y-84914000D03*
X112082500Y-84914000D03*
X111447500Y-84914000D03*
X111447500Y-90114000D03*
X112082500Y-90114000D03*
X112717500Y-90114000D03*
X113352500Y-90114000D03*
X113987500Y-90114000D03*
X114622500Y-90114000D03*
X115257500Y-90114000D03*
X115892500Y-90114000D03*
X116527500Y-90114000D03*
X117162500Y-90114000D03*
X117797500Y-90114000D03*
X118432500Y-90114000D03*
X119067500Y-90114000D03*
X119702500Y-90114000D03*
D13*
X125984000Y-83439000D03*
D14*
X128524000Y-83439000D03*
X125984000Y-85979000D03*
X128524000Y-85979000D03*
X125984000Y-88519000D03*
X128524000Y-88519000D03*
X125984000Y-91059000D03*
X128524000Y-91059000D03*
G04 #@! TA.AperFunction,SMDPad,CuDef*
D11*
G36*
X135278691Y-105291053D02*
G01*
X135299926Y-105294203D01*
X135320750Y-105299419D01*
X135340962Y-105306651D01*
X135360368Y-105315830D01*
X135378781Y-105326866D01*
X135396024Y-105339654D01*
X135411930Y-105354070D01*
X135426346Y-105369976D01*
X135439134Y-105387219D01*
X135450170Y-105405632D01*
X135459349Y-105425038D01*
X135466581Y-105445250D01*
X135471797Y-105466074D01*
X135474947Y-105487309D01*
X135476000Y-105508750D01*
X135476000Y-105946250D01*
X135474947Y-105967691D01*
X135471797Y-105988926D01*
X135466581Y-106009750D01*
X135459349Y-106029962D01*
X135450170Y-106049368D01*
X135439134Y-106067781D01*
X135426346Y-106085024D01*
X135411930Y-106100930D01*
X135396024Y-106115346D01*
X135378781Y-106128134D01*
X135360368Y-106139170D01*
X135340962Y-106148349D01*
X135320750Y-106155581D01*
X135299926Y-106160797D01*
X135278691Y-106163947D01*
X135257250Y-106165000D01*
X134744750Y-106165000D01*
X134723309Y-106163947D01*
X134702074Y-106160797D01*
X134681250Y-106155581D01*
X134661038Y-106148349D01*
X134641632Y-106139170D01*
X134623219Y-106128134D01*
X134605976Y-106115346D01*
X134590070Y-106100930D01*
X134575654Y-106085024D01*
X134562866Y-106067781D01*
X134551830Y-106049368D01*
X134542651Y-106029962D01*
X134535419Y-106009750D01*
X134530203Y-105988926D01*
X134527053Y-105967691D01*
X134526000Y-105946250D01*
X134526000Y-105508750D01*
X134527053Y-105487309D01*
X134530203Y-105466074D01*
X134535419Y-105445250D01*
X134542651Y-105425038D01*
X134551830Y-105405632D01*
X134562866Y-105387219D01*
X134575654Y-105369976D01*
X134590070Y-105354070D01*
X134605976Y-105339654D01*
X134623219Y-105326866D01*
X134641632Y-105315830D01*
X134661038Y-105306651D01*
X134681250Y-105299419D01*
X134702074Y-105294203D01*
X134723309Y-105291053D01*
X134744750Y-105290000D01*
X135257250Y-105290000D01*
X135278691Y-105291053D01*
G37*
G04 #@! TD.AperFunction*
G04 #@! TA.AperFunction,SMDPad,CuDef*
G36*
X135278691Y-103716053D02*
G01*
X135299926Y-103719203D01*
X135320750Y-103724419D01*
X135340962Y-103731651D01*
X135360368Y-103740830D01*
X135378781Y-103751866D01*
X135396024Y-103764654D01*
X135411930Y-103779070D01*
X135426346Y-103794976D01*
X135439134Y-103812219D01*
X135450170Y-103830632D01*
X135459349Y-103850038D01*
X135466581Y-103870250D01*
X135471797Y-103891074D01*
X135474947Y-103912309D01*
X135476000Y-103933750D01*
X135476000Y-104371250D01*
X135474947Y-104392691D01*
X135471797Y-104413926D01*
X135466581Y-104434750D01*
X135459349Y-104454962D01*
X135450170Y-104474368D01*
X135439134Y-104492781D01*
X135426346Y-104510024D01*
X135411930Y-104525930D01*
X135396024Y-104540346D01*
X135378781Y-104553134D01*
X135360368Y-104564170D01*
X135340962Y-104573349D01*
X135320750Y-104580581D01*
X135299926Y-104585797D01*
X135278691Y-104588947D01*
X135257250Y-104590000D01*
X134744750Y-104590000D01*
X134723309Y-104588947D01*
X134702074Y-104585797D01*
X134681250Y-104580581D01*
X134661038Y-104573349D01*
X134641632Y-104564170D01*
X134623219Y-104553134D01*
X134605976Y-104540346D01*
X134590070Y-104525930D01*
X134575654Y-104510024D01*
X134562866Y-104492781D01*
X134551830Y-104474368D01*
X134542651Y-104454962D01*
X134535419Y-104434750D01*
X134530203Y-104413926D01*
X134527053Y-104392691D01*
X134526000Y-104371250D01*
X134526000Y-103933750D01*
X134527053Y-103912309D01*
X134530203Y-103891074D01*
X134535419Y-103870250D01*
X134542651Y-103850038D01*
X134551830Y-103830632D01*
X134562866Y-103812219D01*
X134575654Y-103794976D01*
X134590070Y-103779070D01*
X134605976Y-103764654D01*
X134623219Y-103751866D01*
X134641632Y-103740830D01*
X134661038Y-103731651D01*
X134681250Y-103724419D01*
X134702074Y-103719203D01*
X134723309Y-103716053D01*
X134744750Y-103715000D01*
X135257250Y-103715000D01*
X135278691Y-103716053D01*
G37*
G04 #@! TD.AperFunction*
G04 #@! TA.AperFunction,SMDPad,CuDef*
G36*
X131976691Y-103716053D02*
G01*
X131997926Y-103719203D01*
X132018750Y-103724419D01*
X132038962Y-103731651D01*
X132058368Y-103740830D01*
X132076781Y-103751866D01*
X132094024Y-103764654D01*
X132109930Y-103779070D01*
X132124346Y-103794976D01*
X132137134Y-103812219D01*
X132148170Y-103830632D01*
X132157349Y-103850038D01*
X132164581Y-103870250D01*
X132169797Y-103891074D01*
X132172947Y-103912309D01*
X132174000Y-103933750D01*
X132174000Y-104371250D01*
X132172947Y-104392691D01*
X132169797Y-104413926D01*
X132164581Y-104434750D01*
X132157349Y-104454962D01*
X132148170Y-104474368D01*
X132137134Y-104492781D01*
X132124346Y-104510024D01*
X132109930Y-104525930D01*
X132094024Y-104540346D01*
X132076781Y-104553134D01*
X132058368Y-104564170D01*
X132038962Y-104573349D01*
X132018750Y-104580581D01*
X131997926Y-104585797D01*
X131976691Y-104588947D01*
X131955250Y-104590000D01*
X131442750Y-104590000D01*
X131421309Y-104588947D01*
X131400074Y-104585797D01*
X131379250Y-104580581D01*
X131359038Y-104573349D01*
X131339632Y-104564170D01*
X131321219Y-104553134D01*
X131303976Y-104540346D01*
X131288070Y-104525930D01*
X131273654Y-104510024D01*
X131260866Y-104492781D01*
X131249830Y-104474368D01*
X131240651Y-104454962D01*
X131233419Y-104434750D01*
X131228203Y-104413926D01*
X131225053Y-104392691D01*
X131224000Y-104371250D01*
X131224000Y-103933750D01*
X131225053Y-103912309D01*
X131228203Y-103891074D01*
X131233419Y-103870250D01*
X131240651Y-103850038D01*
X131249830Y-103830632D01*
X131260866Y-103812219D01*
X131273654Y-103794976D01*
X131288070Y-103779070D01*
X131303976Y-103764654D01*
X131321219Y-103751866D01*
X131339632Y-103740830D01*
X131359038Y-103731651D01*
X131379250Y-103724419D01*
X131400074Y-103719203D01*
X131421309Y-103716053D01*
X131442750Y-103715000D01*
X131955250Y-103715000D01*
X131976691Y-103716053D01*
G37*
G04 #@! TD.AperFunction*
G04 #@! TA.AperFunction,SMDPad,CuDef*
G36*
X131976691Y-105291053D02*
G01*
X131997926Y-105294203D01*
X132018750Y-105299419D01*
X132038962Y-105306651D01*
X132058368Y-105315830D01*
X132076781Y-105326866D01*
X132094024Y-105339654D01*
X132109930Y-105354070D01*
X132124346Y-105369976D01*
X132137134Y-105387219D01*
X132148170Y-105405632D01*
X132157349Y-105425038D01*
X132164581Y-105445250D01*
X132169797Y-105466074D01*
X132172947Y-105487309D01*
X132174000Y-105508750D01*
X132174000Y-105946250D01*
X132172947Y-105967691D01*
X132169797Y-105988926D01*
X132164581Y-106009750D01*
X132157349Y-106029962D01*
X132148170Y-106049368D01*
X132137134Y-106067781D01*
X132124346Y-106085024D01*
X132109930Y-106100930D01*
X132094024Y-106115346D01*
X132076781Y-106128134D01*
X132058368Y-106139170D01*
X132038962Y-106148349D01*
X132018750Y-106155581D01*
X131997926Y-106160797D01*
X131976691Y-106163947D01*
X131955250Y-106165000D01*
X131442750Y-106165000D01*
X131421309Y-106163947D01*
X131400074Y-106160797D01*
X131379250Y-106155581D01*
X131359038Y-106148349D01*
X131339632Y-106139170D01*
X131321219Y-106128134D01*
X131303976Y-106115346D01*
X131288070Y-106100930D01*
X131273654Y-106085024D01*
X131260866Y-106067781D01*
X131249830Y-106049368D01*
X131240651Y-106029962D01*
X131233419Y-106009750D01*
X131228203Y-105988926D01*
X131225053Y-105967691D01*
X131224000Y-105946250D01*
X131224000Y-105508750D01*
X131225053Y-105487309D01*
X131228203Y-105466074D01*
X131233419Y-105445250D01*
X131240651Y-105425038D01*
X131249830Y-105405632D01*
X131260866Y-105387219D01*
X131273654Y-105369976D01*
X131288070Y-105354070D01*
X131303976Y-105339654D01*
X131321219Y-105326866D01*
X131339632Y-105315830D01*
X131359038Y-105306651D01*
X131379250Y-105299419D01*
X131400074Y-105294203D01*
X131421309Y-105291053D01*
X131442750Y-105290000D01*
X131955250Y-105290000D01*
X131976691Y-105291053D01*
G37*
G04 #@! TD.AperFunction*
G04 #@! TA.AperFunction,SMDPad,CuDef*
G36*
X138580691Y-105291053D02*
G01*
X138601926Y-105294203D01*
X138622750Y-105299419D01*
X138642962Y-105306651D01*
X138662368Y-105315830D01*
X138680781Y-105326866D01*
X138698024Y-105339654D01*
X138713930Y-105354070D01*
X138728346Y-105369976D01*
X138741134Y-105387219D01*
X138752170Y-105405632D01*
X138761349Y-105425038D01*
X138768581Y-105445250D01*
X138773797Y-105466074D01*
X138776947Y-105487309D01*
X138778000Y-105508750D01*
X138778000Y-105946250D01*
X138776947Y-105967691D01*
X138773797Y-105988926D01*
X138768581Y-106009750D01*
X138761349Y-106029962D01*
X138752170Y-106049368D01*
X138741134Y-106067781D01*
X138728346Y-106085024D01*
X138713930Y-106100930D01*
X138698024Y-106115346D01*
X138680781Y-106128134D01*
X138662368Y-106139170D01*
X138642962Y-106148349D01*
X138622750Y-106155581D01*
X138601926Y-106160797D01*
X138580691Y-106163947D01*
X138559250Y-106165000D01*
X138046750Y-106165000D01*
X138025309Y-106163947D01*
X138004074Y-106160797D01*
X137983250Y-106155581D01*
X137963038Y-106148349D01*
X137943632Y-106139170D01*
X137925219Y-106128134D01*
X137907976Y-106115346D01*
X137892070Y-106100930D01*
X137877654Y-106085024D01*
X137864866Y-106067781D01*
X137853830Y-106049368D01*
X137844651Y-106029962D01*
X137837419Y-106009750D01*
X137832203Y-105988926D01*
X137829053Y-105967691D01*
X137828000Y-105946250D01*
X137828000Y-105508750D01*
X137829053Y-105487309D01*
X137832203Y-105466074D01*
X137837419Y-105445250D01*
X137844651Y-105425038D01*
X137853830Y-105405632D01*
X137864866Y-105387219D01*
X137877654Y-105369976D01*
X137892070Y-105354070D01*
X137907976Y-105339654D01*
X137925219Y-105326866D01*
X137943632Y-105315830D01*
X137963038Y-105306651D01*
X137983250Y-105299419D01*
X138004074Y-105294203D01*
X138025309Y-105291053D01*
X138046750Y-105290000D01*
X138559250Y-105290000D01*
X138580691Y-105291053D01*
G37*
G04 #@! TD.AperFunction*
G04 #@! TA.AperFunction,SMDPad,CuDef*
G36*
X138580691Y-103716053D02*
G01*
X138601926Y-103719203D01*
X138622750Y-103724419D01*
X138642962Y-103731651D01*
X138662368Y-103740830D01*
X138680781Y-103751866D01*
X138698024Y-103764654D01*
X138713930Y-103779070D01*
X138728346Y-103794976D01*
X138741134Y-103812219D01*
X138752170Y-103830632D01*
X138761349Y-103850038D01*
X138768581Y-103870250D01*
X138773797Y-103891074D01*
X138776947Y-103912309D01*
X138778000Y-103933750D01*
X138778000Y-104371250D01*
X138776947Y-104392691D01*
X138773797Y-104413926D01*
X138768581Y-104434750D01*
X138761349Y-104454962D01*
X138752170Y-104474368D01*
X138741134Y-104492781D01*
X138728346Y-104510024D01*
X138713930Y-104525930D01*
X138698024Y-104540346D01*
X138680781Y-104553134D01*
X138662368Y-104564170D01*
X138642962Y-104573349D01*
X138622750Y-104580581D01*
X138601926Y-104585797D01*
X138580691Y-104588947D01*
X138559250Y-104590000D01*
X138046750Y-104590000D01*
X138025309Y-104588947D01*
X138004074Y-104585797D01*
X137983250Y-104580581D01*
X137963038Y-104573349D01*
X137943632Y-104564170D01*
X137925219Y-104553134D01*
X137907976Y-104540346D01*
X137892070Y-104525930D01*
X137877654Y-104510024D01*
X137864866Y-104492781D01*
X137853830Y-104474368D01*
X137844651Y-104454962D01*
X137837419Y-104434750D01*
X137832203Y-104413926D01*
X137829053Y-104392691D01*
X137828000Y-104371250D01*
X137828000Y-103933750D01*
X137829053Y-103912309D01*
X137832203Y-103891074D01*
X137837419Y-103870250D01*
X137844651Y-103850038D01*
X137853830Y-103830632D01*
X137864866Y-103812219D01*
X137877654Y-103794976D01*
X137892070Y-103779070D01*
X137907976Y-103764654D01*
X137925219Y-103751866D01*
X137943632Y-103740830D01*
X137963038Y-103731651D01*
X137983250Y-103724419D01*
X138004074Y-103719203D01*
X138025309Y-103716053D01*
X138046750Y-103715000D01*
X138559250Y-103715000D01*
X138580691Y-103716053D01*
G37*
G04 #@! TD.AperFunction*
G04 #@! TA.AperFunction,SMDPad,CuDef*
G36*
X141882691Y-103716053D02*
G01*
X141903926Y-103719203D01*
X141924750Y-103724419D01*
X141944962Y-103731651D01*
X141964368Y-103740830D01*
X141982781Y-103751866D01*
X142000024Y-103764654D01*
X142015930Y-103779070D01*
X142030346Y-103794976D01*
X142043134Y-103812219D01*
X142054170Y-103830632D01*
X142063349Y-103850038D01*
X142070581Y-103870250D01*
X142075797Y-103891074D01*
X142078947Y-103912309D01*
X142080000Y-103933750D01*
X142080000Y-104371250D01*
X142078947Y-104392691D01*
X142075797Y-104413926D01*
X142070581Y-104434750D01*
X142063349Y-104454962D01*
X142054170Y-104474368D01*
X142043134Y-104492781D01*
X142030346Y-104510024D01*
X142015930Y-104525930D01*
X142000024Y-104540346D01*
X141982781Y-104553134D01*
X141964368Y-104564170D01*
X141944962Y-104573349D01*
X141924750Y-104580581D01*
X141903926Y-104585797D01*
X141882691Y-104588947D01*
X141861250Y-104590000D01*
X141348750Y-104590000D01*
X141327309Y-104588947D01*
X141306074Y-104585797D01*
X141285250Y-104580581D01*
X141265038Y-104573349D01*
X141245632Y-104564170D01*
X141227219Y-104553134D01*
X141209976Y-104540346D01*
X141194070Y-104525930D01*
X141179654Y-104510024D01*
X141166866Y-104492781D01*
X141155830Y-104474368D01*
X141146651Y-104454962D01*
X141139419Y-104434750D01*
X141134203Y-104413926D01*
X141131053Y-104392691D01*
X141130000Y-104371250D01*
X141130000Y-103933750D01*
X141131053Y-103912309D01*
X141134203Y-103891074D01*
X141139419Y-103870250D01*
X141146651Y-103850038D01*
X141155830Y-103830632D01*
X141166866Y-103812219D01*
X141179654Y-103794976D01*
X141194070Y-103779070D01*
X141209976Y-103764654D01*
X141227219Y-103751866D01*
X141245632Y-103740830D01*
X141265038Y-103731651D01*
X141285250Y-103724419D01*
X141306074Y-103719203D01*
X141327309Y-103716053D01*
X141348750Y-103715000D01*
X141861250Y-103715000D01*
X141882691Y-103716053D01*
G37*
G04 #@! TD.AperFunction*
G04 #@! TA.AperFunction,SMDPad,CuDef*
G36*
X141882691Y-105291053D02*
G01*
X141903926Y-105294203D01*
X141924750Y-105299419D01*
X141944962Y-105306651D01*
X141964368Y-105315830D01*
X141982781Y-105326866D01*
X142000024Y-105339654D01*
X142015930Y-105354070D01*
X142030346Y-105369976D01*
X142043134Y-105387219D01*
X142054170Y-105405632D01*
X142063349Y-105425038D01*
X142070581Y-105445250D01*
X142075797Y-105466074D01*
X142078947Y-105487309D01*
X142080000Y-105508750D01*
X142080000Y-105946250D01*
X142078947Y-105967691D01*
X142075797Y-105988926D01*
X142070581Y-106009750D01*
X142063349Y-106029962D01*
X142054170Y-106049368D01*
X142043134Y-106067781D01*
X142030346Y-106085024D01*
X142015930Y-106100930D01*
X142000024Y-106115346D01*
X141982781Y-106128134D01*
X141964368Y-106139170D01*
X141944962Y-106148349D01*
X141924750Y-106155581D01*
X141903926Y-106160797D01*
X141882691Y-106163947D01*
X141861250Y-106165000D01*
X141348750Y-106165000D01*
X141327309Y-106163947D01*
X141306074Y-106160797D01*
X141285250Y-106155581D01*
X141265038Y-106148349D01*
X141245632Y-106139170D01*
X141227219Y-106128134D01*
X141209976Y-106115346D01*
X141194070Y-106100930D01*
X141179654Y-106085024D01*
X141166866Y-106067781D01*
X141155830Y-106049368D01*
X141146651Y-106029962D01*
X141139419Y-106009750D01*
X141134203Y-105988926D01*
X141131053Y-105967691D01*
X141130000Y-105946250D01*
X141130000Y-105508750D01*
X141131053Y-105487309D01*
X141134203Y-105466074D01*
X141139419Y-105445250D01*
X141146651Y-105425038D01*
X141155830Y-105405632D01*
X141166866Y-105387219D01*
X141179654Y-105369976D01*
X141194070Y-105354070D01*
X141209976Y-105339654D01*
X141227219Y-105326866D01*
X141245632Y-105315830D01*
X141265038Y-105306651D01*
X141285250Y-105299419D01*
X141306074Y-105294203D01*
X141327309Y-105291053D01*
X141348750Y-105290000D01*
X141861250Y-105290000D01*
X141882691Y-105291053D01*
G37*
G04 #@! TD.AperFunction*
G04 #@! TA.AperFunction,SMDPad,CuDef*
G36*
X131405191Y-111831553D02*
G01*
X131426426Y-111834703D01*
X131447250Y-111839919D01*
X131467462Y-111847151D01*
X131486868Y-111856330D01*
X131505281Y-111867366D01*
X131522524Y-111880154D01*
X131538430Y-111894570D01*
X131552846Y-111910476D01*
X131565634Y-111927719D01*
X131576670Y-111946132D01*
X131585849Y-111965538D01*
X131593081Y-111985750D01*
X131598297Y-112006574D01*
X131601447Y-112027809D01*
X131602500Y-112049250D01*
X131602500Y-112486750D01*
X131601447Y-112508191D01*
X131598297Y-112529426D01*
X131593081Y-112550250D01*
X131585849Y-112570462D01*
X131576670Y-112589868D01*
X131565634Y-112608281D01*
X131552846Y-112625524D01*
X131538430Y-112641430D01*
X131522524Y-112655846D01*
X131505281Y-112668634D01*
X131486868Y-112679670D01*
X131467462Y-112688849D01*
X131447250Y-112696081D01*
X131426426Y-112701297D01*
X131405191Y-112704447D01*
X131383750Y-112705500D01*
X130871250Y-112705500D01*
X130849809Y-112704447D01*
X130828574Y-112701297D01*
X130807750Y-112696081D01*
X130787538Y-112688849D01*
X130768132Y-112679670D01*
X130749719Y-112668634D01*
X130732476Y-112655846D01*
X130716570Y-112641430D01*
X130702154Y-112625524D01*
X130689366Y-112608281D01*
X130678330Y-112589868D01*
X130669151Y-112570462D01*
X130661919Y-112550250D01*
X130656703Y-112529426D01*
X130653553Y-112508191D01*
X130652500Y-112486750D01*
X130652500Y-112049250D01*
X130653553Y-112027809D01*
X130656703Y-112006574D01*
X130661919Y-111985750D01*
X130669151Y-111965538D01*
X130678330Y-111946132D01*
X130689366Y-111927719D01*
X130702154Y-111910476D01*
X130716570Y-111894570D01*
X130732476Y-111880154D01*
X130749719Y-111867366D01*
X130768132Y-111856330D01*
X130787538Y-111847151D01*
X130807750Y-111839919D01*
X130828574Y-111834703D01*
X130849809Y-111831553D01*
X130871250Y-111830500D01*
X131383750Y-111830500D01*
X131405191Y-111831553D01*
G37*
G04 #@! TD.AperFunction*
G04 #@! TA.AperFunction,SMDPad,CuDef*
G36*
X131405191Y-113406553D02*
G01*
X131426426Y-113409703D01*
X131447250Y-113414919D01*
X131467462Y-113422151D01*
X131486868Y-113431330D01*
X131505281Y-113442366D01*
X131522524Y-113455154D01*
X131538430Y-113469570D01*
X131552846Y-113485476D01*
X131565634Y-113502719D01*
X131576670Y-113521132D01*
X131585849Y-113540538D01*
X131593081Y-113560750D01*
X131598297Y-113581574D01*
X131601447Y-113602809D01*
X131602500Y-113624250D01*
X131602500Y-114061750D01*
X131601447Y-114083191D01*
X131598297Y-114104426D01*
X131593081Y-114125250D01*
X131585849Y-114145462D01*
X131576670Y-114164868D01*
X131565634Y-114183281D01*
X131552846Y-114200524D01*
X131538430Y-114216430D01*
X131522524Y-114230846D01*
X131505281Y-114243634D01*
X131486868Y-114254670D01*
X131467462Y-114263849D01*
X131447250Y-114271081D01*
X131426426Y-114276297D01*
X131405191Y-114279447D01*
X131383750Y-114280500D01*
X130871250Y-114280500D01*
X130849809Y-114279447D01*
X130828574Y-114276297D01*
X130807750Y-114271081D01*
X130787538Y-114263849D01*
X130768132Y-114254670D01*
X130749719Y-114243634D01*
X130732476Y-114230846D01*
X130716570Y-114216430D01*
X130702154Y-114200524D01*
X130689366Y-114183281D01*
X130678330Y-114164868D01*
X130669151Y-114145462D01*
X130661919Y-114125250D01*
X130656703Y-114104426D01*
X130653553Y-114083191D01*
X130652500Y-114061750D01*
X130652500Y-113624250D01*
X130653553Y-113602809D01*
X130656703Y-113581574D01*
X130661919Y-113560750D01*
X130669151Y-113540538D01*
X130678330Y-113521132D01*
X130689366Y-113502719D01*
X130702154Y-113485476D01*
X130716570Y-113469570D01*
X130732476Y-113455154D01*
X130749719Y-113442366D01*
X130768132Y-113431330D01*
X130787538Y-113422151D01*
X130807750Y-113414919D01*
X130828574Y-113409703D01*
X130849809Y-113406553D01*
X130871250Y-113405500D01*
X131383750Y-113405500D01*
X131405191Y-113406553D01*
G37*
G04 #@! TD.AperFunction*
G04 #@! TA.AperFunction,SMDPad,CuDef*
G36*
X133564191Y-111831553D02*
G01*
X133585426Y-111834703D01*
X133606250Y-111839919D01*
X133626462Y-111847151D01*
X133645868Y-111856330D01*
X133664281Y-111867366D01*
X133681524Y-111880154D01*
X133697430Y-111894570D01*
X133711846Y-111910476D01*
X133724634Y-111927719D01*
X133735670Y-111946132D01*
X133744849Y-111965538D01*
X133752081Y-111985750D01*
X133757297Y-112006574D01*
X133760447Y-112027809D01*
X133761500Y-112049250D01*
X133761500Y-112486750D01*
X133760447Y-112508191D01*
X133757297Y-112529426D01*
X133752081Y-112550250D01*
X133744849Y-112570462D01*
X133735670Y-112589868D01*
X133724634Y-112608281D01*
X133711846Y-112625524D01*
X133697430Y-112641430D01*
X133681524Y-112655846D01*
X133664281Y-112668634D01*
X133645868Y-112679670D01*
X133626462Y-112688849D01*
X133606250Y-112696081D01*
X133585426Y-112701297D01*
X133564191Y-112704447D01*
X133542750Y-112705500D01*
X133030250Y-112705500D01*
X133008809Y-112704447D01*
X132987574Y-112701297D01*
X132966750Y-112696081D01*
X132946538Y-112688849D01*
X132927132Y-112679670D01*
X132908719Y-112668634D01*
X132891476Y-112655846D01*
X132875570Y-112641430D01*
X132861154Y-112625524D01*
X132848366Y-112608281D01*
X132837330Y-112589868D01*
X132828151Y-112570462D01*
X132820919Y-112550250D01*
X132815703Y-112529426D01*
X132812553Y-112508191D01*
X132811500Y-112486750D01*
X132811500Y-112049250D01*
X132812553Y-112027809D01*
X132815703Y-112006574D01*
X132820919Y-111985750D01*
X132828151Y-111965538D01*
X132837330Y-111946132D01*
X132848366Y-111927719D01*
X132861154Y-111910476D01*
X132875570Y-111894570D01*
X132891476Y-111880154D01*
X132908719Y-111867366D01*
X132927132Y-111856330D01*
X132946538Y-111847151D01*
X132966750Y-111839919D01*
X132987574Y-111834703D01*
X133008809Y-111831553D01*
X133030250Y-111830500D01*
X133542750Y-111830500D01*
X133564191Y-111831553D01*
G37*
G04 #@! TD.AperFunction*
G04 #@! TA.AperFunction,SMDPad,CuDef*
G36*
X133564191Y-113406553D02*
G01*
X133585426Y-113409703D01*
X133606250Y-113414919D01*
X133626462Y-113422151D01*
X133645868Y-113431330D01*
X133664281Y-113442366D01*
X133681524Y-113455154D01*
X133697430Y-113469570D01*
X133711846Y-113485476D01*
X133724634Y-113502719D01*
X133735670Y-113521132D01*
X133744849Y-113540538D01*
X133752081Y-113560750D01*
X133757297Y-113581574D01*
X133760447Y-113602809D01*
X133761500Y-113624250D01*
X133761500Y-114061750D01*
X133760447Y-114083191D01*
X133757297Y-114104426D01*
X133752081Y-114125250D01*
X133744849Y-114145462D01*
X133735670Y-114164868D01*
X133724634Y-114183281D01*
X133711846Y-114200524D01*
X133697430Y-114216430D01*
X133681524Y-114230846D01*
X133664281Y-114243634D01*
X133645868Y-114254670D01*
X133626462Y-114263849D01*
X133606250Y-114271081D01*
X133585426Y-114276297D01*
X133564191Y-114279447D01*
X133542750Y-114280500D01*
X133030250Y-114280500D01*
X133008809Y-114279447D01*
X132987574Y-114276297D01*
X132966750Y-114271081D01*
X132946538Y-114263849D01*
X132927132Y-114254670D01*
X132908719Y-114243634D01*
X132891476Y-114230846D01*
X132875570Y-114216430D01*
X132861154Y-114200524D01*
X132848366Y-114183281D01*
X132837330Y-114164868D01*
X132828151Y-114145462D01*
X132820919Y-114125250D01*
X132815703Y-114104426D01*
X132812553Y-114083191D01*
X132811500Y-114061750D01*
X132811500Y-113624250D01*
X132812553Y-113602809D01*
X132815703Y-113581574D01*
X132820919Y-113560750D01*
X132828151Y-113540538D01*
X132837330Y-113521132D01*
X132848366Y-113502719D01*
X132861154Y-113485476D01*
X132875570Y-113469570D01*
X132891476Y-113455154D01*
X132908719Y-113442366D01*
X132927132Y-113431330D01*
X132946538Y-113422151D01*
X132966750Y-113414919D01*
X132987574Y-113409703D01*
X133008809Y-113406553D01*
X133030250Y-113405500D01*
X133542750Y-113405500D01*
X133564191Y-113406553D01*
G37*
G04 #@! TD.AperFunction*
G04 #@! TA.AperFunction,SMDPad,CuDef*
G36*
X135850191Y-113406553D02*
G01*
X135871426Y-113409703D01*
X135892250Y-113414919D01*
X135912462Y-113422151D01*
X135931868Y-113431330D01*
X135950281Y-113442366D01*
X135967524Y-113455154D01*
X135983430Y-113469570D01*
X135997846Y-113485476D01*
X136010634Y-113502719D01*
X136021670Y-113521132D01*
X136030849Y-113540538D01*
X136038081Y-113560750D01*
X136043297Y-113581574D01*
X136046447Y-113602809D01*
X136047500Y-113624250D01*
X136047500Y-114061750D01*
X136046447Y-114083191D01*
X136043297Y-114104426D01*
X136038081Y-114125250D01*
X136030849Y-114145462D01*
X136021670Y-114164868D01*
X136010634Y-114183281D01*
X135997846Y-114200524D01*
X135983430Y-114216430D01*
X135967524Y-114230846D01*
X135950281Y-114243634D01*
X135931868Y-114254670D01*
X135912462Y-114263849D01*
X135892250Y-114271081D01*
X135871426Y-114276297D01*
X135850191Y-114279447D01*
X135828750Y-114280500D01*
X135316250Y-114280500D01*
X135294809Y-114279447D01*
X135273574Y-114276297D01*
X135252750Y-114271081D01*
X135232538Y-114263849D01*
X135213132Y-114254670D01*
X135194719Y-114243634D01*
X135177476Y-114230846D01*
X135161570Y-114216430D01*
X135147154Y-114200524D01*
X135134366Y-114183281D01*
X135123330Y-114164868D01*
X135114151Y-114145462D01*
X135106919Y-114125250D01*
X135101703Y-114104426D01*
X135098553Y-114083191D01*
X135097500Y-114061750D01*
X135097500Y-113624250D01*
X135098553Y-113602809D01*
X135101703Y-113581574D01*
X135106919Y-113560750D01*
X135114151Y-113540538D01*
X135123330Y-113521132D01*
X135134366Y-113502719D01*
X135147154Y-113485476D01*
X135161570Y-113469570D01*
X135177476Y-113455154D01*
X135194719Y-113442366D01*
X135213132Y-113431330D01*
X135232538Y-113422151D01*
X135252750Y-113414919D01*
X135273574Y-113409703D01*
X135294809Y-113406553D01*
X135316250Y-113405500D01*
X135828750Y-113405500D01*
X135850191Y-113406553D01*
G37*
G04 #@! TD.AperFunction*
G04 #@! TA.AperFunction,SMDPad,CuDef*
G36*
X135850191Y-111831553D02*
G01*
X135871426Y-111834703D01*
X135892250Y-111839919D01*
X135912462Y-111847151D01*
X135931868Y-111856330D01*
X135950281Y-111867366D01*
X135967524Y-111880154D01*
X135983430Y-111894570D01*
X135997846Y-111910476D01*
X136010634Y-111927719D01*
X136021670Y-111946132D01*
X136030849Y-111965538D01*
X136038081Y-111985750D01*
X136043297Y-112006574D01*
X136046447Y-112027809D01*
X136047500Y-112049250D01*
X136047500Y-112486750D01*
X136046447Y-112508191D01*
X136043297Y-112529426D01*
X136038081Y-112550250D01*
X136030849Y-112570462D01*
X136021670Y-112589868D01*
X136010634Y-112608281D01*
X135997846Y-112625524D01*
X135983430Y-112641430D01*
X135967524Y-112655846D01*
X135950281Y-112668634D01*
X135931868Y-112679670D01*
X135912462Y-112688849D01*
X135892250Y-112696081D01*
X135871426Y-112701297D01*
X135850191Y-112704447D01*
X135828750Y-112705500D01*
X135316250Y-112705500D01*
X135294809Y-112704447D01*
X135273574Y-112701297D01*
X135252750Y-112696081D01*
X135232538Y-112688849D01*
X135213132Y-112679670D01*
X135194719Y-112668634D01*
X135177476Y-112655846D01*
X135161570Y-112641430D01*
X135147154Y-112625524D01*
X135134366Y-112608281D01*
X135123330Y-112589868D01*
X135114151Y-112570462D01*
X135106919Y-112550250D01*
X135101703Y-112529426D01*
X135098553Y-112508191D01*
X135097500Y-112486750D01*
X135097500Y-112049250D01*
X135098553Y-112027809D01*
X135101703Y-112006574D01*
X135106919Y-111985750D01*
X135114151Y-111965538D01*
X135123330Y-111946132D01*
X135134366Y-111927719D01*
X135147154Y-111910476D01*
X135161570Y-111894570D01*
X135177476Y-111880154D01*
X135194719Y-111867366D01*
X135213132Y-111856330D01*
X135232538Y-111847151D01*
X135252750Y-111839919D01*
X135273574Y-111834703D01*
X135294809Y-111831553D01*
X135316250Y-111830500D01*
X135828750Y-111830500D01*
X135850191Y-111831553D01*
G37*
G04 #@! TD.AperFunction*
G04 #@! TA.AperFunction,SMDPad,CuDef*
G36*
X83970691Y-105354553D02*
G01*
X83991926Y-105357703D01*
X84012750Y-105362919D01*
X84032962Y-105370151D01*
X84052368Y-105379330D01*
X84070781Y-105390366D01*
X84088024Y-105403154D01*
X84103930Y-105417570D01*
X84118346Y-105433476D01*
X84131134Y-105450719D01*
X84142170Y-105469132D01*
X84151349Y-105488538D01*
X84158581Y-105508750D01*
X84163797Y-105529574D01*
X84166947Y-105550809D01*
X84168000Y-105572250D01*
X84168000Y-106009750D01*
X84166947Y-106031191D01*
X84163797Y-106052426D01*
X84158581Y-106073250D01*
X84151349Y-106093462D01*
X84142170Y-106112868D01*
X84131134Y-106131281D01*
X84118346Y-106148524D01*
X84103930Y-106164430D01*
X84088024Y-106178846D01*
X84070781Y-106191634D01*
X84052368Y-106202670D01*
X84032962Y-106211849D01*
X84012750Y-106219081D01*
X83991926Y-106224297D01*
X83970691Y-106227447D01*
X83949250Y-106228500D01*
X83436750Y-106228500D01*
X83415309Y-106227447D01*
X83394074Y-106224297D01*
X83373250Y-106219081D01*
X83353038Y-106211849D01*
X83333632Y-106202670D01*
X83315219Y-106191634D01*
X83297976Y-106178846D01*
X83282070Y-106164430D01*
X83267654Y-106148524D01*
X83254866Y-106131281D01*
X83243830Y-106112868D01*
X83234651Y-106093462D01*
X83227419Y-106073250D01*
X83222203Y-106052426D01*
X83219053Y-106031191D01*
X83218000Y-106009750D01*
X83218000Y-105572250D01*
X83219053Y-105550809D01*
X83222203Y-105529574D01*
X83227419Y-105508750D01*
X83234651Y-105488538D01*
X83243830Y-105469132D01*
X83254866Y-105450719D01*
X83267654Y-105433476D01*
X83282070Y-105417570D01*
X83297976Y-105403154D01*
X83315219Y-105390366D01*
X83333632Y-105379330D01*
X83353038Y-105370151D01*
X83373250Y-105362919D01*
X83394074Y-105357703D01*
X83415309Y-105354553D01*
X83436750Y-105353500D01*
X83949250Y-105353500D01*
X83970691Y-105354553D01*
G37*
G04 #@! TD.AperFunction*
G04 #@! TA.AperFunction,SMDPad,CuDef*
G36*
X83970691Y-103779553D02*
G01*
X83991926Y-103782703D01*
X84012750Y-103787919D01*
X84032962Y-103795151D01*
X84052368Y-103804330D01*
X84070781Y-103815366D01*
X84088024Y-103828154D01*
X84103930Y-103842570D01*
X84118346Y-103858476D01*
X84131134Y-103875719D01*
X84142170Y-103894132D01*
X84151349Y-103913538D01*
X84158581Y-103933750D01*
X84163797Y-103954574D01*
X84166947Y-103975809D01*
X84168000Y-103997250D01*
X84168000Y-104434750D01*
X84166947Y-104456191D01*
X84163797Y-104477426D01*
X84158581Y-104498250D01*
X84151349Y-104518462D01*
X84142170Y-104537868D01*
X84131134Y-104556281D01*
X84118346Y-104573524D01*
X84103930Y-104589430D01*
X84088024Y-104603846D01*
X84070781Y-104616634D01*
X84052368Y-104627670D01*
X84032962Y-104636849D01*
X84012750Y-104644081D01*
X83991926Y-104649297D01*
X83970691Y-104652447D01*
X83949250Y-104653500D01*
X83436750Y-104653500D01*
X83415309Y-104652447D01*
X83394074Y-104649297D01*
X83373250Y-104644081D01*
X83353038Y-104636849D01*
X83333632Y-104627670D01*
X83315219Y-104616634D01*
X83297976Y-104603846D01*
X83282070Y-104589430D01*
X83267654Y-104573524D01*
X83254866Y-104556281D01*
X83243830Y-104537868D01*
X83234651Y-104518462D01*
X83227419Y-104498250D01*
X83222203Y-104477426D01*
X83219053Y-104456191D01*
X83218000Y-104434750D01*
X83218000Y-103997250D01*
X83219053Y-103975809D01*
X83222203Y-103954574D01*
X83227419Y-103933750D01*
X83234651Y-103913538D01*
X83243830Y-103894132D01*
X83254866Y-103875719D01*
X83267654Y-103858476D01*
X83282070Y-103842570D01*
X83297976Y-103828154D01*
X83315219Y-103815366D01*
X83333632Y-103804330D01*
X83353038Y-103795151D01*
X83373250Y-103787919D01*
X83394074Y-103782703D01*
X83415309Y-103779553D01*
X83436750Y-103778500D01*
X83949250Y-103778500D01*
X83970691Y-103779553D01*
G37*
G04 #@! TD.AperFunction*
G04 #@! TA.AperFunction,SMDPad,CuDef*
G36*
X80668691Y-103779553D02*
G01*
X80689926Y-103782703D01*
X80710750Y-103787919D01*
X80730962Y-103795151D01*
X80750368Y-103804330D01*
X80768781Y-103815366D01*
X80786024Y-103828154D01*
X80801930Y-103842570D01*
X80816346Y-103858476D01*
X80829134Y-103875719D01*
X80840170Y-103894132D01*
X80849349Y-103913538D01*
X80856581Y-103933750D01*
X80861797Y-103954574D01*
X80864947Y-103975809D01*
X80866000Y-103997250D01*
X80866000Y-104434750D01*
X80864947Y-104456191D01*
X80861797Y-104477426D01*
X80856581Y-104498250D01*
X80849349Y-104518462D01*
X80840170Y-104537868D01*
X80829134Y-104556281D01*
X80816346Y-104573524D01*
X80801930Y-104589430D01*
X80786024Y-104603846D01*
X80768781Y-104616634D01*
X80750368Y-104627670D01*
X80730962Y-104636849D01*
X80710750Y-104644081D01*
X80689926Y-104649297D01*
X80668691Y-104652447D01*
X80647250Y-104653500D01*
X80134750Y-104653500D01*
X80113309Y-104652447D01*
X80092074Y-104649297D01*
X80071250Y-104644081D01*
X80051038Y-104636849D01*
X80031632Y-104627670D01*
X80013219Y-104616634D01*
X79995976Y-104603846D01*
X79980070Y-104589430D01*
X79965654Y-104573524D01*
X79952866Y-104556281D01*
X79941830Y-104537868D01*
X79932651Y-104518462D01*
X79925419Y-104498250D01*
X79920203Y-104477426D01*
X79917053Y-104456191D01*
X79916000Y-104434750D01*
X79916000Y-103997250D01*
X79917053Y-103975809D01*
X79920203Y-103954574D01*
X79925419Y-103933750D01*
X79932651Y-103913538D01*
X79941830Y-103894132D01*
X79952866Y-103875719D01*
X79965654Y-103858476D01*
X79980070Y-103842570D01*
X79995976Y-103828154D01*
X80013219Y-103815366D01*
X80031632Y-103804330D01*
X80051038Y-103795151D01*
X80071250Y-103787919D01*
X80092074Y-103782703D01*
X80113309Y-103779553D01*
X80134750Y-103778500D01*
X80647250Y-103778500D01*
X80668691Y-103779553D01*
G37*
G04 #@! TD.AperFunction*
G04 #@! TA.AperFunction,SMDPad,CuDef*
G36*
X80668691Y-105354553D02*
G01*
X80689926Y-105357703D01*
X80710750Y-105362919D01*
X80730962Y-105370151D01*
X80750368Y-105379330D01*
X80768781Y-105390366D01*
X80786024Y-105403154D01*
X80801930Y-105417570D01*
X80816346Y-105433476D01*
X80829134Y-105450719D01*
X80840170Y-105469132D01*
X80849349Y-105488538D01*
X80856581Y-105508750D01*
X80861797Y-105529574D01*
X80864947Y-105550809D01*
X80866000Y-105572250D01*
X80866000Y-106009750D01*
X80864947Y-106031191D01*
X80861797Y-106052426D01*
X80856581Y-106073250D01*
X80849349Y-106093462D01*
X80840170Y-106112868D01*
X80829134Y-106131281D01*
X80816346Y-106148524D01*
X80801930Y-106164430D01*
X80786024Y-106178846D01*
X80768781Y-106191634D01*
X80750368Y-106202670D01*
X80730962Y-106211849D01*
X80710750Y-106219081D01*
X80689926Y-106224297D01*
X80668691Y-106227447D01*
X80647250Y-106228500D01*
X80134750Y-106228500D01*
X80113309Y-106227447D01*
X80092074Y-106224297D01*
X80071250Y-106219081D01*
X80051038Y-106211849D01*
X80031632Y-106202670D01*
X80013219Y-106191634D01*
X79995976Y-106178846D01*
X79980070Y-106164430D01*
X79965654Y-106148524D01*
X79952866Y-106131281D01*
X79941830Y-106112868D01*
X79932651Y-106093462D01*
X79925419Y-106073250D01*
X79920203Y-106052426D01*
X79917053Y-106031191D01*
X79916000Y-106009750D01*
X79916000Y-105572250D01*
X79917053Y-105550809D01*
X79920203Y-105529574D01*
X79925419Y-105508750D01*
X79932651Y-105488538D01*
X79941830Y-105469132D01*
X79952866Y-105450719D01*
X79965654Y-105433476D01*
X79980070Y-105417570D01*
X79995976Y-105403154D01*
X80013219Y-105390366D01*
X80031632Y-105379330D01*
X80051038Y-105370151D01*
X80071250Y-105362919D01*
X80092074Y-105357703D01*
X80113309Y-105354553D01*
X80134750Y-105353500D01*
X80647250Y-105353500D01*
X80668691Y-105354553D01*
G37*
G04 #@! TD.AperFunction*
G04 #@! TA.AperFunction,SMDPad,CuDef*
G36*
X87272691Y-105380053D02*
G01*
X87293926Y-105383203D01*
X87314750Y-105388419D01*
X87334962Y-105395651D01*
X87354368Y-105404830D01*
X87372781Y-105415866D01*
X87390024Y-105428654D01*
X87405930Y-105443070D01*
X87420346Y-105458976D01*
X87433134Y-105476219D01*
X87444170Y-105494632D01*
X87453349Y-105514038D01*
X87460581Y-105534250D01*
X87465797Y-105555074D01*
X87468947Y-105576309D01*
X87470000Y-105597750D01*
X87470000Y-106035250D01*
X87468947Y-106056691D01*
X87465797Y-106077926D01*
X87460581Y-106098750D01*
X87453349Y-106118962D01*
X87444170Y-106138368D01*
X87433134Y-106156781D01*
X87420346Y-106174024D01*
X87405930Y-106189930D01*
X87390024Y-106204346D01*
X87372781Y-106217134D01*
X87354368Y-106228170D01*
X87334962Y-106237349D01*
X87314750Y-106244581D01*
X87293926Y-106249797D01*
X87272691Y-106252947D01*
X87251250Y-106254000D01*
X86738750Y-106254000D01*
X86717309Y-106252947D01*
X86696074Y-106249797D01*
X86675250Y-106244581D01*
X86655038Y-106237349D01*
X86635632Y-106228170D01*
X86617219Y-106217134D01*
X86599976Y-106204346D01*
X86584070Y-106189930D01*
X86569654Y-106174024D01*
X86556866Y-106156781D01*
X86545830Y-106138368D01*
X86536651Y-106118962D01*
X86529419Y-106098750D01*
X86524203Y-106077926D01*
X86521053Y-106056691D01*
X86520000Y-106035250D01*
X86520000Y-105597750D01*
X86521053Y-105576309D01*
X86524203Y-105555074D01*
X86529419Y-105534250D01*
X86536651Y-105514038D01*
X86545830Y-105494632D01*
X86556866Y-105476219D01*
X86569654Y-105458976D01*
X86584070Y-105443070D01*
X86599976Y-105428654D01*
X86617219Y-105415866D01*
X86635632Y-105404830D01*
X86655038Y-105395651D01*
X86675250Y-105388419D01*
X86696074Y-105383203D01*
X86717309Y-105380053D01*
X86738750Y-105379000D01*
X87251250Y-105379000D01*
X87272691Y-105380053D01*
G37*
G04 #@! TD.AperFunction*
G04 #@! TA.AperFunction,SMDPad,CuDef*
G36*
X87272691Y-103805053D02*
G01*
X87293926Y-103808203D01*
X87314750Y-103813419D01*
X87334962Y-103820651D01*
X87354368Y-103829830D01*
X87372781Y-103840866D01*
X87390024Y-103853654D01*
X87405930Y-103868070D01*
X87420346Y-103883976D01*
X87433134Y-103901219D01*
X87444170Y-103919632D01*
X87453349Y-103939038D01*
X87460581Y-103959250D01*
X87465797Y-103980074D01*
X87468947Y-104001309D01*
X87470000Y-104022750D01*
X87470000Y-104460250D01*
X87468947Y-104481691D01*
X87465797Y-104502926D01*
X87460581Y-104523750D01*
X87453349Y-104543962D01*
X87444170Y-104563368D01*
X87433134Y-104581781D01*
X87420346Y-104599024D01*
X87405930Y-104614930D01*
X87390024Y-104629346D01*
X87372781Y-104642134D01*
X87354368Y-104653170D01*
X87334962Y-104662349D01*
X87314750Y-104669581D01*
X87293926Y-104674797D01*
X87272691Y-104677947D01*
X87251250Y-104679000D01*
X86738750Y-104679000D01*
X86717309Y-104677947D01*
X86696074Y-104674797D01*
X86675250Y-104669581D01*
X86655038Y-104662349D01*
X86635632Y-104653170D01*
X86617219Y-104642134D01*
X86599976Y-104629346D01*
X86584070Y-104614930D01*
X86569654Y-104599024D01*
X86556866Y-104581781D01*
X86545830Y-104563368D01*
X86536651Y-104543962D01*
X86529419Y-104523750D01*
X86524203Y-104502926D01*
X86521053Y-104481691D01*
X86520000Y-104460250D01*
X86520000Y-104022750D01*
X86521053Y-104001309D01*
X86524203Y-103980074D01*
X86529419Y-103959250D01*
X86536651Y-103939038D01*
X86545830Y-103919632D01*
X86556866Y-103901219D01*
X86569654Y-103883976D01*
X86584070Y-103868070D01*
X86599976Y-103853654D01*
X86617219Y-103840866D01*
X86635632Y-103829830D01*
X86655038Y-103820651D01*
X86675250Y-103813419D01*
X86696074Y-103808203D01*
X86717309Y-103805053D01*
X86738750Y-103804000D01*
X87251250Y-103804000D01*
X87272691Y-103805053D01*
G37*
G04 #@! TD.AperFunction*
G04 #@! TA.AperFunction,SMDPad,CuDef*
G36*
X90574691Y-103779553D02*
G01*
X90595926Y-103782703D01*
X90616750Y-103787919D01*
X90636962Y-103795151D01*
X90656368Y-103804330D01*
X90674781Y-103815366D01*
X90692024Y-103828154D01*
X90707930Y-103842570D01*
X90722346Y-103858476D01*
X90735134Y-103875719D01*
X90746170Y-103894132D01*
X90755349Y-103913538D01*
X90762581Y-103933750D01*
X90767797Y-103954574D01*
X90770947Y-103975809D01*
X90772000Y-103997250D01*
X90772000Y-104434750D01*
X90770947Y-104456191D01*
X90767797Y-104477426D01*
X90762581Y-104498250D01*
X90755349Y-104518462D01*
X90746170Y-104537868D01*
X90735134Y-104556281D01*
X90722346Y-104573524D01*
X90707930Y-104589430D01*
X90692024Y-104603846D01*
X90674781Y-104616634D01*
X90656368Y-104627670D01*
X90636962Y-104636849D01*
X90616750Y-104644081D01*
X90595926Y-104649297D01*
X90574691Y-104652447D01*
X90553250Y-104653500D01*
X90040750Y-104653500D01*
X90019309Y-104652447D01*
X89998074Y-104649297D01*
X89977250Y-104644081D01*
X89957038Y-104636849D01*
X89937632Y-104627670D01*
X89919219Y-104616634D01*
X89901976Y-104603846D01*
X89886070Y-104589430D01*
X89871654Y-104573524D01*
X89858866Y-104556281D01*
X89847830Y-104537868D01*
X89838651Y-104518462D01*
X89831419Y-104498250D01*
X89826203Y-104477426D01*
X89823053Y-104456191D01*
X89822000Y-104434750D01*
X89822000Y-103997250D01*
X89823053Y-103975809D01*
X89826203Y-103954574D01*
X89831419Y-103933750D01*
X89838651Y-103913538D01*
X89847830Y-103894132D01*
X89858866Y-103875719D01*
X89871654Y-103858476D01*
X89886070Y-103842570D01*
X89901976Y-103828154D01*
X89919219Y-103815366D01*
X89937632Y-103804330D01*
X89957038Y-103795151D01*
X89977250Y-103787919D01*
X89998074Y-103782703D01*
X90019309Y-103779553D01*
X90040750Y-103778500D01*
X90553250Y-103778500D01*
X90574691Y-103779553D01*
G37*
G04 #@! TD.AperFunction*
G04 #@! TA.AperFunction,SMDPad,CuDef*
G36*
X90574691Y-105354553D02*
G01*
X90595926Y-105357703D01*
X90616750Y-105362919D01*
X90636962Y-105370151D01*
X90656368Y-105379330D01*
X90674781Y-105390366D01*
X90692024Y-105403154D01*
X90707930Y-105417570D01*
X90722346Y-105433476D01*
X90735134Y-105450719D01*
X90746170Y-105469132D01*
X90755349Y-105488538D01*
X90762581Y-105508750D01*
X90767797Y-105529574D01*
X90770947Y-105550809D01*
X90772000Y-105572250D01*
X90772000Y-106009750D01*
X90770947Y-106031191D01*
X90767797Y-106052426D01*
X90762581Y-106073250D01*
X90755349Y-106093462D01*
X90746170Y-106112868D01*
X90735134Y-106131281D01*
X90722346Y-106148524D01*
X90707930Y-106164430D01*
X90692024Y-106178846D01*
X90674781Y-106191634D01*
X90656368Y-106202670D01*
X90636962Y-106211849D01*
X90616750Y-106219081D01*
X90595926Y-106224297D01*
X90574691Y-106227447D01*
X90553250Y-106228500D01*
X90040750Y-106228500D01*
X90019309Y-106227447D01*
X89998074Y-106224297D01*
X89977250Y-106219081D01*
X89957038Y-106211849D01*
X89937632Y-106202670D01*
X89919219Y-106191634D01*
X89901976Y-106178846D01*
X89886070Y-106164430D01*
X89871654Y-106148524D01*
X89858866Y-106131281D01*
X89847830Y-106112868D01*
X89838651Y-106093462D01*
X89831419Y-106073250D01*
X89826203Y-106052426D01*
X89823053Y-106031191D01*
X89822000Y-106009750D01*
X89822000Y-105572250D01*
X89823053Y-105550809D01*
X89826203Y-105529574D01*
X89831419Y-105508750D01*
X89838651Y-105488538D01*
X89847830Y-105469132D01*
X89858866Y-105450719D01*
X89871654Y-105433476D01*
X89886070Y-105417570D01*
X89901976Y-105403154D01*
X89919219Y-105390366D01*
X89937632Y-105379330D01*
X89957038Y-105370151D01*
X89977250Y-105362919D01*
X89998074Y-105357703D01*
X90019309Y-105354553D01*
X90040750Y-105353500D01*
X90553250Y-105353500D01*
X90574691Y-105354553D01*
G37*
G04 #@! TD.AperFunction*
D13*
X115062000Y-99314000D03*
D14*
X115062000Y-101854000D03*
X112522000Y-99314000D03*
X112522000Y-101854000D03*
X109982000Y-99314000D03*
X109982000Y-101854000D03*
X107442000Y-99314000D03*
X107442000Y-101854000D03*
D13*
X119126000Y-101854000D03*
D14*
X119126000Y-99314000D03*
X119126000Y-96774000D03*
X103378000Y-96774000D03*
X103378000Y-99314000D03*
D13*
X103378000Y-101854000D03*
D14*
X93853000Y-83312000D03*
X96393000Y-83312000D03*
X93853000Y-85852000D03*
X96393000Y-85852000D03*
X93853000Y-88392000D03*
X96393000Y-88392000D03*
X93853000Y-90932000D03*
D13*
X96393000Y-90932000D03*
X93853000Y-94996000D03*
D14*
X93853000Y-97536000D03*
X93853000Y-100076000D03*
X93853000Y-74041000D03*
X93853000Y-76581000D03*
D13*
X93853000Y-79121000D03*
D21*
X138938000Y-81915000D03*
X141478000Y-81915000D03*
X138938000Y-84455000D03*
X141478000Y-84455000D03*
X138938000Y-86995000D03*
X141478000Y-86995000D03*
X138938000Y-89535000D03*
X141478000Y-89535000D03*
X138938000Y-92075000D03*
D22*
X141478000Y-92075000D03*
X105918000Y-114681000D03*
D21*
X105918000Y-112141000D03*
X108458000Y-114681000D03*
X108458000Y-112141000D03*
X110998000Y-114681000D03*
X110998000Y-112141000D03*
X113538000Y-114681000D03*
X113538000Y-112141000D03*
X116078000Y-114681000D03*
X116078000Y-112141000D03*
X83185000Y-92075000D03*
X80645000Y-92075000D03*
X83185000Y-89535000D03*
X80645000Y-89535000D03*
X83185000Y-86995000D03*
X80645000Y-86995000D03*
X83185000Y-84455000D03*
X80645000Y-84455000D03*
X83185000Y-81915000D03*
D22*
X80645000Y-81915000D03*
G04 #@! TA.AperFunction,SMDPad,CuDef*
D11*
G36*
X109533958Y-86022210D02*
G01*
X109548276Y-86024334D01*
X109562317Y-86027851D01*
X109575946Y-86032728D01*
X109589031Y-86038917D01*
X109601447Y-86046358D01*
X109613073Y-86054981D01*
X109623798Y-86064702D01*
X109633519Y-86075427D01*
X109642142Y-86087053D01*
X109649583Y-86099469D01*
X109655772Y-86112554D01*
X109660649Y-86126183D01*
X109664166Y-86140224D01*
X109666290Y-86154542D01*
X109667000Y-86169000D01*
X109667000Y-86464000D01*
X109666290Y-86478458D01*
X109664166Y-86492776D01*
X109660649Y-86506817D01*
X109655772Y-86520446D01*
X109649583Y-86533531D01*
X109642142Y-86545947D01*
X109633519Y-86557573D01*
X109623798Y-86568298D01*
X109613073Y-86578019D01*
X109601447Y-86586642D01*
X109589031Y-86594083D01*
X109575946Y-86600272D01*
X109562317Y-86605149D01*
X109548276Y-86608666D01*
X109533958Y-86610790D01*
X109519500Y-86611500D01*
X109174500Y-86611500D01*
X109160042Y-86610790D01*
X109145724Y-86608666D01*
X109131683Y-86605149D01*
X109118054Y-86600272D01*
X109104969Y-86594083D01*
X109092553Y-86586642D01*
X109080927Y-86578019D01*
X109070202Y-86568298D01*
X109060481Y-86557573D01*
X109051858Y-86545947D01*
X109044417Y-86533531D01*
X109038228Y-86520446D01*
X109033351Y-86506817D01*
X109029834Y-86492776D01*
X109027710Y-86478458D01*
X109027000Y-86464000D01*
X109027000Y-86169000D01*
X109027710Y-86154542D01*
X109029834Y-86140224D01*
X109033351Y-86126183D01*
X109038228Y-86112554D01*
X109044417Y-86099469D01*
X109051858Y-86087053D01*
X109060481Y-86075427D01*
X109070202Y-86064702D01*
X109080927Y-86054981D01*
X109092553Y-86046358D01*
X109104969Y-86038917D01*
X109118054Y-86032728D01*
X109131683Y-86027851D01*
X109145724Y-86024334D01*
X109160042Y-86022210D01*
X109174500Y-86021500D01*
X109519500Y-86021500D01*
X109533958Y-86022210D01*
G37*
G04 #@! TD.AperFunction*
G04 #@! TA.AperFunction,SMDPad,CuDef*
G36*
X109533958Y-86992210D02*
G01*
X109548276Y-86994334D01*
X109562317Y-86997851D01*
X109575946Y-87002728D01*
X109589031Y-87008917D01*
X109601447Y-87016358D01*
X109613073Y-87024981D01*
X109623798Y-87034702D01*
X109633519Y-87045427D01*
X109642142Y-87057053D01*
X109649583Y-87069469D01*
X109655772Y-87082554D01*
X109660649Y-87096183D01*
X109664166Y-87110224D01*
X109666290Y-87124542D01*
X109667000Y-87139000D01*
X109667000Y-87434000D01*
X109666290Y-87448458D01*
X109664166Y-87462776D01*
X109660649Y-87476817D01*
X109655772Y-87490446D01*
X109649583Y-87503531D01*
X109642142Y-87515947D01*
X109633519Y-87527573D01*
X109623798Y-87538298D01*
X109613073Y-87548019D01*
X109601447Y-87556642D01*
X109589031Y-87564083D01*
X109575946Y-87570272D01*
X109562317Y-87575149D01*
X109548276Y-87578666D01*
X109533958Y-87580790D01*
X109519500Y-87581500D01*
X109174500Y-87581500D01*
X109160042Y-87580790D01*
X109145724Y-87578666D01*
X109131683Y-87575149D01*
X109118054Y-87570272D01*
X109104969Y-87564083D01*
X109092553Y-87556642D01*
X109080927Y-87548019D01*
X109070202Y-87538298D01*
X109060481Y-87527573D01*
X109051858Y-87515947D01*
X109044417Y-87503531D01*
X109038228Y-87490446D01*
X109033351Y-87476817D01*
X109029834Y-87462776D01*
X109027710Y-87448458D01*
X109027000Y-87434000D01*
X109027000Y-87139000D01*
X109027710Y-87124542D01*
X109029834Y-87110224D01*
X109033351Y-87096183D01*
X109038228Y-87082554D01*
X109044417Y-87069469D01*
X109051858Y-87057053D01*
X109060481Y-87045427D01*
X109070202Y-87034702D01*
X109080927Y-87024981D01*
X109092553Y-87016358D01*
X109104969Y-87008917D01*
X109118054Y-87002728D01*
X109131683Y-86997851D01*
X109145724Y-86994334D01*
X109160042Y-86992210D01*
X109174500Y-86991500D01*
X109519500Y-86991500D01*
X109533958Y-86992210D01*
G37*
G04 #@! TD.AperFunction*
G04 #@! TA.AperFunction,SMDPad,CuDef*
G36*
X111459958Y-91755710D02*
G01*
X111474276Y-91757834D01*
X111488317Y-91761351D01*
X111501946Y-91766228D01*
X111515031Y-91772417D01*
X111527447Y-91779858D01*
X111539073Y-91788481D01*
X111549798Y-91798202D01*
X111559519Y-91808927D01*
X111568142Y-91820553D01*
X111575583Y-91832969D01*
X111581772Y-91846054D01*
X111586649Y-91859683D01*
X111590166Y-91873724D01*
X111592290Y-91888042D01*
X111593000Y-91902500D01*
X111593000Y-92247500D01*
X111592290Y-92261958D01*
X111590166Y-92276276D01*
X111586649Y-92290317D01*
X111581772Y-92303946D01*
X111575583Y-92317031D01*
X111568142Y-92329447D01*
X111559519Y-92341073D01*
X111549798Y-92351798D01*
X111539073Y-92361519D01*
X111527447Y-92370142D01*
X111515031Y-92377583D01*
X111501946Y-92383772D01*
X111488317Y-92388649D01*
X111474276Y-92392166D01*
X111459958Y-92394290D01*
X111445500Y-92395000D01*
X111150500Y-92395000D01*
X111136042Y-92394290D01*
X111121724Y-92392166D01*
X111107683Y-92388649D01*
X111094054Y-92383772D01*
X111080969Y-92377583D01*
X111068553Y-92370142D01*
X111056927Y-92361519D01*
X111046202Y-92351798D01*
X111036481Y-92341073D01*
X111027858Y-92329447D01*
X111020417Y-92317031D01*
X111014228Y-92303946D01*
X111009351Y-92290317D01*
X111005834Y-92276276D01*
X111003710Y-92261958D01*
X111003000Y-92247500D01*
X111003000Y-91902500D01*
X111003710Y-91888042D01*
X111005834Y-91873724D01*
X111009351Y-91859683D01*
X111014228Y-91846054D01*
X111020417Y-91832969D01*
X111027858Y-91820553D01*
X111036481Y-91808927D01*
X111046202Y-91798202D01*
X111056927Y-91788481D01*
X111068553Y-91779858D01*
X111080969Y-91772417D01*
X111094054Y-91766228D01*
X111107683Y-91761351D01*
X111121724Y-91757834D01*
X111136042Y-91755710D01*
X111150500Y-91755000D01*
X111445500Y-91755000D01*
X111459958Y-91755710D01*
G37*
G04 #@! TD.AperFunction*
G04 #@! TA.AperFunction,SMDPad,CuDef*
G36*
X112429958Y-91755710D02*
G01*
X112444276Y-91757834D01*
X112458317Y-91761351D01*
X112471946Y-91766228D01*
X112485031Y-91772417D01*
X112497447Y-91779858D01*
X112509073Y-91788481D01*
X112519798Y-91798202D01*
X112529519Y-91808927D01*
X112538142Y-91820553D01*
X112545583Y-91832969D01*
X112551772Y-91846054D01*
X112556649Y-91859683D01*
X112560166Y-91873724D01*
X112562290Y-91888042D01*
X112563000Y-91902500D01*
X112563000Y-92247500D01*
X112562290Y-92261958D01*
X112560166Y-92276276D01*
X112556649Y-92290317D01*
X112551772Y-92303946D01*
X112545583Y-92317031D01*
X112538142Y-92329447D01*
X112529519Y-92341073D01*
X112519798Y-92351798D01*
X112509073Y-92361519D01*
X112497447Y-92370142D01*
X112485031Y-92377583D01*
X112471946Y-92383772D01*
X112458317Y-92388649D01*
X112444276Y-92392166D01*
X112429958Y-92394290D01*
X112415500Y-92395000D01*
X112120500Y-92395000D01*
X112106042Y-92394290D01*
X112091724Y-92392166D01*
X112077683Y-92388649D01*
X112064054Y-92383772D01*
X112050969Y-92377583D01*
X112038553Y-92370142D01*
X112026927Y-92361519D01*
X112016202Y-92351798D01*
X112006481Y-92341073D01*
X111997858Y-92329447D01*
X111990417Y-92317031D01*
X111984228Y-92303946D01*
X111979351Y-92290317D01*
X111975834Y-92276276D01*
X111973710Y-92261958D01*
X111973000Y-92247500D01*
X111973000Y-91902500D01*
X111973710Y-91888042D01*
X111975834Y-91873724D01*
X111979351Y-91859683D01*
X111984228Y-91846054D01*
X111990417Y-91832969D01*
X111997858Y-91820553D01*
X112006481Y-91808927D01*
X112016202Y-91798202D01*
X112026927Y-91788481D01*
X112038553Y-91779858D01*
X112050969Y-91772417D01*
X112064054Y-91766228D01*
X112077683Y-91761351D01*
X112091724Y-91757834D01*
X112106042Y-91755710D01*
X112120500Y-91755000D01*
X112415500Y-91755000D01*
X112429958Y-91755710D01*
G37*
G04 #@! TD.AperFunction*
G04 #@! TA.AperFunction,SMDPad,CuDef*
G36*
X112039458Y-82694710D02*
G01*
X112053776Y-82696834D01*
X112067817Y-82700351D01*
X112081446Y-82705228D01*
X112094531Y-82711417D01*
X112106947Y-82718858D01*
X112118573Y-82727481D01*
X112129298Y-82737202D01*
X112139019Y-82747927D01*
X112147642Y-82759553D01*
X112155083Y-82771969D01*
X112161272Y-82785054D01*
X112166149Y-82798683D01*
X112169666Y-82812724D01*
X112171790Y-82827042D01*
X112172500Y-82841500D01*
X112172500Y-83186500D01*
X112171790Y-83200958D01*
X112169666Y-83215276D01*
X112166149Y-83229317D01*
X112161272Y-83242946D01*
X112155083Y-83256031D01*
X112147642Y-83268447D01*
X112139019Y-83280073D01*
X112129298Y-83290798D01*
X112118573Y-83300519D01*
X112106947Y-83309142D01*
X112094531Y-83316583D01*
X112081446Y-83322772D01*
X112067817Y-83327649D01*
X112053776Y-83331166D01*
X112039458Y-83333290D01*
X112025000Y-83334000D01*
X111730000Y-83334000D01*
X111715542Y-83333290D01*
X111701224Y-83331166D01*
X111687183Y-83327649D01*
X111673554Y-83322772D01*
X111660469Y-83316583D01*
X111648053Y-83309142D01*
X111636427Y-83300519D01*
X111625702Y-83290798D01*
X111615981Y-83280073D01*
X111607358Y-83268447D01*
X111599917Y-83256031D01*
X111593728Y-83242946D01*
X111588851Y-83229317D01*
X111585334Y-83215276D01*
X111583210Y-83200958D01*
X111582500Y-83186500D01*
X111582500Y-82841500D01*
X111583210Y-82827042D01*
X111585334Y-82812724D01*
X111588851Y-82798683D01*
X111593728Y-82785054D01*
X111599917Y-82771969D01*
X111607358Y-82759553D01*
X111615981Y-82747927D01*
X111625702Y-82737202D01*
X111636427Y-82727481D01*
X111648053Y-82718858D01*
X111660469Y-82711417D01*
X111673554Y-82705228D01*
X111687183Y-82700351D01*
X111701224Y-82696834D01*
X111715542Y-82694710D01*
X111730000Y-82694000D01*
X112025000Y-82694000D01*
X112039458Y-82694710D01*
G37*
G04 #@! TD.AperFunction*
G04 #@! TA.AperFunction,SMDPad,CuDef*
G36*
X113009458Y-82694710D02*
G01*
X113023776Y-82696834D01*
X113037817Y-82700351D01*
X113051446Y-82705228D01*
X113064531Y-82711417D01*
X113076947Y-82718858D01*
X113088573Y-82727481D01*
X113099298Y-82737202D01*
X113109019Y-82747927D01*
X113117642Y-82759553D01*
X113125083Y-82771969D01*
X113131272Y-82785054D01*
X113136149Y-82798683D01*
X113139666Y-82812724D01*
X113141790Y-82827042D01*
X113142500Y-82841500D01*
X113142500Y-83186500D01*
X113141790Y-83200958D01*
X113139666Y-83215276D01*
X113136149Y-83229317D01*
X113131272Y-83242946D01*
X113125083Y-83256031D01*
X113117642Y-83268447D01*
X113109019Y-83280073D01*
X113099298Y-83290798D01*
X113088573Y-83300519D01*
X113076947Y-83309142D01*
X113064531Y-83316583D01*
X113051446Y-83322772D01*
X113037817Y-83327649D01*
X113023776Y-83331166D01*
X113009458Y-83333290D01*
X112995000Y-83334000D01*
X112700000Y-83334000D01*
X112685542Y-83333290D01*
X112671224Y-83331166D01*
X112657183Y-83327649D01*
X112643554Y-83322772D01*
X112630469Y-83316583D01*
X112618053Y-83309142D01*
X112606427Y-83300519D01*
X112595702Y-83290798D01*
X112585981Y-83280073D01*
X112577358Y-83268447D01*
X112569917Y-83256031D01*
X112563728Y-83242946D01*
X112558851Y-83229317D01*
X112555334Y-83215276D01*
X112553210Y-83200958D01*
X112552500Y-83186500D01*
X112552500Y-82841500D01*
X112553210Y-82827042D01*
X112555334Y-82812724D01*
X112558851Y-82798683D01*
X112563728Y-82785054D01*
X112569917Y-82771969D01*
X112577358Y-82759553D01*
X112585981Y-82747927D01*
X112595702Y-82737202D01*
X112606427Y-82727481D01*
X112618053Y-82718858D01*
X112630469Y-82711417D01*
X112643554Y-82705228D01*
X112657183Y-82700351D01*
X112671224Y-82696834D01*
X112685542Y-82694710D01*
X112700000Y-82694000D01*
X112995000Y-82694000D01*
X113009458Y-82694710D01*
G37*
G04 #@! TD.AperFunction*
G04 #@! TA.AperFunction,SMDPad,CuDef*
G36*
X115223958Y-91755710D02*
G01*
X115238276Y-91757834D01*
X115252317Y-91761351D01*
X115265946Y-91766228D01*
X115279031Y-91772417D01*
X115291447Y-91779858D01*
X115303073Y-91788481D01*
X115313798Y-91798202D01*
X115323519Y-91808927D01*
X115332142Y-91820553D01*
X115339583Y-91832969D01*
X115345772Y-91846054D01*
X115350649Y-91859683D01*
X115354166Y-91873724D01*
X115356290Y-91888042D01*
X115357000Y-91902500D01*
X115357000Y-92247500D01*
X115356290Y-92261958D01*
X115354166Y-92276276D01*
X115350649Y-92290317D01*
X115345772Y-92303946D01*
X115339583Y-92317031D01*
X115332142Y-92329447D01*
X115323519Y-92341073D01*
X115313798Y-92351798D01*
X115303073Y-92361519D01*
X115291447Y-92370142D01*
X115279031Y-92377583D01*
X115265946Y-92383772D01*
X115252317Y-92388649D01*
X115238276Y-92392166D01*
X115223958Y-92394290D01*
X115209500Y-92395000D01*
X114914500Y-92395000D01*
X114900042Y-92394290D01*
X114885724Y-92392166D01*
X114871683Y-92388649D01*
X114858054Y-92383772D01*
X114844969Y-92377583D01*
X114832553Y-92370142D01*
X114820927Y-92361519D01*
X114810202Y-92351798D01*
X114800481Y-92341073D01*
X114791858Y-92329447D01*
X114784417Y-92317031D01*
X114778228Y-92303946D01*
X114773351Y-92290317D01*
X114769834Y-92276276D01*
X114767710Y-92261958D01*
X114767000Y-92247500D01*
X114767000Y-91902500D01*
X114767710Y-91888042D01*
X114769834Y-91873724D01*
X114773351Y-91859683D01*
X114778228Y-91846054D01*
X114784417Y-91832969D01*
X114791858Y-91820553D01*
X114800481Y-91808927D01*
X114810202Y-91798202D01*
X114820927Y-91788481D01*
X114832553Y-91779858D01*
X114844969Y-91772417D01*
X114858054Y-91766228D01*
X114871683Y-91761351D01*
X114885724Y-91757834D01*
X114900042Y-91755710D01*
X114914500Y-91755000D01*
X115209500Y-91755000D01*
X115223958Y-91755710D01*
G37*
G04 #@! TD.AperFunction*
G04 #@! TA.AperFunction,SMDPad,CuDef*
G36*
X114253958Y-91755710D02*
G01*
X114268276Y-91757834D01*
X114282317Y-91761351D01*
X114295946Y-91766228D01*
X114309031Y-91772417D01*
X114321447Y-91779858D01*
X114333073Y-91788481D01*
X114343798Y-91798202D01*
X114353519Y-91808927D01*
X114362142Y-91820553D01*
X114369583Y-91832969D01*
X114375772Y-91846054D01*
X114380649Y-91859683D01*
X114384166Y-91873724D01*
X114386290Y-91888042D01*
X114387000Y-91902500D01*
X114387000Y-92247500D01*
X114386290Y-92261958D01*
X114384166Y-92276276D01*
X114380649Y-92290317D01*
X114375772Y-92303946D01*
X114369583Y-92317031D01*
X114362142Y-92329447D01*
X114353519Y-92341073D01*
X114343798Y-92351798D01*
X114333073Y-92361519D01*
X114321447Y-92370142D01*
X114309031Y-92377583D01*
X114295946Y-92383772D01*
X114282317Y-92388649D01*
X114268276Y-92392166D01*
X114253958Y-92394290D01*
X114239500Y-92395000D01*
X113944500Y-92395000D01*
X113930042Y-92394290D01*
X113915724Y-92392166D01*
X113901683Y-92388649D01*
X113888054Y-92383772D01*
X113874969Y-92377583D01*
X113862553Y-92370142D01*
X113850927Y-92361519D01*
X113840202Y-92351798D01*
X113830481Y-92341073D01*
X113821858Y-92329447D01*
X113814417Y-92317031D01*
X113808228Y-92303946D01*
X113803351Y-92290317D01*
X113799834Y-92276276D01*
X113797710Y-92261958D01*
X113797000Y-92247500D01*
X113797000Y-91902500D01*
X113797710Y-91888042D01*
X113799834Y-91873724D01*
X113803351Y-91859683D01*
X113808228Y-91846054D01*
X113814417Y-91832969D01*
X113821858Y-91820553D01*
X113830481Y-91808927D01*
X113840202Y-91798202D01*
X113850927Y-91788481D01*
X113862553Y-91779858D01*
X113874969Y-91772417D01*
X113888054Y-91766228D01*
X113901683Y-91761351D01*
X113915724Y-91757834D01*
X113930042Y-91755710D01*
X113944500Y-91755000D01*
X114239500Y-91755000D01*
X114253958Y-91755710D01*
G37*
G04 #@! TD.AperFunction*
G04 #@! TA.AperFunction,SMDPad,CuDef*
G36*
X108355458Y-81341710D02*
G01*
X108369776Y-81343834D01*
X108383817Y-81347351D01*
X108397446Y-81352228D01*
X108410531Y-81358417D01*
X108422947Y-81365858D01*
X108434573Y-81374481D01*
X108445298Y-81384202D01*
X108455019Y-81394927D01*
X108463642Y-81406553D01*
X108471083Y-81418969D01*
X108477272Y-81432054D01*
X108482149Y-81445683D01*
X108485666Y-81459724D01*
X108487790Y-81474042D01*
X108488500Y-81488500D01*
X108488500Y-81833500D01*
X108487790Y-81847958D01*
X108485666Y-81862276D01*
X108482149Y-81876317D01*
X108477272Y-81889946D01*
X108471083Y-81903031D01*
X108463642Y-81915447D01*
X108455019Y-81927073D01*
X108445298Y-81937798D01*
X108434573Y-81947519D01*
X108422947Y-81956142D01*
X108410531Y-81963583D01*
X108397446Y-81969772D01*
X108383817Y-81974649D01*
X108369776Y-81978166D01*
X108355458Y-81980290D01*
X108341000Y-81981000D01*
X108046000Y-81981000D01*
X108031542Y-81980290D01*
X108017224Y-81978166D01*
X108003183Y-81974649D01*
X107989554Y-81969772D01*
X107976469Y-81963583D01*
X107964053Y-81956142D01*
X107952427Y-81947519D01*
X107941702Y-81937798D01*
X107931981Y-81927073D01*
X107923358Y-81915447D01*
X107915917Y-81903031D01*
X107909728Y-81889946D01*
X107904851Y-81876317D01*
X107901334Y-81862276D01*
X107899210Y-81847958D01*
X107898500Y-81833500D01*
X107898500Y-81488500D01*
X107899210Y-81474042D01*
X107901334Y-81459724D01*
X107904851Y-81445683D01*
X107909728Y-81432054D01*
X107915917Y-81418969D01*
X107923358Y-81406553D01*
X107931981Y-81394927D01*
X107941702Y-81384202D01*
X107952427Y-81374481D01*
X107964053Y-81365858D01*
X107976469Y-81358417D01*
X107989554Y-81352228D01*
X108003183Y-81347351D01*
X108017224Y-81343834D01*
X108031542Y-81341710D01*
X108046000Y-81341000D01*
X108341000Y-81341000D01*
X108355458Y-81341710D01*
G37*
G04 #@! TD.AperFunction*
G04 #@! TA.AperFunction,SMDPad,CuDef*
G36*
X107385458Y-81341710D02*
G01*
X107399776Y-81343834D01*
X107413817Y-81347351D01*
X107427446Y-81352228D01*
X107440531Y-81358417D01*
X107452947Y-81365858D01*
X107464573Y-81374481D01*
X107475298Y-81384202D01*
X107485019Y-81394927D01*
X107493642Y-81406553D01*
X107501083Y-81418969D01*
X107507272Y-81432054D01*
X107512149Y-81445683D01*
X107515666Y-81459724D01*
X107517790Y-81474042D01*
X107518500Y-81488500D01*
X107518500Y-81833500D01*
X107517790Y-81847958D01*
X107515666Y-81862276D01*
X107512149Y-81876317D01*
X107507272Y-81889946D01*
X107501083Y-81903031D01*
X107493642Y-81915447D01*
X107485019Y-81927073D01*
X107475298Y-81937798D01*
X107464573Y-81947519D01*
X107452947Y-81956142D01*
X107440531Y-81963583D01*
X107427446Y-81969772D01*
X107413817Y-81974649D01*
X107399776Y-81978166D01*
X107385458Y-81980290D01*
X107371000Y-81981000D01*
X107076000Y-81981000D01*
X107061542Y-81980290D01*
X107047224Y-81978166D01*
X107033183Y-81974649D01*
X107019554Y-81969772D01*
X107006469Y-81963583D01*
X106994053Y-81956142D01*
X106982427Y-81947519D01*
X106971702Y-81937798D01*
X106961981Y-81927073D01*
X106953358Y-81915447D01*
X106945917Y-81903031D01*
X106939728Y-81889946D01*
X106934851Y-81876317D01*
X106931334Y-81862276D01*
X106929210Y-81847958D01*
X106928500Y-81833500D01*
X106928500Y-81488500D01*
X106929210Y-81474042D01*
X106931334Y-81459724D01*
X106934851Y-81445683D01*
X106939728Y-81432054D01*
X106945917Y-81418969D01*
X106953358Y-81406553D01*
X106961981Y-81394927D01*
X106971702Y-81384202D01*
X106982427Y-81374481D01*
X106994053Y-81365858D01*
X107006469Y-81358417D01*
X107019554Y-81352228D01*
X107033183Y-81347351D01*
X107047224Y-81343834D01*
X107061542Y-81341710D01*
X107076000Y-81341000D01*
X107371000Y-81341000D01*
X107385458Y-81341710D01*
G37*
G04 #@! TD.AperFunction*
G04 #@! TA.AperFunction,SMDPad,CuDef*
G36*
X111057958Y-77064710D02*
G01*
X111072276Y-77066834D01*
X111086317Y-77070351D01*
X111099946Y-77075228D01*
X111113031Y-77081417D01*
X111125447Y-77088858D01*
X111137073Y-77097481D01*
X111147798Y-77107202D01*
X111157519Y-77117927D01*
X111166142Y-77129553D01*
X111173583Y-77141969D01*
X111179772Y-77155054D01*
X111184649Y-77168683D01*
X111188166Y-77182724D01*
X111190290Y-77197042D01*
X111191000Y-77211500D01*
X111191000Y-77506500D01*
X111190290Y-77520958D01*
X111188166Y-77535276D01*
X111184649Y-77549317D01*
X111179772Y-77562946D01*
X111173583Y-77576031D01*
X111166142Y-77588447D01*
X111157519Y-77600073D01*
X111147798Y-77610798D01*
X111137073Y-77620519D01*
X111125447Y-77629142D01*
X111113031Y-77636583D01*
X111099946Y-77642772D01*
X111086317Y-77647649D01*
X111072276Y-77651166D01*
X111057958Y-77653290D01*
X111043500Y-77654000D01*
X110698500Y-77654000D01*
X110684042Y-77653290D01*
X110669724Y-77651166D01*
X110655683Y-77647649D01*
X110642054Y-77642772D01*
X110628969Y-77636583D01*
X110616553Y-77629142D01*
X110604927Y-77620519D01*
X110594202Y-77610798D01*
X110584481Y-77600073D01*
X110575858Y-77588447D01*
X110568417Y-77576031D01*
X110562228Y-77562946D01*
X110557351Y-77549317D01*
X110553834Y-77535276D01*
X110551710Y-77520958D01*
X110551000Y-77506500D01*
X110551000Y-77211500D01*
X110551710Y-77197042D01*
X110553834Y-77182724D01*
X110557351Y-77168683D01*
X110562228Y-77155054D01*
X110568417Y-77141969D01*
X110575858Y-77129553D01*
X110584481Y-77117927D01*
X110594202Y-77107202D01*
X110604927Y-77097481D01*
X110616553Y-77088858D01*
X110628969Y-77081417D01*
X110642054Y-77075228D01*
X110655683Y-77070351D01*
X110669724Y-77066834D01*
X110684042Y-77064710D01*
X110698500Y-77064000D01*
X111043500Y-77064000D01*
X111057958Y-77064710D01*
G37*
G04 #@! TD.AperFunction*
G04 #@! TA.AperFunction,SMDPad,CuDef*
G36*
X111057958Y-78034710D02*
G01*
X111072276Y-78036834D01*
X111086317Y-78040351D01*
X111099946Y-78045228D01*
X111113031Y-78051417D01*
X111125447Y-78058858D01*
X111137073Y-78067481D01*
X111147798Y-78077202D01*
X111157519Y-78087927D01*
X111166142Y-78099553D01*
X111173583Y-78111969D01*
X111179772Y-78125054D01*
X111184649Y-78138683D01*
X111188166Y-78152724D01*
X111190290Y-78167042D01*
X111191000Y-78181500D01*
X111191000Y-78476500D01*
X111190290Y-78490958D01*
X111188166Y-78505276D01*
X111184649Y-78519317D01*
X111179772Y-78532946D01*
X111173583Y-78546031D01*
X111166142Y-78558447D01*
X111157519Y-78570073D01*
X111147798Y-78580798D01*
X111137073Y-78590519D01*
X111125447Y-78599142D01*
X111113031Y-78606583D01*
X111099946Y-78612772D01*
X111086317Y-78617649D01*
X111072276Y-78621166D01*
X111057958Y-78623290D01*
X111043500Y-78624000D01*
X110698500Y-78624000D01*
X110684042Y-78623290D01*
X110669724Y-78621166D01*
X110655683Y-78617649D01*
X110642054Y-78612772D01*
X110628969Y-78606583D01*
X110616553Y-78599142D01*
X110604927Y-78590519D01*
X110594202Y-78580798D01*
X110584481Y-78570073D01*
X110575858Y-78558447D01*
X110568417Y-78546031D01*
X110562228Y-78532946D01*
X110557351Y-78519317D01*
X110553834Y-78505276D01*
X110551710Y-78490958D01*
X110551000Y-78476500D01*
X110551000Y-78181500D01*
X110551710Y-78167042D01*
X110553834Y-78152724D01*
X110557351Y-78138683D01*
X110562228Y-78125054D01*
X110568417Y-78111969D01*
X110575858Y-78099553D01*
X110584481Y-78087927D01*
X110594202Y-78077202D01*
X110604927Y-78067481D01*
X110616553Y-78058858D01*
X110628969Y-78051417D01*
X110642054Y-78045228D01*
X110655683Y-78040351D01*
X110669724Y-78036834D01*
X110684042Y-78034710D01*
X110698500Y-78034000D01*
X111043500Y-78034000D01*
X111057958Y-78034710D01*
G37*
G04 #@! TD.AperFunction*
G04 #@! TA.AperFunction,SMDPad,CuDef*
G36*
X107395958Y-72197710D02*
G01*
X107410276Y-72199834D01*
X107424317Y-72203351D01*
X107437946Y-72208228D01*
X107451031Y-72214417D01*
X107463447Y-72221858D01*
X107475073Y-72230481D01*
X107485798Y-72240202D01*
X107495519Y-72250927D01*
X107504142Y-72262553D01*
X107511583Y-72274969D01*
X107517772Y-72288054D01*
X107522649Y-72301683D01*
X107526166Y-72315724D01*
X107528290Y-72330042D01*
X107529000Y-72344500D01*
X107529000Y-72689500D01*
X107528290Y-72703958D01*
X107526166Y-72718276D01*
X107522649Y-72732317D01*
X107517772Y-72745946D01*
X107511583Y-72759031D01*
X107504142Y-72771447D01*
X107495519Y-72783073D01*
X107485798Y-72793798D01*
X107475073Y-72803519D01*
X107463447Y-72812142D01*
X107451031Y-72819583D01*
X107437946Y-72825772D01*
X107424317Y-72830649D01*
X107410276Y-72834166D01*
X107395958Y-72836290D01*
X107381500Y-72837000D01*
X107086500Y-72837000D01*
X107072042Y-72836290D01*
X107057724Y-72834166D01*
X107043683Y-72830649D01*
X107030054Y-72825772D01*
X107016969Y-72819583D01*
X107004553Y-72812142D01*
X106992927Y-72803519D01*
X106982202Y-72793798D01*
X106972481Y-72783073D01*
X106963858Y-72771447D01*
X106956417Y-72759031D01*
X106950228Y-72745946D01*
X106945351Y-72732317D01*
X106941834Y-72718276D01*
X106939710Y-72703958D01*
X106939000Y-72689500D01*
X106939000Y-72344500D01*
X106939710Y-72330042D01*
X106941834Y-72315724D01*
X106945351Y-72301683D01*
X106950228Y-72288054D01*
X106956417Y-72274969D01*
X106963858Y-72262553D01*
X106972481Y-72250927D01*
X106982202Y-72240202D01*
X106992927Y-72230481D01*
X107004553Y-72221858D01*
X107016969Y-72214417D01*
X107030054Y-72208228D01*
X107043683Y-72203351D01*
X107057724Y-72199834D01*
X107072042Y-72197710D01*
X107086500Y-72197000D01*
X107381500Y-72197000D01*
X107395958Y-72197710D01*
G37*
G04 #@! TD.AperFunction*
G04 #@! TA.AperFunction,SMDPad,CuDef*
G36*
X108365958Y-72197710D02*
G01*
X108380276Y-72199834D01*
X108394317Y-72203351D01*
X108407946Y-72208228D01*
X108421031Y-72214417D01*
X108433447Y-72221858D01*
X108445073Y-72230481D01*
X108455798Y-72240202D01*
X108465519Y-72250927D01*
X108474142Y-72262553D01*
X108481583Y-72274969D01*
X108487772Y-72288054D01*
X108492649Y-72301683D01*
X108496166Y-72315724D01*
X108498290Y-72330042D01*
X108499000Y-72344500D01*
X108499000Y-72689500D01*
X108498290Y-72703958D01*
X108496166Y-72718276D01*
X108492649Y-72732317D01*
X108487772Y-72745946D01*
X108481583Y-72759031D01*
X108474142Y-72771447D01*
X108465519Y-72783073D01*
X108455798Y-72793798D01*
X108445073Y-72803519D01*
X108433447Y-72812142D01*
X108421031Y-72819583D01*
X108407946Y-72825772D01*
X108394317Y-72830649D01*
X108380276Y-72834166D01*
X108365958Y-72836290D01*
X108351500Y-72837000D01*
X108056500Y-72837000D01*
X108042042Y-72836290D01*
X108027724Y-72834166D01*
X108013683Y-72830649D01*
X108000054Y-72825772D01*
X107986969Y-72819583D01*
X107974553Y-72812142D01*
X107962927Y-72803519D01*
X107952202Y-72793798D01*
X107942481Y-72783073D01*
X107933858Y-72771447D01*
X107926417Y-72759031D01*
X107920228Y-72745946D01*
X107915351Y-72732317D01*
X107911834Y-72718276D01*
X107909710Y-72703958D01*
X107909000Y-72689500D01*
X107909000Y-72344500D01*
X107909710Y-72330042D01*
X107911834Y-72315724D01*
X107915351Y-72301683D01*
X107920228Y-72288054D01*
X107926417Y-72274969D01*
X107933858Y-72262553D01*
X107942481Y-72250927D01*
X107952202Y-72240202D01*
X107962927Y-72230481D01*
X107974553Y-72221858D01*
X107986969Y-72214417D01*
X108000054Y-72208228D01*
X108013683Y-72203351D01*
X108027724Y-72199834D01*
X108042042Y-72197710D01*
X108056500Y-72197000D01*
X108351500Y-72197000D01*
X108365958Y-72197710D01*
G37*
G04 #@! TD.AperFunction*
G04 #@! TA.AperFunction,SMDPad,CuDef*
G36*
X104197958Y-72197710D02*
G01*
X104212276Y-72199834D01*
X104226317Y-72203351D01*
X104239946Y-72208228D01*
X104253031Y-72214417D01*
X104265447Y-72221858D01*
X104277073Y-72230481D01*
X104287798Y-72240202D01*
X104297519Y-72250927D01*
X104306142Y-72262553D01*
X104313583Y-72274969D01*
X104319772Y-72288054D01*
X104324649Y-72301683D01*
X104328166Y-72315724D01*
X104330290Y-72330042D01*
X104331000Y-72344500D01*
X104331000Y-72689500D01*
X104330290Y-72703958D01*
X104328166Y-72718276D01*
X104324649Y-72732317D01*
X104319772Y-72745946D01*
X104313583Y-72759031D01*
X104306142Y-72771447D01*
X104297519Y-72783073D01*
X104287798Y-72793798D01*
X104277073Y-72803519D01*
X104265447Y-72812142D01*
X104253031Y-72819583D01*
X104239946Y-72825772D01*
X104226317Y-72830649D01*
X104212276Y-72834166D01*
X104197958Y-72836290D01*
X104183500Y-72837000D01*
X103888500Y-72837000D01*
X103874042Y-72836290D01*
X103859724Y-72834166D01*
X103845683Y-72830649D01*
X103832054Y-72825772D01*
X103818969Y-72819583D01*
X103806553Y-72812142D01*
X103794927Y-72803519D01*
X103784202Y-72793798D01*
X103774481Y-72783073D01*
X103765858Y-72771447D01*
X103758417Y-72759031D01*
X103752228Y-72745946D01*
X103747351Y-72732317D01*
X103743834Y-72718276D01*
X103741710Y-72703958D01*
X103741000Y-72689500D01*
X103741000Y-72344500D01*
X103741710Y-72330042D01*
X103743834Y-72315724D01*
X103747351Y-72301683D01*
X103752228Y-72288054D01*
X103758417Y-72274969D01*
X103765858Y-72262553D01*
X103774481Y-72250927D01*
X103784202Y-72240202D01*
X103794927Y-72230481D01*
X103806553Y-72221858D01*
X103818969Y-72214417D01*
X103832054Y-72208228D01*
X103845683Y-72203351D01*
X103859724Y-72199834D01*
X103874042Y-72197710D01*
X103888500Y-72197000D01*
X104183500Y-72197000D01*
X104197958Y-72197710D01*
G37*
G04 #@! TD.AperFunction*
G04 #@! TA.AperFunction,SMDPad,CuDef*
G36*
X105167958Y-72197710D02*
G01*
X105182276Y-72199834D01*
X105196317Y-72203351D01*
X105209946Y-72208228D01*
X105223031Y-72214417D01*
X105235447Y-72221858D01*
X105247073Y-72230481D01*
X105257798Y-72240202D01*
X105267519Y-72250927D01*
X105276142Y-72262553D01*
X105283583Y-72274969D01*
X105289772Y-72288054D01*
X105294649Y-72301683D01*
X105298166Y-72315724D01*
X105300290Y-72330042D01*
X105301000Y-72344500D01*
X105301000Y-72689500D01*
X105300290Y-72703958D01*
X105298166Y-72718276D01*
X105294649Y-72732317D01*
X105289772Y-72745946D01*
X105283583Y-72759031D01*
X105276142Y-72771447D01*
X105267519Y-72783073D01*
X105257798Y-72793798D01*
X105247073Y-72803519D01*
X105235447Y-72812142D01*
X105223031Y-72819583D01*
X105209946Y-72825772D01*
X105196317Y-72830649D01*
X105182276Y-72834166D01*
X105167958Y-72836290D01*
X105153500Y-72837000D01*
X104858500Y-72837000D01*
X104844042Y-72836290D01*
X104829724Y-72834166D01*
X104815683Y-72830649D01*
X104802054Y-72825772D01*
X104788969Y-72819583D01*
X104776553Y-72812142D01*
X104764927Y-72803519D01*
X104754202Y-72793798D01*
X104744481Y-72783073D01*
X104735858Y-72771447D01*
X104728417Y-72759031D01*
X104722228Y-72745946D01*
X104717351Y-72732317D01*
X104713834Y-72718276D01*
X104711710Y-72703958D01*
X104711000Y-72689500D01*
X104711000Y-72344500D01*
X104711710Y-72330042D01*
X104713834Y-72315724D01*
X104717351Y-72301683D01*
X104722228Y-72288054D01*
X104728417Y-72274969D01*
X104735858Y-72262553D01*
X104744481Y-72250927D01*
X104754202Y-72240202D01*
X104764927Y-72230481D01*
X104776553Y-72221858D01*
X104788969Y-72214417D01*
X104802054Y-72208228D01*
X104815683Y-72203351D01*
X104829724Y-72199834D01*
X104844042Y-72197710D01*
X104858500Y-72197000D01*
X105153500Y-72197000D01*
X105167958Y-72197710D01*
G37*
G04 #@! TD.AperFunction*
G04 #@! TA.AperFunction,SMDPad,CuDef*
G36*
X133536958Y-105577710D02*
G01*
X133551276Y-105579834D01*
X133565317Y-105583351D01*
X133578946Y-105588228D01*
X133592031Y-105594417D01*
X133604447Y-105601858D01*
X133616073Y-105610481D01*
X133626798Y-105620202D01*
X133636519Y-105630927D01*
X133645142Y-105642553D01*
X133652583Y-105654969D01*
X133658772Y-105668054D01*
X133663649Y-105681683D01*
X133667166Y-105695724D01*
X133669290Y-105710042D01*
X133670000Y-105724500D01*
X133670000Y-106019500D01*
X133669290Y-106033958D01*
X133667166Y-106048276D01*
X133663649Y-106062317D01*
X133658772Y-106075946D01*
X133652583Y-106089031D01*
X133645142Y-106101447D01*
X133636519Y-106113073D01*
X133626798Y-106123798D01*
X133616073Y-106133519D01*
X133604447Y-106142142D01*
X133592031Y-106149583D01*
X133578946Y-106155772D01*
X133565317Y-106160649D01*
X133551276Y-106164166D01*
X133536958Y-106166290D01*
X133522500Y-106167000D01*
X133177500Y-106167000D01*
X133163042Y-106166290D01*
X133148724Y-106164166D01*
X133134683Y-106160649D01*
X133121054Y-106155772D01*
X133107969Y-106149583D01*
X133095553Y-106142142D01*
X133083927Y-106133519D01*
X133073202Y-106123798D01*
X133063481Y-106113073D01*
X133054858Y-106101447D01*
X133047417Y-106089031D01*
X133041228Y-106075946D01*
X133036351Y-106062317D01*
X133032834Y-106048276D01*
X133030710Y-106033958D01*
X133030000Y-106019500D01*
X133030000Y-105724500D01*
X133030710Y-105710042D01*
X133032834Y-105695724D01*
X133036351Y-105681683D01*
X133041228Y-105668054D01*
X133047417Y-105654969D01*
X133054858Y-105642553D01*
X133063481Y-105630927D01*
X133073202Y-105620202D01*
X133083927Y-105610481D01*
X133095553Y-105601858D01*
X133107969Y-105594417D01*
X133121054Y-105588228D01*
X133134683Y-105583351D01*
X133148724Y-105579834D01*
X133163042Y-105577710D01*
X133177500Y-105577000D01*
X133522500Y-105577000D01*
X133536958Y-105577710D01*
G37*
G04 #@! TD.AperFunction*
G04 #@! TA.AperFunction,SMDPad,CuDef*
G36*
X133536958Y-104607710D02*
G01*
X133551276Y-104609834D01*
X133565317Y-104613351D01*
X133578946Y-104618228D01*
X133592031Y-104624417D01*
X133604447Y-104631858D01*
X133616073Y-104640481D01*
X133626798Y-104650202D01*
X133636519Y-104660927D01*
X133645142Y-104672553D01*
X133652583Y-104684969D01*
X133658772Y-104698054D01*
X133663649Y-104711683D01*
X133667166Y-104725724D01*
X133669290Y-104740042D01*
X133670000Y-104754500D01*
X133670000Y-105049500D01*
X133669290Y-105063958D01*
X133667166Y-105078276D01*
X133663649Y-105092317D01*
X133658772Y-105105946D01*
X133652583Y-105119031D01*
X133645142Y-105131447D01*
X133636519Y-105143073D01*
X133626798Y-105153798D01*
X133616073Y-105163519D01*
X133604447Y-105172142D01*
X133592031Y-105179583D01*
X133578946Y-105185772D01*
X133565317Y-105190649D01*
X133551276Y-105194166D01*
X133536958Y-105196290D01*
X133522500Y-105197000D01*
X133177500Y-105197000D01*
X133163042Y-105196290D01*
X133148724Y-105194166D01*
X133134683Y-105190649D01*
X133121054Y-105185772D01*
X133107969Y-105179583D01*
X133095553Y-105172142D01*
X133083927Y-105163519D01*
X133073202Y-105153798D01*
X133063481Y-105143073D01*
X133054858Y-105131447D01*
X133047417Y-105119031D01*
X133041228Y-105105946D01*
X133036351Y-105092317D01*
X133032834Y-105078276D01*
X133030710Y-105063958D01*
X133030000Y-105049500D01*
X133030000Y-104754500D01*
X133030710Y-104740042D01*
X133032834Y-104725724D01*
X133036351Y-104711683D01*
X133041228Y-104698054D01*
X133047417Y-104684969D01*
X133054858Y-104672553D01*
X133063481Y-104660927D01*
X133073202Y-104650202D01*
X133083927Y-104640481D01*
X133095553Y-104631858D01*
X133107969Y-104624417D01*
X133121054Y-104618228D01*
X133134683Y-104613351D01*
X133148724Y-104609834D01*
X133163042Y-104607710D01*
X133177500Y-104607000D01*
X133522500Y-104607000D01*
X133536958Y-104607710D01*
G37*
G04 #@! TD.AperFunction*
G04 #@! TA.AperFunction,SMDPad,CuDef*
G36*
X130234958Y-105600710D02*
G01*
X130249276Y-105602834D01*
X130263317Y-105606351D01*
X130276946Y-105611228D01*
X130290031Y-105617417D01*
X130302447Y-105624858D01*
X130314073Y-105633481D01*
X130324798Y-105643202D01*
X130334519Y-105653927D01*
X130343142Y-105665553D01*
X130350583Y-105677969D01*
X130356772Y-105691054D01*
X130361649Y-105704683D01*
X130365166Y-105718724D01*
X130367290Y-105733042D01*
X130368000Y-105747500D01*
X130368000Y-106042500D01*
X130367290Y-106056958D01*
X130365166Y-106071276D01*
X130361649Y-106085317D01*
X130356772Y-106098946D01*
X130350583Y-106112031D01*
X130343142Y-106124447D01*
X130334519Y-106136073D01*
X130324798Y-106146798D01*
X130314073Y-106156519D01*
X130302447Y-106165142D01*
X130290031Y-106172583D01*
X130276946Y-106178772D01*
X130263317Y-106183649D01*
X130249276Y-106187166D01*
X130234958Y-106189290D01*
X130220500Y-106190000D01*
X129875500Y-106190000D01*
X129861042Y-106189290D01*
X129846724Y-106187166D01*
X129832683Y-106183649D01*
X129819054Y-106178772D01*
X129805969Y-106172583D01*
X129793553Y-106165142D01*
X129781927Y-106156519D01*
X129771202Y-106146798D01*
X129761481Y-106136073D01*
X129752858Y-106124447D01*
X129745417Y-106112031D01*
X129739228Y-106098946D01*
X129734351Y-106085317D01*
X129730834Y-106071276D01*
X129728710Y-106056958D01*
X129728000Y-106042500D01*
X129728000Y-105747500D01*
X129728710Y-105733042D01*
X129730834Y-105718724D01*
X129734351Y-105704683D01*
X129739228Y-105691054D01*
X129745417Y-105677969D01*
X129752858Y-105665553D01*
X129761481Y-105653927D01*
X129771202Y-105643202D01*
X129781927Y-105633481D01*
X129793553Y-105624858D01*
X129805969Y-105617417D01*
X129819054Y-105611228D01*
X129832683Y-105606351D01*
X129846724Y-105602834D01*
X129861042Y-105600710D01*
X129875500Y-105600000D01*
X130220500Y-105600000D01*
X130234958Y-105600710D01*
G37*
G04 #@! TD.AperFunction*
G04 #@! TA.AperFunction,SMDPad,CuDef*
G36*
X130234958Y-104630710D02*
G01*
X130249276Y-104632834D01*
X130263317Y-104636351D01*
X130276946Y-104641228D01*
X130290031Y-104647417D01*
X130302447Y-104654858D01*
X130314073Y-104663481D01*
X130324798Y-104673202D01*
X130334519Y-104683927D01*
X130343142Y-104695553D01*
X130350583Y-104707969D01*
X130356772Y-104721054D01*
X130361649Y-104734683D01*
X130365166Y-104748724D01*
X130367290Y-104763042D01*
X130368000Y-104777500D01*
X130368000Y-105072500D01*
X130367290Y-105086958D01*
X130365166Y-105101276D01*
X130361649Y-105115317D01*
X130356772Y-105128946D01*
X130350583Y-105142031D01*
X130343142Y-105154447D01*
X130334519Y-105166073D01*
X130324798Y-105176798D01*
X130314073Y-105186519D01*
X130302447Y-105195142D01*
X130290031Y-105202583D01*
X130276946Y-105208772D01*
X130263317Y-105213649D01*
X130249276Y-105217166D01*
X130234958Y-105219290D01*
X130220500Y-105220000D01*
X129875500Y-105220000D01*
X129861042Y-105219290D01*
X129846724Y-105217166D01*
X129832683Y-105213649D01*
X129819054Y-105208772D01*
X129805969Y-105202583D01*
X129793553Y-105195142D01*
X129781927Y-105186519D01*
X129771202Y-105176798D01*
X129761481Y-105166073D01*
X129752858Y-105154447D01*
X129745417Y-105142031D01*
X129739228Y-105128946D01*
X129734351Y-105115317D01*
X129730834Y-105101276D01*
X129728710Y-105086958D01*
X129728000Y-105072500D01*
X129728000Y-104777500D01*
X129728710Y-104763042D01*
X129730834Y-104748724D01*
X129734351Y-104734683D01*
X129739228Y-104721054D01*
X129745417Y-104707969D01*
X129752858Y-104695553D01*
X129761481Y-104683927D01*
X129771202Y-104673202D01*
X129781927Y-104663481D01*
X129793553Y-104654858D01*
X129805969Y-104647417D01*
X129819054Y-104641228D01*
X129832683Y-104636351D01*
X129846724Y-104632834D01*
X129861042Y-104630710D01*
X129875500Y-104630000D01*
X130220500Y-104630000D01*
X130234958Y-104630710D01*
G37*
G04 #@! TD.AperFunction*
G04 #@! TA.AperFunction,SMDPad,CuDef*
G36*
X136838958Y-104607710D02*
G01*
X136853276Y-104609834D01*
X136867317Y-104613351D01*
X136880946Y-104618228D01*
X136894031Y-104624417D01*
X136906447Y-104631858D01*
X136918073Y-104640481D01*
X136928798Y-104650202D01*
X136938519Y-104660927D01*
X136947142Y-104672553D01*
X136954583Y-104684969D01*
X136960772Y-104698054D01*
X136965649Y-104711683D01*
X136969166Y-104725724D01*
X136971290Y-104740042D01*
X136972000Y-104754500D01*
X136972000Y-105049500D01*
X136971290Y-105063958D01*
X136969166Y-105078276D01*
X136965649Y-105092317D01*
X136960772Y-105105946D01*
X136954583Y-105119031D01*
X136947142Y-105131447D01*
X136938519Y-105143073D01*
X136928798Y-105153798D01*
X136918073Y-105163519D01*
X136906447Y-105172142D01*
X136894031Y-105179583D01*
X136880946Y-105185772D01*
X136867317Y-105190649D01*
X136853276Y-105194166D01*
X136838958Y-105196290D01*
X136824500Y-105197000D01*
X136479500Y-105197000D01*
X136465042Y-105196290D01*
X136450724Y-105194166D01*
X136436683Y-105190649D01*
X136423054Y-105185772D01*
X136409969Y-105179583D01*
X136397553Y-105172142D01*
X136385927Y-105163519D01*
X136375202Y-105153798D01*
X136365481Y-105143073D01*
X136356858Y-105131447D01*
X136349417Y-105119031D01*
X136343228Y-105105946D01*
X136338351Y-105092317D01*
X136334834Y-105078276D01*
X136332710Y-105063958D01*
X136332000Y-105049500D01*
X136332000Y-104754500D01*
X136332710Y-104740042D01*
X136334834Y-104725724D01*
X136338351Y-104711683D01*
X136343228Y-104698054D01*
X136349417Y-104684969D01*
X136356858Y-104672553D01*
X136365481Y-104660927D01*
X136375202Y-104650202D01*
X136385927Y-104640481D01*
X136397553Y-104631858D01*
X136409969Y-104624417D01*
X136423054Y-104618228D01*
X136436683Y-104613351D01*
X136450724Y-104609834D01*
X136465042Y-104607710D01*
X136479500Y-104607000D01*
X136824500Y-104607000D01*
X136838958Y-104607710D01*
G37*
G04 #@! TD.AperFunction*
G04 #@! TA.AperFunction,SMDPad,CuDef*
G36*
X136838958Y-105577710D02*
G01*
X136853276Y-105579834D01*
X136867317Y-105583351D01*
X136880946Y-105588228D01*
X136894031Y-105594417D01*
X136906447Y-105601858D01*
X136918073Y-105610481D01*
X136928798Y-105620202D01*
X136938519Y-105630927D01*
X136947142Y-105642553D01*
X136954583Y-105654969D01*
X136960772Y-105668054D01*
X136965649Y-105681683D01*
X136969166Y-105695724D01*
X136971290Y-105710042D01*
X136972000Y-105724500D01*
X136972000Y-106019500D01*
X136971290Y-106033958D01*
X136969166Y-106048276D01*
X136965649Y-106062317D01*
X136960772Y-106075946D01*
X136954583Y-106089031D01*
X136947142Y-106101447D01*
X136938519Y-106113073D01*
X136928798Y-106123798D01*
X136918073Y-106133519D01*
X136906447Y-106142142D01*
X136894031Y-106149583D01*
X136880946Y-106155772D01*
X136867317Y-106160649D01*
X136853276Y-106164166D01*
X136838958Y-106166290D01*
X136824500Y-106167000D01*
X136479500Y-106167000D01*
X136465042Y-106166290D01*
X136450724Y-106164166D01*
X136436683Y-106160649D01*
X136423054Y-106155772D01*
X136409969Y-106149583D01*
X136397553Y-106142142D01*
X136385927Y-106133519D01*
X136375202Y-106123798D01*
X136365481Y-106113073D01*
X136356858Y-106101447D01*
X136349417Y-106089031D01*
X136343228Y-106075946D01*
X136338351Y-106062317D01*
X136334834Y-106048276D01*
X136332710Y-106033958D01*
X136332000Y-106019500D01*
X136332000Y-105724500D01*
X136332710Y-105710042D01*
X136334834Y-105695724D01*
X136338351Y-105681683D01*
X136343228Y-105668054D01*
X136349417Y-105654969D01*
X136356858Y-105642553D01*
X136365481Y-105630927D01*
X136375202Y-105620202D01*
X136385927Y-105610481D01*
X136397553Y-105601858D01*
X136409969Y-105594417D01*
X136423054Y-105588228D01*
X136436683Y-105583351D01*
X136450724Y-105579834D01*
X136465042Y-105577710D01*
X136479500Y-105577000D01*
X136824500Y-105577000D01*
X136838958Y-105577710D01*
G37*
G04 #@! TD.AperFunction*
G04 #@! TA.AperFunction,SMDPad,CuDef*
G36*
X140140958Y-105577710D02*
G01*
X140155276Y-105579834D01*
X140169317Y-105583351D01*
X140182946Y-105588228D01*
X140196031Y-105594417D01*
X140208447Y-105601858D01*
X140220073Y-105610481D01*
X140230798Y-105620202D01*
X140240519Y-105630927D01*
X140249142Y-105642553D01*
X140256583Y-105654969D01*
X140262772Y-105668054D01*
X140267649Y-105681683D01*
X140271166Y-105695724D01*
X140273290Y-105710042D01*
X140274000Y-105724500D01*
X140274000Y-106019500D01*
X140273290Y-106033958D01*
X140271166Y-106048276D01*
X140267649Y-106062317D01*
X140262772Y-106075946D01*
X140256583Y-106089031D01*
X140249142Y-106101447D01*
X140240519Y-106113073D01*
X140230798Y-106123798D01*
X140220073Y-106133519D01*
X140208447Y-106142142D01*
X140196031Y-106149583D01*
X140182946Y-106155772D01*
X140169317Y-106160649D01*
X140155276Y-106164166D01*
X140140958Y-106166290D01*
X140126500Y-106167000D01*
X139781500Y-106167000D01*
X139767042Y-106166290D01*
X139752724Y-106164166D01*
X139738683Y-106160649D01*
X139725054Y-106155772D01*
X139711969Y-106149583D01*
X139699553Y-106142142D01*
X139687927Y-106133519D01*
X139677202Y-106123798D01*
X139667481Y-106113073D01*
X139658858Y-106101447D01*
X139651417Y-106089031D01*
X139645228Y-106075946D01*
X139640351Y-106062317D01*
X139636834Y-106048276D01*
X139634710Y-106033958D01*
X139634000Y-106019500D01*
X139634000Y-105724500D01*
X139634710Y-105710042D01*
X139636834Y-105695724D01*
X139640351Y-105681683D01*
X139645228Y-105668054D01*
X139651417Y-105654969D01*
X139658858Y-105642553D01*
X139667481Y-105630927D01*
X139677202Y-105620202D01*
X139687927Y-105610481D01*
X139699553Y-105601858D01*
X139711969Y-105594417D01*
X139725054Y-105588228D01*
X139738683Y-105583351D01*
X139752724Y-105579834D01*
X139767042Y-105577710D01*
X139781500Y-105577000D01*
X140126500Y-105577000D01*
X140140958Y-105577710D01*
G37*
G04 #@! TD.AperFunction*
G04 #@! TA.AperFunction,SMDPad,CuDef*
G36*
X140140958Y-104607710D02*
G01*
X140155276Y-104609834D01*
X140169317Y-104613351D01*
X140182946Y-104618228D01*
X140196031Y-104624417D01*
X140208447Y-104631858D01*
X140220073Y-104640481D01*
X140230798Y-104650202D01*
X140240519Y-104660927D01*
X140249142Y-104672553D01*
X140256583Y-104684969D01*
X140262772Y-104698054D01*
X140267649Y-104711683D01*
X140271166Y-104725724D01*
X140273290Y-104740042D01*
X140274000Y-104754500D01*
X140274000Y-105049500D01*
X140273290Y-105063958D01*
X140271166Y-105078276D01*
X140267649Y-105092317D01*
X140262772Y-105105946D01*
X140256583Y-105119031D01*
X140249142Y-105131447D01*
X140240519Y-105143073D01*
X140230798Y-105153798D01*
X140220073Y-105163519D01*
X140208447Y-105172142D01*
X140196031Y-105179583D01*
X140182946Y-105185772D01*
X140169317Y-105190649D01*
X140155276Y-105194166D01*
X140140958Y-105196290D01*
X140126500Y-105197000D01*
X139781500Y-105197000D01*
X139767042Y-105196290D01*
X139752724Y-105194166D01*
X139738683Y-105190649D01*
X139725054Y-105185772D01*
X139711969Y-105179583D01*
X139699553Y-105172142D01*
X139687927Y-105163519D01*
X139677202Y-105153798D01*
X139667481Y-105143073D01*
X139658858Y-105131447D01*
X139651417Y-105119031D01*
X139645228Y-105105946D01*
X139640351Y-105092317D01*
X139636834Y-105078276D01*
X139634710Y-105063958D01*
X139634000Y-105049500D01*
X139634000Y-104754500D01*
X139634710Y-104740042D01*
X139636834Y-104725724D01*
X139640351Y-104711683D01*
X139645228Y-104698054D01*
X139651417Y-104684969D01*
X139658858Y-104672553D01*
X139667481Y-104660927D01*
X139677202Y-104650202D01*
X139687927Y-104640481D01*
X139699553Y-104631858D01*
X139711969Y-104624417D01*
X139725054Y-104618228D01*
X139738683Y-104613351D01*
X139752724Y-104609834D01*
X139767042Y-104607710D01*
X139781500Y-104607000D01*
X140126500Y-104607000D01*
X140140958Y-104607710D01*
G37*
G04 #@! TD.AperFunction*
G04 #@! TA.AperFunction,SMDPad,CuDef*
G36*
X131314458Y-109304210D02*
G01*
X131328776Y-109306334D01*
X131342817Y-109309851D01*
X131356446Y-109314728D01*
X131369531Y-109320917D01*
X131381947Y-109328358D01*
X131393573Y-109336981D01*
X131404298Y-109346702D01*
X131414019Y-109357427D01*
X131422642Y-109369053D01*
X131430083Y-109381469D01*
X131436272Y-109394554D01*
X131441149Y-109408183D01*
X131444666Y-109422224D01*
X131446790Y-109436542D01*
X131447500Y-109451000D01*
X131447500Y-109746000D01*
X131446790Y-109760458D01*
X131444666Y-109774776D01*
X131441149Y-109788817D01*
X131436272Y-109802446D01*
X131430083Y-109815531D01*
X131422642Y-109827947D01*
X131414019Y-109839573D01*
X131404298Y-109850298D01*
X131393573Y-109860019D01*
X131381947Y-109868642D01*
X131369531Y-109876083D01*
X131356446Y-109882272D01*
X131342817Y-109887149D01*
X131328776Y-109890666D01*
X131314458Y-109892790D01*
X131300000Y-109893500D01*
X130955000Y-109893500D01*
X130940542Y-109892790D01*
X130926224Y-109890666D01*
X130912183Y-109887149D01*
X130898554Y-109882272D01*
X130885469Y-109876083D01*
X130873053Y-109868642D01*
X130861427Y-109860019D01*
X130850702Y-109850298D01*
X130840981Y-109839573D01*
X130832358Y-109827947D01*
X130824917Y-109815531D01*
X130818728Y-109802446D01*
X130813851Y-109788817D01*
X130810334Y-109774776D01*
X130808210Y-109760458D01*
X130807500Y-109746000D01*
X130807500Y-109451000D01*
X130808210Y-109436542D01*
X130810334Y-109422224D01*
X130813851Y-109408183D01*
X130818728Y-109394554D01*
X130824917Y-109381469D01*
X130832358Y-109369053D01*
X130840981Y-109357427D01*
X130850702Y-109346702D01*
X130861427Y-109336981D01*
X130873053Y-109328358D01*
X130885469Y-109320917D01*
X130898554Y-109314728D01*
X130912183Y-109309851D01*
X130926224Y-109306334D01*
X130940542Y-109304210D01*
X130955000Y-109303500D01*
X131300000Y-109303500D01*
X131314458Y-109304210D01*
G37*
G04 #@! TD.AperFunction*
G04 #@! TA.AperFunction,SMDPad,CuDef*
G36*
X131314458Y-110274210D02*
G01*
X131328776Y-110276334D01*
X131342817Y-110279851D01*
X131356446Y-110284728D01*
X131369531Y-110290917D01*
X131381947Y-110298358D01*
X131393573Y-110306981D01*
X131404298Y-110316702D01*
X131414019Y-110327427D01*
X131422642Y-110339053D01*
X131430083Y-110351469D01*
X131436272Y-110364554D01*
X131441149Y-110378183D01*
X131444666Y-110392224D01*
X131446790Y-110406542D01*
X131447500Y-110421000D01*
X131447500Y-110716000D01*
X131446790Y-110730458D01*
X131444666Y-110744776D01*
X131441149Y-110758817D01*
X131436272Y-110772446D01*
X131430083Y-110785531D01*
X131422642Y-110797947D01*
X131414019Y-110809573D01*
X131404298Y-110820298D01*
X131393573Y-110830019D01*
X131381947Y-110838642D01*
X131369531Y-110846083D01*
X131356446Y-110852272D01*
X131342817Y-110857149D01*
X131328776Y-110860666D01*
X131314458Y-110862790D01*
X131300000Y-110863500D01*
X130955000Y-110863500D01*
X130940542Y-110862790D01*
X130926224Y-110860666D01*
X130912183Y-110857149D01*
X130898554Y-110852272D01*
X130885469Y-110846083D01*
X130873053Y-110838642D01*
X130861427Y-110830019D01*
X130850702Y-110820298D01*
X130840981Y-110809573D01*
X130832358Y-110797947D01*
X130824917Y-110785531D01*
X130818728Y-110772446D01*
X130813851Y-110758817D01*
X130810334Y-110744776D01*
X130808210Y-110730458D01*
X130807500Y-110716000D01*
X130807500Y-110421000D01*
X130808210Y-110406542D01*
X130810334Y-110392224D01*
X130813851Y-110378183D01*
X130818728Y-110364554D01*
X130824917Y-110351469D01*
X130832358Y-110339053D01*
X130840981Y-110327427D01*
X130850702Y-110316702D01*
X130861427Y-110306981D01*
X130873053Y-110298358D01*
X130885469Y-110290917D01*
X130898554Y-110284728D01*
X130912183Y-110279851D01*
X130926224Y-110276334D01*
X130940542Y-110274210D01*
X130955000Y-110273500D01*
X131300000Y-110273500D01*
X131314458Y-110274210D01*
G37*
G04 #@! TD.AperFunction*
G04 #@! TA.AperFunction,SMDPad,CuDef*
G36*
X129155458Y-110274210D02*
G01*
X129169776Y-110276334D01*
X129183817Y-110279851D01*
X129197446Y-110284728D01*
X129210531Y-110290917D01*
X129222947Y-110298358D01*
X129234573Y-110306981D01*
X129245298Y-110316702D01*
X129255019Y-110327427D01*
X129263642Y-110339053D01*
X129271083Y-110351469D01*
X129277272Y-110364554D01*
X129282149Y-110378183D01*
X129285666Y-110392224D01*
X129287790Y-110406542D01*
X129288500Y-110421000D01*
X129288500Y-110716000D01*
X129287790Y-110730458D01*
X129285666Y-110744776D01*
X129282149Y-110758817D01*
X129277272Y-110772446D01*
X129271083Y-110785531D01*
X129263642Y-110797947D01*
X129255019Y-110809573D01*
X129245298Y-110820298D01*
X129234573Y-110830019D01*
X129222947Y-110838642D01*
X129210531Y-110846083D01*
X129197446Y-110852272D01*
X129183817Y-110857149D01*
X129169776Y-110860666D01*
X129155458Y-110862790D01*
X129141000Y-110863500D01*
X128796000Y-110863500D01*
X128781542Y-110862790D01*
X128767224Y-110860666D01*
X128753183Y-110857149D01*
X128739554Y-110852272D01*
X128726469Y-110846083D01*
X128714053Y-110838642D01*
X128702427Y-110830019D01*
X128691702Y-110820298D01*
X128681981Y-110809573D01*
X128673358Y-110797947D01*
X128665917Y-110785531D01*
X128659728Y-110772446D01*
X128654851Y-110758817D01*
X128651334Y-110744776D01*
X128649210Y-110730458D01*
X128648500Y-110716000D01*
X128648500Y-110421000D01*
X128649210Y-110406542D01*
X128651334Y-110392224D01*
X128654851Y-110378183D01*
X128659728Y-110364554D01*
X128665917Y-110351469D01*
X128673358Y-110339053D01*
X128681981Y-110327427D01*
X128691702Y-110316702D01*
X128702427Y-110306981D01*
X128714053Y-110298358D01*
X128726469Y-110290917D01*
X128739554Y-110284728D01*
X128753183Y-110279851D01*
X128767224Y-110276334D01*
X128781542Y-110274210D01*
X128796000Y-110273500D01*
X129141000Y-110273500D01*
X129155458Y-110274210D01*
G37*
G04 #@! TD.AperFunction*
G04 #@! TA.AperFunction,SMDPad,CuDef*
G36*
X129155458Y-109304210D02*
G01*
X129169776Y-109306334D01*
X129183817Y-109309851D01*
X129197446Y-109314728D01*
X129210531Y-109320917D01*
X129222947Y-109328358D01*
X129234573Y-109336981D01*
X129245298Y-109346702D01*
X129255019Y-109357427D01*
X129263642Y-109369053D01*
X129271083Y-109381469D01*
X129277272Y-109394554D01*
X129282149Y-109408183D01*
X129285666Y-109422224D01*
X129287790Y-109436542D01*
X129288500Y-109451000D01*
X129288500Y-109746000D01*
X129287790Y-109760458D01*
X129285666Y-109774776D01*
X129282149Y-109788817D01*
X129277272Y-109802446D01*
X129271083Y-109815531D01*
X129263642Y-109827947D01*
X129255019Y-109839573D01*
X129245298Y-109850298D01*
X129234573Y-109860019D01*
X129222947Y-109868642D01*
X129210531Y-109876083D01*
X129197446Y-109882272D01*
X129183817Y-109887149D01*
X129169776Y-109890666D01*
X129155458Y-109892790D01*
X129141000Y-109893500D01*
X128796000Y-109893500D01*
X128781542Y-109892790D01*
X128767224Y-109890666D01*
X128753183Y-109887149D01*
X128739554Y-109882272D01*
X128726469Y-109876083D01*
X128714053Y-109868642D01*
X128702427Y-109860019D01*
X128691702Y-109850298D01*
X128681981Y-109839573D01*
X128673358Y-109827947D01*
X128665917Y-109815531D01*
X128659728Y-109802446D01*
X128654851Y-109788817D01*
X128651334Y-109774776D01*
X128649210Y-109760458D01*
X128648500Y-109746000D01*
X128648500Y-109451000D01*
X128649210Y-109436542D01*
X128651334Y-109422224D01*
X128654851Y-109408183D01*
X128659728Y-109394554D01*
X128665917Y-109381469D01*
X128673358Y-109369053D01*
X128681981Y-109357427D01*
X128691702Y-109346702D01*
X128702427Y-109336981D01*
X128714053Y-109328358D01*
X128726469Y-109320917D01*
X128739554Y-109314728D01*
X128753183Y-109309851D01*
X128767224Y-109306334D01*
X128781542Y-109304210D01*
X128796000Y-109303500D01*
X129141000Y-109303500D01*
X129155458Y-109304210D01*
G37*
G04 #@! TD.AperFunction*
G04 #@! TA.AperFunction,SMDPad,CuDef*
G36*
X133473458Y-109228210D02*
G01*
X133487776Y-109230334D01*
X133501817Y-109233851D01*
X133515446Y-109238728D01*
X133528531Y-109244917D01*
X133540947Y-109252358D01*
X133552573Y-109260981D01*
X133563298Y-109270702D01*
X133573019Y-109281427D01*
X133581642Y-109293053D01*
X133589083Y-109305469D01*
X133595272Y-109318554D01*
X133600149Y-109332183D01*
X133603666Y-109346224D01*
X133605790Y-109360542D01*
X133606500Y-109375000D01*
X133606500Y-109670000D01*
X133605790Y-109684458D01*
X133603666Y-109698776D01*
X133600149Y-109712817D01*
X133595272Y-109726446D01*
X133589083Y-109739531D01*
X133581642Y-109751947D01*
X133573019Y-109763573D01*
X133563298Y-109774298D01*
X133552573Y-109784019D01*
X133540947Y-109792642D01*
X133528531Y-109800083D01*
X133515446Y-109806272D01*
X133501817Y-109811149D01*
X133487776Y-109814666D01*
X133473458Y-109816790D01*
X133459000Y-109817500D01*
X133114000Y-109817500D01*
X133099542Y-109816790D01*
X133085224Y-109814666D01*
X133071183Y-109811149D01*
X133057554Y-109806272D01*
X133044469Y-109800083D01*
X133032053Y-109792642D01*
X133020427Y-109784019D01*
X133009702Y-109774298D01*
X132999981Y-109763573D01*
X132991358Y-109751947D01*
X132983917Y-109739531D01*
X132977728Y-109726446D01*
X132972851Y-109712817D01*
X132969334Y-109698776D01*
X132967210Y-109684458D01*
X132966500Y-109670000D01*
X132966500Y-109375000D01*
X132967210Y-109360542D01*
X132969334Y-109346224D01*
X132972851Y-109332183D01*
X132977728Y-109318554D01*
X132983917Y-109305469D01*
X132991358Y-109293053D01*
X132999981Y-109281427D01*
X133009702Y-109270702D01*
X133020427Y-109260981D01*
X133032053Y-109252358D01*
X133044469Y-109244917D01*
X133057554Y-109238728D01*
X133071183Y-109233851D01*
X133085224Y-109230334D01*
X133099542Y-109228210D01*
X133114000Y-109227500D01*
X133459000Y-109227500D01*
X133473458Y-109228210D01*
G37*
G04 #@! TD.AperFunction*
G04 #@! TA.AperFunction,SMDPad,CuDef*
G36*
X133473458Y-110198210D02*
G01*
X133487776Y-110200334D01*
X133501817Y-110203851D01*
X133515446Y-110208728D01*
X133528531Y-110214917D01*
X133540947Y-110222358D01*
X133552573Y-110230981D01*
X133563298Y-110240702D01*
X133573019Y-110251427D01*
X133581642Y-110263053D01*
X133589083Y-110275469D01*
X133595272Y-110288554D01*
X133600149Y-110302183D01*
X133603666Y-110316224D01*
X133605790Y-110330542D01*
X133606500Y-110345000D01*
X133606500Y-110640000D01*
X133605790Y-110654458D01*
X133603666Y-110668776D01*
X133600149Y-110682817D01*
X133595272Y-110696446D01*
X133589083Y-110709531D01*
X133581642Y-110721947D01*
X133573019Y-110733573D01*
X133563298Y-110744298D01*
X133552573Y-110754019D01*
X133540947Y-110762642D01*
X133528531Y-110770083D01*
X133515446Y-110776272D01*
X133501817Y-110781149D01*
X133487776Y-110784666D01*
X133473458Y-110786790D01*
X133459000Y-110787500D01*
X133114000Y-110787500D01*
X133099542Y-110786790D01*
X133085224Y-110784666D01*
X133071183Y-110781149D01*
X133057554Y-110776272D01*
X133044469Y-110770083D01*
X133032053Y-110762642D01*
X133020427Y-110754019D01*
X133009702Y-110744298D01*
X132999981Y-110733573D01*
X132991358Y-110721947D01*
X132983917Y-110709531D01*
X132977728Y-110696446D01*
X132972851Y-110682817D01*
X132969334Y-110668776D01*
X132967210Y-110654458D01*
X132966500Y-110640000D01*
X132966500Y-110345000D01*
X132967210Y-110330542D01*
X132969334Y-110316224D01*
X132972851Y-110302183D01*
X132977728Y-110288554D01*
X132983917Y-110275469D01*
X132991358Y-110263053D01*
X132999981Y-110251427D01*
X133009702Y-110240702D01*
X133020427Y-110230981D01*
X133032053Y-110222358D01*
X133044469Y-110214917D01*
X133057554Y-110208728D01*
X133071183Y-110203851D01*
X133085224Y-110200334D01*
X133099542Y-110198210D01*
X133114000Y-110197500D01*
X133459000Y-110197500D01*
X133473458Y-110198210D01*
G37*
G04 #@! TD.AperFunction*
G04 #@! TA.AperFunction,SMDPad,CuDef*
G36*
X135759458Y-110198210D02*
G01*
X135773776Y-110200334D01*
X135787817Y-110203851D01*
X135801446Y-110208728D01*
X135814531Y-110214917D01*
X135826947Y-110222358D01*
X135838573Y-110230981D01*
X135849298Y-110240702D01*
X135859019Y-110251427D01*
X135867642Y-110263053D01*
X135875083Y-110275469D01*
X135881272Y-110288554D01*
X135886149Y-110302183D01*
X135889666Y-110316224D01*
X135891790Y-110330542D01*
X135892500Y-110345000D01*
X135892500Y-110640000D01*
X135891790Y-110654458D01*
X135889666Y-110668776D01*
X135886149Y-110682817D01*
X135881272Y-110696446D01*
X135875083Y-110709531D01*
X135867642Y-110721947D01*
X135859019Y-110733573D01*
X135849298Y-110744298D01*
X135838573Y-110754019D01*
X135826947Y-110762642D01*
X135814531Y-110770083D01*
X135801446Y-110776272D01*
X135787817Y-110781149D01*
X135773776Y-110784666D01*
X135759458Y-110786790D01*
X135745000Y-110787500D01*
X135400000Y-110787500D01*
X135385542Y-110786790D01*
X135371224Y-110784666D01*
X135357183Y-110781149D01*
X135343554Y-110776272D01*
X135330469Y-110770083D01*
X135318053Y-110762642D01*
X135306427Y-110754019D01*
X135295702Y-110744298D01*
X135285981Y-110733573D01*
X135277358Y-110721947D01*
X135269917Y-110709531D01*
X135263728Y-110696446D01*
X135258851Y-110682817D01*
X135255334Y-110668776D01*
X135253210Y-110654458D01*
X135252500Y-110640000D01*
X135252500Y-110345000D01*
X135253210Y-110330542D01*
X135255334Y-110316224D01*
X135258851Y-110302183D01*
X135263728Y-110288554D01*
X135269917Y-110275469D01*
X135277358Y-110263053D01*
X135285981Y-110251427D01*
X135295702Y-110240702D01*
X135306427Y-110230981D01*
X135318053Y-110222358D01*
X135330469Y-110214917D01*
X135343554Y-110208728D01*
X135357183Y-110203851D01*
X135371224Y-110200334D01*
X135385542Y-110198210D01*
X135400000Y-110197500D01*
X135745000Y-110197500D01*
X135759458Y-110198210D01*
G37*
G04 #@! TD.AperFunction*
G04 #@! TA.AperFunction,SMDPad,CuDef*
G36*
X135759458Y-109228210D02*
G01*
X135773776Y-109230334D01*
X135787817Y-109233851D01*
X135801446Y-109238728D01*
X135814531Y-109244917D01*
X135826947Y-109252358D01*
X135838573Y-109260981D01*
X135849298Y-109270702D01*
X135859019Y-109281427D01*
X135867642Y-109293053D01*
X135875083Y-109305469D01*
X135881272Y-109318554D01*
X135886149Y-109332183D01*
X135889666Y-109346224D01*
X135891790Y-109360542D01*
X135892500Y-109375000D01*
X135892500Y-109670000D01*
X135891790Y-109684458D01*
X135889666Y-109698776D01*
X135886149Y-109712817D01*
X135881272Y-109726446D01*
X135875083Y-109739531D01*
X135867642Y-109751947D01*
X135859019Y-109763573D01*
X135849298Y-109774298D01*
X135838573Y-109784019D01*
X135826947Y-109792642D01*
X135814531Y-109800083D01*
X135801446Y-109806272D01*
X135787817Y-109811149D01*
X135773776Y-109814666D01*
X135759458Y-109816790D01*
X135745000Y-109817500D01*
X135400000Y-109817500D01*
X135385542Y-109816790D01*
X135371224Y-109814666D01*
X135357183Y-109811149D01*
X135343554Y-109806272D01*
X135330469Y-109800083D01*
X135318053Y-109792642D01*
X135306427Y-109784019D01*
X135295702Y-109774298D01*
X135285981Y-109763573D01*
X135277358Y-109751947D01*
X135269917Y-109739531D01*
X135263728Y-109726446D01*
X135258851Y-109712817D01*
X135255334Y-109698776D01*
X135253210Y-109684458D01*
X135252500Y-109670000D01*
X135252500Y-109375000D01*
X135253210Y-109360542D01*
X135255334Y-109346224D01*
X135258851Y-109332183D01*
X135263728Y-109318554D01*
X135269917Y-109305469D01*
X135277358Y-109293053D01*
X135285981Y-109281427D01*
X135295702Y-109270702D01*
X135306427Y-109260981D01*
X135318053Y-109252358D01*
X135330469Y-109244917D01*
X135343554Y-109238728D01*
X135357183Y-109233851D01*
X135371224Y-109230334D01*
X135385542Y-109228210D01*
X135400000Y-109227500D01*
X135745000Y-109227500D01*
X135759458Y-109228210D01*
G37*
G04 #@! TD.AperFunction*
G04 #@! TA.AperFunction,SMDPad,CuDef*
G36*
X85530958Y-104526710D02*
G01*
X85545276Y-104528834D01*
X85559317Y-104532351D01*
X85572946Y-104537228D01*
X85586031Y-104543417D01*
X85598447Y-104550858D01*
X85610073Y-104559481D01*
X85620798Y-104569202D01*
X85630519Y-104579927D01*
X85639142Y-104591553D01*
X85646583Y-104603969D01*
X85652772Y-104617054D01*
X85657649Y-104630683D01*
X85661166Y-104644724D01*
X85663290Y-104659042D01*
X85664000Y-104673500D01*
X85664000Y-104968500D01*
X85663290Y-104982958D01*
X85661166Y-104997276D01*
X85657649Y-105011317D01*
X85652772Y-105024946D01*
X85646583Y-105038031D01*
X85639142Y-105050447D01*
X85630519Y-105062073D01*
X85620798Y-105072798D01*
X85610073Y-105082519D01*
X85598447Y-105091142D01*
X85586031Y-105098583D01*
X85572946Y-105104772D01*
X85559317Y-105109649D01*
X85545276Y-105113166D01*
X85530958Y-105115290D01*
X85516500Y-105116000D01*
X85171500Y-105116000D01*
X85157042Y-105115290D01*
X85142724Y-105113166D01*
X85128683Y-105109649D01*
X85115054Y-105104772D01*
X85101969Y-105098583D01*
X85089553Y-105091142D01*
X85077927Y-105082519D01*
X85067202Y-105072798D01*
X85057481Y-105062073D01*
X85048858Y-105050447D01*
X85041417Y-105038031D01*
X85035228Y-105024946D01*
X85030351Y-105011317D01*
X85026834Y-104997276D01*
X85024710Y-104982958D01*
X85024000Y-104968500D01*
X85024000Y-104673500D01*
X85024710Y-104659042D01*
X85026834Y-104644724D01*
X85030351Y-104630683D01*
X85035228Y-104617054D01*
X85041417Y-104603969D01*
X85048858Y-104591553D01*
X85057481Y-104579927D01*
X85067202Y-104569202D01*
X85077927Y-104559481D01*
X85089553Y-104550858D01*
X85101969Y-104543417D01*
X85115054Y-104537228D01*
X85128683Y-104532351D01*
X85142724Y-104528834D01*
X85157042Y-104526710D01*
X85171500Y-104526000D01*
X85516500Y-104526000D01*
X85530958Y-104526710D01*
G37*
G04 #@! TD.AperFunction*
G04 #@! TA.AperFunction,SMDPad,CuDef*
G36*
X85530958Y-105496710D02*
G01*
X85545276Y-105498834D01*
X85559317Y-105502351D01*
X85572946Y-105507228D01*
X85586031Y-105513417D01*
X85598447Y-105520858D01*
X85610073Y-105529481D01*
X85620798Y-105539202D01*
X85630519Y-105549927D01*
X85639142Y-105561553D01*
X85646583Y-105573969D01*
X85652772Y-105587054D01*
X85657649Y-105600683D01*
X85661166Y-105614724D01*
X85663290Y-105629042D01*
X85664000Y-105643500D01*
X85664000Y-105938500D01*
X85663290Y-105952958D01*
X85661166Y-105967276D01*
X85657649Y-105981317D01*
X85652772Y-105994946D01*
X85646583Y-106008031D01*
X85639142Y-106020447D01*
X85630519Y-106032073D01*
X85620798Y-106042798D01*
X85610073Y-106052519D01*
X85598447Y-106061142D01*
X85586031Y-106068583D01*
X85572946Y-106074772D01*
X85559317Y-106079649D01*
X85545276Y-106083166D01*
X85530958Y-106085290D01*
X85516500Y-106086000D01*
X85171500Y-106086000D01*
X85157042Y-106085290D01*
X85142724Y-106083166D01*
X85128683Y-106079649D01*
X85115054Y-106074772D01*
X85101969Y-106068583D01*
X85089553Y-106061142D01*
X85077927Y-106052519D01*
X85067202Y-106042798D01*
X85057481Y-106032073D01*
X85048858Y-106020447D01*
X85041417Y-106008031D01*
X85035228Y-105994946D01*
X85030351Y-105981317D01*
X85026834Y-105967276D01*
X85024710Y-105952958D01*
X85024000Y-105938500D01*
X85024000Y-105643500D01*
X85024710Y-105629042D01*
X85026834Y-105614724D01*
X85030351Y-105600683D01*
X85035228Y-105587054D01*
X85041417Y-105573969D01*
X85048858Y-105561553D01*
X85057481Y-105549927D01*
X85067202Y-105539202D01*
X85077927Y-105529481D01*
X85089553Y-105520858D01*
X85101969Y-105513417D01*
X85115054Y-105507228D01*
X85128683Y-105502351D01*
X85142724Y-105498834D01*
X85157042Y-105496710D01*
X85171500Y-105496000D01*
X85516500Y-105496000D01*
X85530958Y-105496710D01*
G37*
G04 #@! TD.AperFunction*
G04 #@! TA.AperFunction,SMDPad,CuDef*
G36*
X82228958Y-105496710D02*
G01*
X82243276Y-105498834D01*
X82257317Y-105502351D01*
X82270946Y-105507228D01*
X82284031Y-105513417D01*
X82296447Y-105520858D01*
X82308073Y-105529481D01*
X82318798Y-105539202D01*
X82328519Y-105549927D01*
X82337142Y-105561553D01*
X82344583Y-105573969D01*
X82350772Y-105587054D01*
X82355649Y-105600683D01*
X82359166Y-105614724D01*
X82361290Y-105629042D01*
X82362000Y-105643500D01*
X82362000Y-105938500D01*
X82361290Y-105952958D01*
X82359166Y-105967276D01*
X82355649Y-105981317D01*
X82350772Y-105994946D01*
X82344583Y-106008031D01*
X82337142Y-106020447D01*
X82328519Y-106032073D01*
X82318798Y-106042798D01*
X82308073Y-106052519D01*
X82296447Y-106061142D01*
X82284031Y-106068583D01*
X82270946Y-106074772D01*
X82257317Y-106079649D01*
X82243276Y-106083166D01*
X82228958Y-106085290D01*
X82214500Y-106086000D01*
X81869500Y-106086000D01*
X81855042Y-106085290D01*
X81840724Y-106083166D01*
X81826683Y-106079649D01*
X81813054Y-106074772D01*
X81799969Y-106068583D01*
X81787553Y-106061142D01*
X81775927Y-106052519D01*
X81765202Y-106042798D01*
X81755481Y-106032073D01*
X81746858Y-106020447D01*
X81739417Y-106008031D01*
X81733228Y-105994946D01*
X81728351Y-105981317D01*
X81724834Y-105967276D01*
X81722710Y-105952958D01*
X81722000Y-105938500D01*
X81722000Y-105643500D01*
X81722710Y-105629042D01*
X81724834Y-105614724D01*
X81728351Y-105600683D01*
X81733228Y-105587054D01*
X81739417Y-105573969D01*
X81746858Y-105561553D01*
X81755481Y-105549927D01*
X81765202Y-105539202D01*
X81775927Y-105529481D01*
X81787553Y-105520858D01*
X81799969Y-105513417D01*
X81813054Y-105507228D01*
X81826683Y-105502351D01*
X81840724Y-105498834D01*
X81855042Y-105496710D01*
X81869500Y-105496000D01*
X82214500Y-105496000D01*
X82228958Y-105496710D01*
G37*
G04 #@! TD.AperFunction*
G04 #@! TA.AperFunction,SMDPad,CuDef*
G36*
X82228958Y-104526710D02*
G01*
X82243276Y-104528834D01*
X82257317Y-104532351D01*
X82270946Y-104537228D01*
X82284031Y-104543417D01*
X82296447Y-104550858D01*
X82308073Y-104559481D01*
X82318798Y-104569202D01*
X82328519Y-104579927D01*
X82337142Y-104591553D01*
X82344583Y-104603969D01*
X82350772Y-104617054D01*
X82355649Y-104630683D01*
X82359166Y-104644724D01*
X82361290Y-104659042D01*
X82362000Y-104673500D01*
X82362000Y-104968500D01*
X82361290Y-104982958D01*
X82359166Y-104997276D01*
X82355649Y-105011317D01*
X82350772Y-105024946D01*
X82344583Y-105038031D01*
X82337142Y-105050447D01*
X82328519Y-105062073D01*
X82318798Y-105072798D01*
X82308073Y-105082519D01*
X82296447Y-105091142D01*
X82284031Y-105098583D01*
X82270946Y-105104772D01*
X82257317Y-105109649D01*
X82243276Y-105113166D01*
X82228958Y-105115290D01*
X82214500Y-105116000D01*
X81869500Y-105116000D01*
X81855042Y-105115290D01*
X81840724Y-105113166D01*
X81826683Y-105109649D01*
X81813054Y-105104772D01*
X81799969Y-105098583D01*
X81787553Y-105091142D01*
X81775927Y-105082519D01*
X81765202Y-105072798D01*
X81755481Y-105062073D01*
X81746858Y-105050447D01*
X81739417Y-105038031D01*
X81733228Y-105024946D01*
X81728351Y-105011317D01*
X81724834Y-104997276D01*
X81722710Y-104982958D01*
X81722000Y-104968500D01*
X81722000Y-104673500D01*
X81722710Y-104659042D01*
X81724834Y-104644724D01*
X81728351Y-104630683D01*
X81733228Y-104617054D01*
X81739417Y-104603969D01*
X81746858Y-104591553D01*
X81755481Y-104579927D01*
X81765202Y-104569202D01*
X81775927Y-104559481D01*
X81787553Y-104550858D01*
X81799969Y-104543417D01*
X81813054Y-104537228D01*
X81826683Y-104532351D01*
X81840724Y-104528834D01*
X81855042Y-104526710D01*
X81869500Y-104526000D01*
X82214500Y-104526000D01*
X82228958Y-104526710D01*
G37*
G04 #@! TD.AperFunction*
G04 #@! TA.AperFunction,SMDPad,CuDef*
G36*
X88832958Y-104526710D02*
G01*
X88847276Y-104528834D01*
X88861317Y-104532351D01*
X88874946Y-104537228D01*
X88888031Y-104543417D01*
X88900447Y-104550858D01*
X88912073Y-104559481D01*
X88922798Y-104569202D01*
X88932519Y-104579927D01*
X88941142Y-104591553D01*
X88948583Y-104603969D01*
X88954772Y-104617054D01*
X88959649Y-104630683D01*
X88963166Y-104644724D01*
X88965290Y-104659042D01*
X88966000Y-104673500D01*
X88966000Y-104968500D01*
X88965290Y-104982958D01*
X88963166Y-104997276D01*
X88959649Y-105011317D01*
X88954772Y-105024946D01*
X88948583Y-105038031D01*
X88941142Y-105050447D01*
X88932519Y-105062073D01*
X88922798Y-105072798D01*
X88912073Y-105082519D01*
X88900447Y-105091142D01*
X88888031Y-105098583D01*
X88874946Y-105104772D01*
X88861317Y-105109649D01*
X88847276Y-105113166D01*
X88832958Y-105115290D01*
X88818500Y-105116000D01*
X88473500Y-105116000D01*
X88459042Y-105115290D01*
X88444724Y-105113166D01*
X88430683Y-105109649D01*
X88417054Y-105104772D01*
X88403969Y-105098583D01*
X88391553Y-105091142D01*
X88379927Y-105082519D01*
X88369202Y-105072798D01*
X88359481Y-105062073D01*
X88350858Y-105050447D01*
X88343417Y-105038031D01*
X88337228Y-105024946D01*
X88332351Y-105011317D01*
X88328834Y-104997276D01*
X88326710Y-104982958D01*
X88326000Y-104968500D01*
X88326000Y-104673500D01*
X88326710Y-104659042D01*
X88328834Y-104644724D01*
X88332351Y-104630683D01*
X88337228Y-104617054D01*
X88343417Y-104603969D01*
X88350858Y-104591553D01*
X88359481Y-104579927D01*
X88369202Y-104569202D01*
X88379927Y-104559481D01*
X88391553Y-104550858D01*
X88403969Y-104543417D01*
X88417054Y-104537228D01*
X88430683Y-104532351D01*
X88444724Y-104528834D01*
X88459042Y-104526710D01*
X88473500Y-104526000D01*
X88818500Y-104526000D01*
X88832958Y-104526710D01*
G37*
G04 #@! TD.AperFunction*
G04 #@! TA.AperFunction,SMDPad,CuDef*
G36*
X88832958Y-105496710D02*
G01*
X88847276Y-105498834D01*
X88861317Y-105502351D01*
X88874946Y-105507228D01*
X88888031Y-105513417D01*
X88900447Y-105520858D01*
X88912073Y-105529481D01*
X88922798Y-105539202D01*
X88932519Y-105549927D01*
X88941142Y-105561553D01*
X88948583Y-105573969D01*
X88954772Y-105587054D01*
X88959649Y-105600683D01*
X88963166Y-105614724D01*
X88965290Y-105629042D01*
X88966000Y-105643500D01*
X88966000Y-105938500D01*
X88965290Y-105952958D01*
X88963166Y-105967276D01*
X88959649Y-105981317D01*
X88954772Y-105994946D01*
X88948583Y-106008031D01*
X88941142Y-106020447D01*
X88932519Y-106032073D01*
X88922798Y-106042798D01*
X88912073Y-106052519D01*
X88900447Y-106061142D01*
X88888031Y-106068583D01*
X88874946Y-106074772D01*
X88861317Y-106079649D01*
X88847276Y-106083166D01*
X88832958Y-106085290D01*
X88818500Y-106086000D01*
X88473500Y-106086000D01*
X88459042Y-106085290D01*
X88444724Y-106083166D01*
X88430683Y-106079649D01*
X88417054Y-106074772D01*
X88403969Y-106068583D01*
X88391553Y-106061142D01*
X88379927Y-106052519D01*
X88369202Y-106042798D01*
X88359481Y-106032073D01*
X88350858Y-106020447D01*
X88343417Y-106008031D01*
X88337228Y-105994946D01*
X88332351Y-105981317D01*
X88328834Y-105967276D01*
X88326710Y-105952958D01*
X88326000Y-105938500D01*
X88326000Y-105643500D01*
X88326710Y-105629042D01*
X88328834Y-105614724D01*
X88332351Y-105600683D01*
X88337228Y-105587054D01*
X88343417Y-105573969D01*
X88350858Y-105561553D01*
X88359481Y-105549927D01*
X88369202Y-105539202D01*
X88379927Y-105529481D01*
X88391553Y-105520858D01*
X88403969Y-105513417D01*
X88417054Y-105507228D01*
X88430683Y-105502351D01*
X88444724Y-105498834D01*
X88459042Y-105496710D01*
X88473500Y-105496000D01*
X88818500Y-105496000D01*
X88832958Y-105496710D01*
G37*
G04 #@! TD.AperFunction*
G04 #@! TA.AperFunction,SMDPad,CuDef*
G36*
X92134958Y-105496710D02*
G01*
X92149276Y-105498834D01*
X92163317Y-105502351D01*
X92176946Y-105507228D01*
X92190031Y-105513417D01*
X92202447Y-105520858D01*
X92214073Y-105529481D01*
X92224798Y-105539202D01*
X92234519Y-105549927D01*
X92243142Y-105561553D01*
X92250583Y-105573969D01*
X92256772Y-105587054D01*
X92261649Y-105600683D01*
X92265166Y-105614724D01*
X92267290Y-105629042D01*
X92268000Y-105643500D01*
X92268000Y-105938500D01*
X92267290Y-105952958D01*
X92265166Y-105967276D01*
X92261649Y-105981317D01*
X92256772Y-105994946D01*
X92250583Y-106008031D01*
X92243142Y-106020447D01*
X92234519Y-106032073D01*
X92224798Y-106042798D01*
X92214073Y-106052519D01*
X92202447Y-106061142D01*
X92190031Y-106068583D01*
X92176946Y-106074772D01*
X92163317Y-106079649D01*
X92149276Y-106083166D01*
X92134958Y-106085290D01*
X92120500Y-106086000D01*
X91775500Y-106086000D01*
X91761042Y-106085290D01*
X91746724Y-106083166D01*
X91732683Y-106079649D01*
X91719054Y-106074772D01*
X91705969Y-106068583D01*
X91693553Y-106061142D01*
X91681927Y-106052519D01*
X91671202Y-106042798D01*
X91661481Y-106032073D01*
X91652858Y-106020447D01*
X91645417Y-106008031D01*
X91639228Y-105994946D01*
X91634351Y-105981317D01*
X91630834Y-105967276D01*
X91628710Y-105952958D01*
X91628000Y-105938500D01*
X91628000Y-105643500D01*
X91628710Y-105629042D01*
X91630834Y-105614724D01*
X91634351Y-105600683D01*
X91639228Y-105587054D01*
X91645417Y-105573969D01*
X91652858Y-105561553D01*
X91661481Y-105549927D01*
X91671202Y-105539202D01*
X91681927Y-105529481D01*
X91693553Y-105520858D01*
X91705969Y-105513417D01*
X91719054Y-105507228D01*
X91732683Y-105502351D01*
X91746724Y-105498834D01*
X91761042Y-105496710D01*
X91775500Y-105496000D01*
X92120500Y-105496000D01*
X92134958Y-105496710D01*
G37*
G04 #@! TD.AperFunction*
G04 #@! TA.AperFunction,SMDPad,CuDef*
G36*
X92134958Y-104526710D02*
G01*
X92149276Y-104528834D01*
X92163317Y-104532351D01*
X92176946Y-104537228D01*
X92190031Y-104543417D01*
X92202447Y-104550858D01*
X92214073Y-104559481D01*
X92224798Y-104569202D01*
X92234519Y-104579927D01*
X92243142Y-104591553D01*
X92250583Y-104603969D01*
X92256772Y-104617054D01*
X92261649Y-104630683D01*
X92265166Y-104644724D01*
X92267290Y-104659042D01*
X92268000Y-104673500D01*
X92268000Y-104968500D01*
X92267290Y-104982958D01*
X92265166Y-104997276D01*
X92261649Y-105011317D01*
X92256772Y-105024946D01*
X92250583Y-105038031D01*
X92243142Y-105050447D01*
X92234519Y-105062073D01*
X92224798Y-105072798D01*
X92214073Y-105082519D01*
X92202447Y-105091142D01*
X92190031Y-105098583D01*
X92176946Y-105104772D01*
X92163317Y-105109649D01*
X92149276Y-105113166D01*
X92134958Y-105115290D01*
X92120500Y-105116000D01*
X91775500Y-105116000D01*
X91761042Y-105115290D01*
X91746724Y-105113166D01*
X91732683Y-105109649D01*
X91719054Y-105104772D01*
X91705969Y-105098583D01*
X91693553Y-105091142D01*
X91681927Y-105082519D01*
X91671202Y-105072798D01*
X91661481Y-105062073D01*
X91652858Y-105050447D01*
X91645417Y-105038031D01*
X91639228Y-105024946D01*
X91634351Y-105011317D01*
X91630834Y-104997276D01*
X91628710Y-104982958D01*
X91628000Y-104968500D01*
X91628000Y-104673500D01*
X91628710Y-104659042D01*
X91630834Y-104644724D01*
X91634351Y-104630683D01*
X91639228Y-104617054D01*
X91645417Y-104603969D01*
X91652858Y-104591553D01*
X91661481Y-104579927D01*
X91671202Y-104569202D01*
X91681927Y-104559481D01*
X91693553Y-104550858D01*
X91705969Y-104543417D01*
X91719054Y-104537228D01*
X91732683Y-104532351D01*
X91746724Y-104528834D01*
X91761042Y-104526710D01*
X91775500Y-104526000D01*
X92120500Y-104526000D01*
X92134958Y-104526710D01*
G37*
G04 #@! TD.AperFunction*
G04 #@! TA.AperFunction,SMDPad,CuDef*
G36*
X107776958Y-91247710D02*
G01*
X107791276Y-91249834D01*
X107805317Y-91253351D01*
X107818946Y-91258228D01*
X107832031Y-91264417D01*
X107844447Y-91271858D01*
X107856073Y-91280481D01*
X107866798Y-91290202D01*
X107876519Y-91300927D01*
X107885142Y-91312553D01*
X107892583Y-91324969D01*
X107898772Y-91338054D01*
X107903649Y-91351683D01*
X107907166Y-91365724D01*
X107909290Y-91380042D01*
X107910000Y-91394500D01*
X107910000Y-91739500D01*
X107909290Y-91753958D01*
X107907166Y-91768276D01*
X107903649Y-91782317D01*
X107898772Y-91795946D01*
X107892583Y-91809031D01*
X107885142Y-91821447D01*
X107876519Y-91833073D01*
X107866798Y-91843798D01*
X107856073Y-91853519D01*
X107844447Y-91862142D01*
X107832031Y-91869583D01*
X107818946Y-91875772D01*
X107805317Y-91880649D01*
X107791276Y-91884166D01*
X107776958Y-91886290D01*
X107762500Y-91887000D01*
X107467500Y-91887000D01*
X107453042Y-91886290D01*
X107438724Y-91884166D01*
X107424683Y-91880649D01*
X107411054Y-91875772D01*
X107397969Y-91869583D01*
X107385553Y-91862142D01*
X107373927Y-91853519D01*
X107363202Y-91843798D01*
X107353481Y-91833073D01*
X107344858Y-91821447D01*
X107337417Y-91809031D01*
X107331228Y-91795946D01*
X107326351Y-91782317D01*
X107322834Y-91768276D01*
X107320710Y-91753958D01*
X107320000Y-91739500D01*
X107320000Y-91394500D01*
X107320710Y-91380042D01*
X107322834Y-91365724D01*
X107326351Y-91351683D01*
X107331228Y-91338054D01*
X107337417Y-91324969D01*
X107344858Y-91312553D01*
X107353481Y-91300927D01*
X107363202Y-91290202D01*
X107373927Y-91280481D01*
X107385553Y-91271858D01*
X107397969Y-91264417D01*
X107411054Y-91258228D01*
X107424683Y-91253351D01*
X107438724Y-91249834D01*
X107453042Y-91247710D01*
X107467500Y-91247000D01*
X107762500Y-91247000D01*
X107776958Y-91247710D01*
G37*
G04 #@! TD.AperFunction*
G04 #@! TA.AperFunction,SMDPad,CuDef*
G36*
X108746958Y-91247710D02*
G01*
X108761276Y-91249834D01*
X108775317Y-91253351D01*
X108788946Y-91258228D01*
X108802031Y-91264417D01*
X108814447Y-91271858D01*
X108826073Y-91280481D01*
X108836798Y-91290202D01*
X108846519Y-91300927D01*
X108855142Y-91312553D01*
X108862583Y-91324969D01*
X108868772Y-91338054D01*
X108873649Y-91351683D01*
X108877166Y-91365724D01*
X108879290Y-91380042D01*
X108880000Y-91394500D01*
X108880000Y-91739500D01*
X108879290Y-91753958D01*
X108877166Y-91768276D01*
X108873649Y-91782317D01*
X108868772Y-91795946D01*
X108862583Y-91809031D01*
X108855142Y-91821447D01*
X108846519Y-91833073D01*
X108836798Y-91843798D01*
X108826073Y-91853519D01*
X108814447Y-91862142D01*
X108802031Y-91869583D01*
X108788946Y-91875772D01*
X108775317Y-91880649D01*
X108761276Y-91884166D01*
X108746958Y-91886290D01*
X108732500Y-91887000D01*
X108437500Y-91887000D01*
X108423042Y-91886290D01*
X108408724Y-91884166D01*
X108394683Y-91880649D01*
X108381054Y-91875772D01*
X108367969Y-91869583D01*
X108355553Y-91862142D01*
X108343927Y-91853519D01*
X108333202Y-91843798D01*
X108323481Y-91833073D01*
X108314858Y-91821447D01*
X108307417Y-91809031D01*
X108301228Y-91795946D01*
X108296351Y-91782317D01*
X108292834Y-91768276D01*
X108290710Y-91753958D01*
X108290000Y-91739500D01*
X108290000Y-91394500D01*
X108290710Y-91380042D01*
X108292834Y-91365724D01*
X108296351Y-91351683D01*
X108301228Y-91338054D01*
X108307417Y-91324969D01*
X108314858Y-91312553D01*
X108323481Y-91300927D01*
X108333202Y-91290202D01*
X108343927Y-91280481D01*
X108355553Y-91271858D01*
X108367969Y-91264417D01*
X108381054Y-91258228D01*
X108394683Y-91253351D01*
X108408724Y-91249834D01*
X108423042Y-91247710D01*
X108437500Y-91247000D01*
X108732500Y-91247000D01*
X108746958Y-91247710D01*
G37*
G04 #@! TD.AperFunction*
G04 #@! TA.AperFunction,SMDPad,CuDef*
G36*
X108746958Y-89342710D02*
G01*
X108761276Y-89344834D01*
X108775317Y-89348351D01*
X108788946Y-89353228D01*
X108802031Y-89359417D01*
X108814447Y-89366858D01*
X108826073Y-89375481D01*
X108836798Y-89385202D01*
X108846519Y-89395927D01*
X108855142Y-89407553D01*
X108862583Y-89419969D01*
X108868772Y-89433054D01*
X108873649Y-89446683D01*
X108877166Y-89460724D01*
X108879290Y-89475042D01*
X108880000Y-89489500D01*
X108880000Y-89834500D01*
X108879290Y-89848958D01*
X108877166Y-89863276D01*
X108873649Y-89877317D01*
X108868772Y-89890946D01*
X108862583Y-89904031D01*
X108855142Y-89916447D01*
X108846519Y-89928073D01*
X108836798Y-89938798D01*
X108826073Y-89948519D01*
X108814447Y-89957142D01*
X108802031Y-89964583D01*
X108788946Y-89970772D01*
X108775317Y-89975649D01*
X108761276Y-89979166D01*
X108746958Y-89981290D01*
X108732500Y-89982000D01*
X108437500Y-89982000D01*
X108423042Y-89981290D01*
X108408724Y-89979166D01*
X108394683Y-89975649D01*
X108381054Y-89970772D01*
X108367969Y-89964583D01*
X108355553Y-89957142D01*
X108343927Y-89948519D01*
X108333202Y-89938798D01*
X108323481Y-89928073D01*
X108314858Y-89916447D01*
X108307417Y-89904031D01*
X108301228Y-89890946D01*
X108296351Y-89877317D01*
X108292834Y-89863276D01*
X108290710Y-89848958D01*
X108290000Y-89834500D01*
X108290000Y-89489500D01*
X108290710Y-89475042D01*
X108292834Y-89460724D01*
X108296351Y-89446683D01*
X108301228Y-89433054D01*
X108307417Y-89419969D01*
X108314858Y-89407553D01*
X108323481Y-89395927D01*
X108333202Y-89385202D01*
X108343927Y-89375481D01*
X108355553Y-89366858D01*
X108367969Y-89359417D01*
X108381054Y-89353228D01*
X108394683Y-89348351D01*
X108408724Y-89344834D01*
X108423042Y-89342710D01*
X108437500Y-89342000D01*
X108732500Y-89342000D01*
X108746958Y-89342710D01*
G37*
G04 #@! TD.AperFunction*
G04 #@! TA.AperFunction,SMDPad,CuDef*
G36*
X107776958Y-89342710D02*
G01*
X107791276Y-89344834D01*
X107805317Y-89348351D01*
X107818946Y-89353228D01*
X107832031Y-89359417D01*
X107844447Y-89366858D01*
X107856073Y-89375481D01*
X107866798Y-89385202D01*
X107876519Y-89395927D01*
X107885142Y-89407553D01*
X107892583Y-89419969D01*
X107898772Y-89433054D01*
X107903649Y-89446683D01*
X107907166Y-89460724D01*
X107909290Y-89475042D01*
X107910000Y-89489500D01*
X107910000Y-89834500D01*
X107909290Y-89848958D01*
X107907166Y-89863276D01*
X107903649Y-89877317D01*
X107898772Y-89890946D01*
X107892583Y-89904031D01*
X107885142Y-89916447D01*
X107876519Y-89928073D01*
X107866798Y-89938798D01*
X107856073Y-89948519D01*
X107844447Y-89957142D01*
X107832031Y-89964583D01*
X107818946Y-89970772D01*
X107805317Y-89975649D01*
X107791276Y-89979166D01*
X107776958Y-89981290D01*
X107762500Y-89982000D01*
X107467500Y-89982000D01*
X107453042Y-89981290D01*
X107438724Y-89979166D01*
X107424683Y-89975649D01*
X107411054Y-89970772D01*
X107397969Y-89964583D01*
X107385553Y-89957142D01*
X107373927Y-89948519D01*
X107363202Y-89938798D01*
X107353481Y-89928073D01*
X107344858Y-89916447D01*
X107337417Y-89904031D01*
X107331228Y-89890946D01*
X107326351Y-89877317D01*
X107322834Y-89863276D01*
X107320710Y-89848958D01*
X107320000Y-89834500D01*
X107320000Y-89489500D01*
X107320710Y-89475042D01*
X107322834Y-89460724D01*
X107326351Y-89446683D01*
X107331228Y-89433054D01*
X107337417Y-89419969D01*
X107344858Y-89407553D01*
X107353481Y-89395927D01*
X107363202Y-89385202D01*
X107373927Y-89375481D01*
X107385553Y-89366858D01*
X107397969Y-89359417D01*
X107411054Y-89353228D01*
X107424683Y-89348351D01*
X107438724Y-89344834D01*
X107453042Y-89342710D01*
X107467500Y-89342000D01*
X107762500Y-89342000D01*
X107776958Y-89342710D01*
G37*
G04 #@! TD.AperFunction*
G04 #@! TA.AperFunction,SMDPad,CuDef*
G36*
X102294958Y-72453710D02*
G01*
X102309276Y-72455834D01*
X102323317Y-72459351D01*
X102336946Y-72464228D01*
X102350031Y-72470417D01*
X102362447Y-72477858D01*
X102374073Y-72486481D01*
X102384798Y-72496202D01*
X102394519Y-72506927D01*
X102403142Y-72518553D01*
X102410583Y-72530969D01*
X102416772Y-72544054D01*
X102421649Y-72557683D01*
X102425166Y-72571724D01*
X102427290Y-72586042D01*
X102428000Y-72600500D01*
X102428000Y-72895500D01*
X102427290Y-72909958D01*
X102425166Y-72924276D01*
X102421649Y-72938317D01*
X102416772Y-72951946D01*
X102410583Y-72965031D01*
X102403142Y-72977447D01*
X102394519Y-72989073D01*
X102384798Y-72999798D01*
X102374073Y-73009519D01*
X102362447Y-73018142D01*
X102350031Y-73025583D01*
X102336946Y-73031772D01*
X102323317Y-73036649D01*
X102309276Y-73040166D01*
X102294958Y-73042290D01*
X102280500Y-73043000D01*
X101935500Y-73043000D01*
X101921042Y-73042290D01*
X101906724Y-73040166D01*
X101892683Y-73036649D01*
X101879054Y-73031772D01*
X101865969Y-73025583D01*
X101853553Y-73018142D01*
X101841927Y-73009519D01*
X101831202Y-72999798D01*
X101821481Y-72989073D01*
X101812858Y-72977447D01*
X101805417Y-72965031D01*
X101799228Y-72951946D01*
X101794351Y-72938317D01*
X101790834Y-72924276D01*
X101788710Y-72909958D01*
X101788000Y-72895500D01*
X101788000Y-72600500D01*
X101788710Y-72586042D01*
X101790834Y-72571724D01*
X101794351Y-72557683D01*
X101799228Y-72544054D01*
X101805417Y-72530969D01*
X101812858Y-72518553D01*
X101821481Y-72506927D01*
X101831202Y-72496202D01*
X101841927Y-72486481D01*
X101853553Y-72477858D01*
X101865969Y-72470417D01*
X101879054Y-72464228D01*
X101892683Y-72459351D01*
X101906724Y-72455834D01*
X101921042Y-72453710D01*
X101935500Y-72453000D01*
X102280500Y-72453000D01*
X102294958Y-72453710D01*
G37*
G04 #@! TD.AperFunction*
G04 #@! TA.AperFunction,SMDPad,CuDef*
G36*
X102294958Y-71483710D02*
G01*
X102309276Y-71485834D01*
X102323317Y-71489351D01*
X102336946Y-71494228D01*
X102350031Y-71500417D01*
X102362447Y-71507858D01*
X102374073Y-71516481D01*
X102384798Y-71526202D01*
X102394519Y-71536927D01*
X102403142Y-71548553D01*
X102410583Y-71560969D01*
X102416772Y-71574054D01*
X102421649Y-71587683D01*
X102425166Y-71601724D01*
X102427290Y-71616042D01*
X102428000Y-71630500D01*
X102428000Y-71925500D01*
X102427290Y-71939958D01*
X102425166Y-71954276D01*
X102421649Y-71968317D01*
X102416772Y-71981946D01*
X102410583Y-71995031D01*
X102403142Y-72007447D01*
X102394519Y-72019073D01*
X102384798Y-72029798D01*
X102374073Y-72039519D01*
X102362447Y-72048142D01*
X102350031Y-72055583D01*
X102336946Y-72061772D01*
X102323317Y-72066649D01*
X102309276Y-72070166D01*
X102294958Y-72072290D01*
X102280500Y-72073000D01*
X101935500Y-72073000D01*
X101921042Y-72072290D01*
X101906724Y-72070166D01*
X101892683Y-72066649D01*
X101879054Y-72061772D01*
X101865969Y-72055583D01*
X101853553Y-72048142D01*
X101841927Y-72039519D01*
X101831202Y-72029798D01*
X101821481Y-72019073D01*
X101812858Y-72007447D01*
X101805417Y-71995031D01*
X101799228Y-71981946D01*
X101794351Y-71968317D01*
X101790834Y-71954276D01*
X101788710Y-71939958D01*
X101788000Y-71925500D01*
X101788000Y-71630500D01*
X101788710Y-71616042D01*
X101790834Y-71601724D01*
X101794351Y-71587683D01*
X101799228Y-71574054D01*
X101805417Y-71560969D01*
X101812858Y-71548553D01*
X101821481Y-71536927D01*
X101831202Y-71526202D01*
X101841927Y-71516481D01*
X101853553Y-71507858D01*
X101865969Y-71500417D01*
X101879054Y-71494228D01*
X101892683Y-71489351D01*
X101906724Y-71485834D01*
X101921042Y-71483710D01*
X101935500Y-71483000D01*
X102280500Y-71483000D01*
X102294958Y-71483710D01*
G37*
G04 #@! TD.AperFunction*
G04 #@! TA.AperFunction,SMDPad,CuDef*
G36*
X98484958Y-74081710D02*
G01*
X98499276Y-74083834D01*
X98513317Y-74087351D01*
X98526946Y-74092228D01*
X98540031Y-74098417D01*
X98552447Y-74105858D01*
X98564073Y-74114481D01*
X98574798Y-74124202D01*
X98584519Y-74134927D01*
X98593142Y-74146553D01*
X98600583Y-74158969D01*
X98606772Y-74172054D01*
X98611649Y-74185683D01*
X98615166Y-74199724D01*
X98617290Y-74214042D01*
X98618000Y-74228500D01*
X98618000Y-74523500D01*
X98617290Y-74537958D01*
X98615166Y-74552276D01*
X98611649Y-74566317D01*
X98606772Y-74579946D01*
X98600583Y-74593031D01*
X98593142Y-74605447D01*
X98584519Y-74617073D01*
X98574798Y-74627798D01*
X98564073Y-74637519D01*
X98552447Y-74646142D01*
X98540031Y-74653583D01*
X98526946Y-74659772D01*
X98513317Y-74664649D01*
X98499276Y-74668166D01*
X98484958Y-74670290D01*
X98470500Y-74671000D01*
X98125500Y-74671000D01*
X98111042Y-74670290D01*
X98096724Y-74668166D01*
X98082683Y-74664649D01*
X98069054Y-74659772D01*
X98055969Y-74653583D01*
X98043553Y-74646142D01*
X98031927Y-74637519D01*
X98021202Y-74627798D01*
X98011481Y-74617073D01*
X98002858Y-74605447D01*
X97995417Y-74593031D01*
X97989228Y-74579946D01*
X97984351Y-74566317D01*
X97980834Y-74552276D01*
X97978710Y-74537958D01*
X97978000Y-74523500D01*
X97978000Y-74228500D01*
X97978710Y-74214042D01*
X97980834Y-74199724D01*
X97984351Y-74185683D01*
X97989228Y-74172054D01*
X97995417Y-74158969D01*
X98002858Y-74146553D01*
X98011481Y-74134927D01*
X98021202Y-74124202D01*
X98031927Y-74114481D01*
X98043553Y-74105858D01*
X98055969Y-74098417D01*
X98069054Y-74092228D01*
X98082683Y-74087351D01*
X98096724Y-74083834D01*
X98111042Y-74081710D01*
X98125500Y-74081000D01*
X98470500Y-74081000D01*
X98484958Y-74081710D01*
G37*
G04 #@! TD.AperFunction*
G04 #@! TA.AperFunction,SMDPad,CuDef*
G36*
X98484958Y-73111710D02*
G01*
X98499276Y-73113834D01*
X98513317Y-73117351D01*
X98526946Y-73122228D01*
X98540031Y-73128417D01*
X98552447Y-73135858D01*
X98564073Y-73144481D01*
X98574798Y-73154202D01*
X98584519Y-73164927D01*
X98593142Y-73176553D01*
X98600583Y-73188969D01*
X98606772Y-73202054D01*
X98611649Y-73215683D01*
X98615166Y-73229724D01*
X98617290Y-73244042D01*
X98618000Y-73258500D01*
X98618000Y-73553500D01*
X98617290Y-73567958D01*
X98615166Y-73582276D01*
X98611649Y-73596317D01*
X98606772Y-73609946D01*
X98600583Y-73623031D01*
X98593142Y-73635447D01*
X98584519Y-73647073D01*
X98574798Y-73657798D01*
X98564073Y-73667519D01*
X98552447Y-73676142D01*
X98540031Y-73683583D01*
X98526946Y-73689772D01*
X98513317Y-73694649D01*
X98499276Y-73698166D01*
X98484958Y-73700290D01*
X98470500Y-73701000D01*
X98125500Y-73701000D01*
X98111042Y-73700290D01*
X98096724Y-73698166D01*
X98082683Y-73694649D01*
X98069054Y-73689772D01*
X98055969Y-73683583D01*
X98043553Y-73676142D01*
X98031927Y-73667519D01*
X98021202Y-73657798D01*
X98011481Y-73647073D01*
X98002858Y-73635447D01*
X97995417Y-73623031D01*
X97989228Y-73609946D01*
X97984351Y-73596317D01*
X97980834Y-73582276D01*
X97978710Y-73567958D01*
X97978000Y-73553500D01*
X97978000Y-73258500D01*
X97978710Y-73244042D01*
X97980834Y-73229724D01*
X97984351Y-73215683D01*
X97989228Y-73202054D01*
X97995417Y-73188969D01*
X98002858Y-73176553D01*
X98011481Y-73164927D01*
X98021202Y-73154202D01*
X98031927Y-73144481D01*
X98043553Y-73135858D01*
X98055969Y-73128417D01*
X98069054Y-73122228D01*
X98082683Y-73117351D01*
X98096724Y-73113834D01*
X98111042Y-73111710D01*
X98125500Y-73111000D01*
X98470500Y-73111000D01*
X98484958Y-73111710D01*
G37*
G04 #@! TD.AperFunction*
D23*
X121980000Y-74000000D03*
X124500000Y-72000000D03*
X124500000Y-71000000D03*
X124500000Y-69500000D03*
X124500000Y-68000000D03*
X103124000Y-72644000D03*
X106172000Y-78613000D03*
X114046000Y-86233000D03*
X129032000Y-114808000D03*
X131064000Y-114808000D03*
X133350000Y-114681000D03*
X135636000Y-114681000D03*
X135001000Y-103251000D03*
X131699000Y-103251000D03*
X138303000Y-103251000D03*
X141605000Y-103251000D03*
X80391000Y-103124000D03*
X83693000Y-103124000D03*
X86995000Y-103124000D03*
X90297000Y-103124000D03*
X115769555Y-92129443D03*
X98298000Y-72644000D03*
X106807000Y-89662000D03*
X131064000Y-108679000D03*
X128910373Y-106674627D03*
X114554000Y-91186000D03*
X113792000Y-81788000D03*
X115951000Y-83820000D03*
X114840999Y-81788000D03*
X115316000Y-83820000D03*
X115697000Y-81788000D03*
X116586000Y-83820000D03*
X116586000Y-81788000D03*
X102997000Y-78740000D03*
X92075000Y-103759000D03*
X104902000Y-78740000D03*
X82042000Y-103632000D03*
X103632000Y-78740000D03*
X88646000Y-103759000D03*
X104267000Y-78740000D03*
X110236000Y-70612000D03*
X85344000Y-103759000D03*
X133223000Y-107315000D03*
X133223000Y-108679000D03*
X115316000Y-91186000D03*
X118364000Y-91185998D03*
X115916003Y-91186000D03*
X117221000Y-83820000D03*
X117602000Y-81788000D03*
X101727000Y-80899000D03*
X107315000Y-82804000D03*
X112776000Y-81915000D03*
X106807000Y-78613000D03*
X113284000Y-86233000D03*
X102108046Y-70993000D03*
X106807000Y-91440000D03*
X123317000Y-82423000D03*
X121666000Y-84963000D03*
X101046879Y-77896112D03*
X98933000Y-85598000D03*
X117094000Y-91186000D03*
X109601000Y-89789000D03*
X100965000Y-88519000D03*
X117729000Y-91186000D03*
X109601000Y-91567000D03*
X99695000Y-90551000D03*
X99314000Y-73533000D03*
X103124000Y-71628000D03*
D24*
X121062500Y-74000000D02*
X121980000Y-74000000D01*
X122800000Y-72005000D02*
X124495000Y-72005000D01*
X124495000Y-72005000D02*
X124500000Y-72000000D01*
X122800000Y-70735000D02*
X124235000Y-70735000D01*
X124235000Y-70735000D02*
X124500000Y-71000000D01*
X122800000Y-69465000D02*
X124465000Y-69465000D01*
X124465000Y-69465000D02*
X124500000Y-69500000D01*
X122800000Y-68195000D02*
X124305000Y-68195000D01*
X124305000Y-68195000D02*
X124500000Y-68000000D01*
D25*
X103251000Y-72517000D02*
X103124000Y-72644000D01*
X104036000Y-72517000D02*
X103251000Y-72517000D01*
X106083500Y-78701500D02*
X106172000Y-78613000D01*
X106083500Y-79731500D02*
X106083500Y-78701500D01*
X113987500Y-86174500D02*
X114046000Y-86233000D01*
X113987500Y-84914000D02*
X113987500Y-86174500D01*
X131127500Y-113843000D02*
X131127500Y-114617500D01*
X131000500Y-114744500D02*
X131064000Y-114808000D01*
X133286500Y-114617500D02*
X133350000Y-114681000D01*
X133286500Y-113843000D02*
X133286500Y-114617500D01*
X135572500Y-114617500D02*
X135636000Y-114681000D01*
X135572500Y-113843000D02*
X135572500Y-114617500D01*
X131699000Y-104152500D02*
X131699000Y-103251000D01*
X135001000Y-104152500D02*
X135001000Y-103251000D01*
X138303000Y-104152500D02*
X138303000Y-103251000D01*
X141605000Y-104152500D02*
X141605000Y-103251000D01*
X80391000Y-104216000D02*
X80391000Y-103124000D01*
X83693000Y-104216000D02*
X83693000Y-103124000D01*
X86995000Y-104241500D02*
X86995000Y-103124000D01*
X90297000Y-104216000D02*
X90297000Y-103124000D01*
X115715112Y-92075000D02*
X115769555Y-92129443D01*
X115062000Y-92075000D02*
X115715112Y-92075000D01*
X128968500Y-113843000D02*
X128968500Y-114744500D01*
X98298000Y-73406000D02*
X98298000Y-72644000D01*
X107615000Y-89662000D02*
X106807000Y-89662000D01*
X119940000Y-67283400D02*
X119028400Y-68195000D01*
X119028400Y-68195000D02*
X117400000Y-68195000D01*
X119940000Y-65590000D02*
X119940000Y-67283400D01*
X117400000Y-68195000D02*
X115457500Y-68195000D01*
X115457500Y-68195000D02*
X115362500Y-68100000D01*
X115695000Y-68295000D02*
X115500000Y-68100000D01*
X121218960Y-66860420D02*
X118614380Y-69465000D01*
X118614380Y-69465000D02*
X117400000Y-69465000D01*
X121218960Y-64328960D02*
X121218960Y-66860420D01*
X119940000Y-63050000D02*
X121218960Y-64328960D01*
X117400000Y-69465000D02*
X115597500Y-69465000D01*
X115597500Y-69465000D02*
X115362500Y-69700000D01*
X119940000Y-63050000D02*
X119850000Y-63050000D01*
X115635000Y-69565000D02*
X115500000Y-69700000D01*
X113300000Y-69700000D02*
X113300000Y-71400000D01*
X113300000Y-68100000D02*
X113300000Y-69700000D01*
X113300000Y-71600000D02*
X113300000Y-71400000D01*
X114200000Y-72500000D02*
X113300000Y-71600000D01*
X116200000Y-72500000D02*
X114200000Y-72500000D01*
X116695000Y-72005000D02*
X116200000Y-72500000D01*
X117400000Y-72005000D02*
X116695000Y-72005000D01*
X115500000Y-71400000D02*
X115800000Y-71400000D01*
X116640000Y-74000000D02*
X116240000Y-74400000D01*
X118750000Y-74000000D02*
X116640000Y-74000000D01*
X116100000Y-71400000D02*
X115500000Y-71400000D01*
X116765000Y-70735000D02*
X116100000Y-71400000D01*
X117400000Y-70735000D02*
X116765000Y-70735000D01*
X118750000Y-71050000D02*
X118435000Y-70735000D01*
X118435000Y-70735000D02*
X117400000Y-70735000D01*
X118750000Y-74000000D02*
X118750000Y-71050000D01*
X111447500Y-91925500D02*
X111298000Y-92075000D01*
X111447500Y-90114000D02*
X111447500Y-91925500D01*
X113928500Y-92075000D02*
X114092000Y-92075000D01*
X112717500Y-90864000D02*
X113928500Y-92075000D01*
X112717500Y-90114000D02*
X112717500Y-90864000D01*
X110551000Y-77359000D02*
X110871000Y-77359000D01*
X108976000Y-77359000D02*
X110551000Y-77359000D01*
X107353500Y-78981500D02*
X108976000Y-77359000D01*
X107353500Y-79731500D02*
X107353500Y-78981500D01*
X106089000Y-72517000D02*
X105301000Y-72517000D01*
X107353500Y-73781500D02*
X106089000Y-72517000D01*
X105301000Y-72517000D02*
X105006000Y-72517000D01*
X107353500Y-74531500D02*
X107353500Y-73781500D01*
D26*
X127000000Y-78359000D02*
X128524000Y-76835000D01*
X123571000Y-83058000D02*
X127000000Y-79629000D01*
X119538498Y-83058000D02*
X123571000Y-83058000D01*
X127000000Y-79629000D02*
X127000000Y-78359000D01*
X118542499Y-84053999D02*
X119538498Y-83058000D01*
X118432500Y-84914000D02*
X118542499Y-84914000D01*
X118542499Y-84914000D02*
X118542499Y-84053999D01*
X124587000Y-88773000D02*
X124587000Y-93599000D01*
X127674001Y-96686001D02*
X128524000Y-97536000D01*
X117797500Y-85764000D02*
X118266500Y-86233000D01*
X124587000Y-93599000D02*
X127674001Y-96686001D01*
X117797500Y-84914000D02*
X117797500Y-85764000D01*
X118266500Y-86233000D02*
X122047000Y-86233000D01*
X122047000Y-86233000D02*
X124587000Y-88773000D01*
X104227999Y-98464001D02*
X103378000Y-99314000D01*
X104902000Y-97790000D02*
X104227999Y-98464001D01*
X111125000Y-97790000D02*
X104902000Y-97790000D01*
X116527500Y-92387500D02*
X111125000Y-97790000D01*
X116527500Y-90114000D02*
X116527500Y-92387500D01*
X119702500Y-92016500D02*
X119702500Y-90114000D01*
X120523000Y-92837000D02*
X119702500Y-92016500D01*
X120523000Y-97917000D02*
X120523000Y-92837000D01*
X119126000Y-99314000D02*
X120523000Y-97917000D01*
D25*
X131064000Y-109535000D02*
X131127500Y-109598500D01*
X131064000Y-108679000D02*
X131064000Y-109535000D01*
X114622500Y-91117500D02*
X114554000Y-91186000D01*
X114622500Y-90114000D02*
X114622500Y-91117500D01*
X122551960Y-100316214D02*
X128710374Y-106474628D01*
X115797528Y-88188972D02*
X121081968Y-88188972D01*
X114622500Y-90114000D02*
X114622500Y-89364000D01*
X128710374Y-106474628D02*
X128910373Y-106674627D01*
X114622500Y-89364000D02*
X115797528Y-88188972D01*
X121081968Y-88188972D02*
X122551960Y-89658964D01*
X122551960Y-89658964D02*
X122551960Y-100316214D01*
X95389999Y-66439999D02*
X94540000Y-65590000D01*
X104662260Y-67818000D02*
X96768000Y-67818000D01*
X96768000Y-67818000D02*
X95389999Y-66439999D01*
X113991999Y-79378239D02*
X109347000Y-74733240D01*
X109347000Y-74733240D02*
X109347000Y-72502740D01*
X109347000Y-72502740D02*
X104662260Y-67818000D01*
X113991999Y-81588001D02*
X113991999Y-79378239D01*
X113792000Y-81788000D02*
X113991999Y-81588001D01*
X115892500Y-83878500D02*
X115951000Y-83820000D01*
X115892500Y-84914000D02*
X115892500Y-83878500D01*
X133350000Y-103505000D02*
X133350000Y-104607000D01*
X133350000Y-104607000D02*
X133350000Y-104902000D01*
X132557010Y-102712010D02*
X133350000Y-103505000D01*
X128011036Y-102712010D02*
X132557010Y-102712010D01*
X123251980Y-97952954D02*
X128011036Y-102712010D01*
X121258976Y-87376000D02*
X123251980Y-89369004D01*
X123251980Y-89369004D02*
X123251980Y-97952954D01*
X115892500Y-84914000D02*
X115892500Y-86161486D01*
X117107014Y-87376000D02*
X121258976Y-87376000D01*
X115892500Y-86161486D02*
X117107014Y-87376000D01*
X95389999Y-63899999D02*
X94540000Y-63050000D01*
X104807239Y-67467989D02*
X96931989Y-67467989D01*
X95758000Y-66294000D02*
X95758000Y-64268000D01*
X109697010Y-72357760D02*
X104807239Y-67467989D01*
X109697010Y-74518010D02*
X109697010Y-72357760D01*
X114840999Y-81788000D02*
X114840999Y-79661999D01*
X96931989Y-67467989D02*
X95758000Y-66294000D01*
X95758000Y-64268000D02*
X95389999Y-63899999D01*
X114840999Y-79661999D02*
X109697010Y-74518010D01*
X115257500Y-83878500D02*
X115316000Y-83820000D01*
X115257500Y-84914000D02*
X115257500Y-83878500D01*
X130048000Y-104630000D02*
X130048000Y-104925000D01*
X122901969Y-89513983D02*
X122901969Y-98097933D01*
X121144986Y-87757000D02*
X122901969Y-89513983D01*
X116993024Y-87757000D02*
X121144986Y-87757000D01*
X115257500Y-86021476D02*
X116993024Y-87757000D01*
X115257500Y-84914000D02*
X115257500Y-86021476D01*
X128542000Y-103124000D02*
X130048000Y-104630000D01*
X127928036Y-103124000D02*
X128542000Y-103124000D01*
X122901969Y-98097933D02*
X127928036Y-103124000D01*
X97080000Y-63050000D02*
X98298000Y-64268000D01*
X115697000Y-81505158D02*
X115697000Y-81788000D01*
X110078011Y-72243771D02*
X110078011Y-74391011D01*
X98298000Y-66421000D02*
X98994978Y-67117978D01*
X110078011Y-74391011D02*
X115697000Y-80010000D01*
X115697000Y-80010000D02*
X115697000Y-81505158D01*
X104952218Y-67117978D02*
X110078011Y-72243771D01*
X98994978Y-67117978D02*
X104952218Y-67117978D01*
X98298000Y-64268000D02*
X98298000Y-66421000D01*
X116527500Y-83878500D02*
X116586000Y-83820000D01*
X116527500Y-84914000D02*
X116527500Y-83878500D01*
X123601989Y-89224024D02*
X123601989Y-97807973D01*
X116527500Y-84914000D02*
X116527500Y-86301496D01*
X128156015Y-102361999D02*
X135636000Y-102362000D01*
X116527500Y-86301496D02*
X117251993Y-87025989D01*
X135636000Y-102362000D02*
X136652000Y-103378000D01*
X117251993Y-87025989D02*
X121403960Y-87025990D01*
X121403960Y-87025990D02*
X123601989Y-89224024D01*
X123601989Y-97807973D02*
X128156015Y-102361999D01*
X136652000Y-103378000D02*
X136652000Y-104607000D01*
X136652000Y-104607000D02*
X136652000Y-104902000D01*
X105097197Y-66767967D02*
X100797967Y-66767967D01*
X116586000Y-80264000D02*
X110428022Y-74106022D01*
X116586000Y-81788000D02*
X116586000Y-80264000D01*
X110428022Y-74106022D02*
X110428022Y-72098792D01*
X110428022Y-72098792D02*
X105097197Y-66767967D01*
X100469999Y-66439999D02*
X99620000Y-65590000D01*
X100797967Y-66767967D02*
X100469999Y-66439999D01*
X102908500Y-78828500D02*
X102997000Y-78740000D01*
X102908500Y-79731500D02*
X102908500Y-78828500D01*
X92075000Y-104694000D02*
X91948000Y-104821000D01*
X92075000Y-103759000D02*
X92075000Y-104694000D01*
X104813500Y-78828500D02*
X104902000Y-78740000D01*
X104813500Y-79731500D02*
X104813500Y-78828500D01*
X82042000Y-103632000D02*
X82042000Y-104821000D01*
X103543500Y-78828500D02*
X103632000Y-78740000D01*
X103543500Y-79731500D02*
X103543500Y-78828500D01*
X88646000Y-103759000D02*
X88646000Y-104821000D01*
X104178500Y-78828500D02*
X104267000Y-78740000D01*
X104178500Y-79731500D02*
X104178500Y-78828500D01*
X85344000Y-103759000D02*
X85344000Y-104821000D01*
X114010001Y-63899999D02*
X114860000Y-63050000D01*
X113538000Y-64372000D02*
X114010001Y-63899999D01*
X113538000Y-66294000D02*
X113538000Y-64372000D01*
X110236000Y-69596000D02*
X113538000Y-66294000D01*
X110236000Y-70612000D02*
X110236000Y-69596000D01*
X133223000Y-109459000D02*
X133286500Y-109522500D01*
X133223000Y-108679000D02*
X133223000Y-109459000D01*
X115257500Y-91127500D02*
X115316000Y-91186000D01*
X115257500Y-90114000D02*
X115257500Y-91127500D01*
X122201949Y-100637969D02*
X128878980Y-107315000D01*
X122201949Y-90328471D02*
X122201949Y-100637969D01*
X115257500Y-89364000D02*
X116082517Y-88538983D01*
X120412461Y-88538983D02*
X122201949Y-90328471D01*
X115257500Y-90114000D02*
X115257500Y-89364000D01*
X116082517Y-88538983D02*
X120412461Y-88538983D01*
X132940158Y-107315000D02*
X133223000Y-107315000D01*
X128878980Y-107315000D02*
X132940158Y-107315000D01*
X118432500Y-89364000D02*
X118557501Y-89238999D01*
X118432500Y-90114000D02*
X118432500Y-89364000D01*
X118557501Y-89238999D02*
X120122497Y-89238999D01*
X120122497Y-89238999D02*
X121501929Y-90618431D01*
X121501929Y-90618431D02*
X121501929Y-102451929D01*
X121501929Y-102451929D02*
X128648500Y-109598500D01*
X128648500Y-109598500D02*
X128968500Y-109598500D01*
X118432500Y-90114000D02*
X118432500Y-91117498D01*
X118432500Y-91117498D02*
X118364000Y-91185998D01*
X115892500Y-91162497D02*
X115916003Y-91186000D01*
X115892500Y-90114000D02*
X115892500Y-91162497D01*
X134549000Y-108204000D02*
X135572500Y-109227500D01*
X121851940Y-100782950D02*
X129272990Y-108204000D01*
X115892500Y-89364000D02*
X116367506Y-88888994D01*
X115892500Y-90114000D02*
X115892500Y-89364000D01*
X116367506Y-88888994D02*
X120267482Y-88888994D01*
X120267482Y-88888994D02*
X121851940Y-90473452D01*
X121851940Y-90473452D02*
X121851940Y-100782950D01*
X129272990Y-108204000D02*
X134549000Y-108204000D01*
X135572500Y-109227500D02*
X135572500Y-109522500D01*
X117162500Y-83878500D02*
X117221000Y-83820000D01*
X117162500Y-84914000D02*
X117162500Y-83878500D01*
X129250001Y-63899999D02*
X130100000Y-63050000D01*
X128778000Y-70612000D02*
X128778000Y-64372000D01*
X128778000Y-64372000D02*
X129250001Y-63899999D01*
X117602000Y-81788000D02*
X128778000Y-70612000D01*
X139954000Y-104198998D02*
X139954000Y-104607000D01*
X139954000Y-104607000D02*
X139954000Y-104902000D01*
X123952000Y-97662994D02*
X128270006Y-101981000D01*
X121548940Y-86675980D02*
X123952000Y-89079040D01*
X117162500Y-86174500D02*
X117663979Y-86675979D01*
X117162500Y-84914000D02*
X117162500Y-86174500D01*
X137736002Y-101981000D02*
X139954000Y-104198998D01*
X117663979Y-86675979D02*
X121548940Y-86675980D01*
X128270006Y-101981000D02*
X137736002Y-101981000D01*
X123952000Y-89079040D02*
X123952000Y-97662994D01*
X101638500Y-80810500D02*
X101727000Y-80899000D01*
X101638500Y-79731500D02*
X101638500Y-80810500D01*
D26*
X102273500Y-78881500D02*
X102273500Y-79731500D01*
X102273500Y-78345731D02*
X102273500Y-78881500D01*
X93853000Y-76581000D02*
X100508769Y-76581000D01*
X100508769Y-76581000D02*
X102273500Y-78345731D01*
D25*
X112717500Y-85664000D02*
X112717500Y-84914000D01*
X111095000Y-87286500D02*
X112717500Y-85664000D01*
X109347000Y-87286500D02*
X111095000Y-87286500D01*
X111447500Y-85664000D02*
X111447500Y-84914000D01*
X110795000Y-86316500D02*
X111447500Y-85664000D01*
X109347000Y-86316500D02*
X110795000Y-86316500D01*
X112082500Y-91889500D02*
X112268000Y-92075000D01*
X112082500Y-90114000D02*
X112082500Y-91889500D01*
X106928500Y-81661000D02*
X107223500Y-81661000D01*
X106718500Y-81451000D02*
X106928500Y-81661000D01*
X106718500Y-79731500D02*
X106718500Y-81451000D01*
X113352500Y-84164000D02*
X113352500Y-84914000D01*
X113352500Y-83224000D02*
X113352500Y-84164000D01*
X113142500Y-83014000D02*
X113352500Y-83224000D01*
X112847500Y-83014000D02*
X113142500Y-83014000D01*
X107223500Y-82712500D02*
X107315000Y-82804000D01*
X107223500Y-81661000D02*
X107223500Y-82712500D01*
X112847500Y-81986500D02*
X112776000Y-81915000D01*
X112847500Y-83014000D02*
X112847500Y-81986500D01*
X106718500Y-78701500D02*
X106807000Y-78613000D01*
X106718500Y-79731500D02*
X106718500Y-78701500D01*
X113352500Y-86164500D02*
X113284000Y-86233000D01*
X113352500Y-84914000D02*
X113352500Y-86164500D01*
X102108000Y-71778000D02*
X102108000Y-70993046D01*
X102108000Y-70993046D02*
X102108046Y-70993000D01*
X107615000Y-91567000D02*
X106934000Y-91567000D01*
X106934000Y-91567000D02*
X106807000Y-91440000D01*
X112082500Y-84164000D02*
X112082500Y-84914000D01*
X112082500Y-83539000D02*
X112082500Y-84164000D01*
X111877500Y-83334000D02*
X112082500Y-83539000D01*
X111877500Y-83014000D02*
X111877500Y-83334000D01*
X107988500Y-81456000D02*
X108193500Y-81661000D01*
X107988500Y-79731500D02*
X107988500Y-81456000D01*
X110551000Y-78329000D02*
X110871000Y-78329000D01*
X109276000Y-78329000D02*
X110551000Y-78329000D01*
X108623500Y-78981500D02*
X109276000Y-78329000D01*
X108623500Y-79731500D02*
X108623500Y-78981500D01*
X108499000Y-72517000D02*
X108204000Y-72517000D01*
X108623500Y-72641500D02*
X108499000Y-72517000D01*
X108623500Y-74531500D02*
X108623500Y-72641500D01*
X107988500Y-73271500D02*
X107234000Y-72517000D01*
X107988500Y-74531500D02*
X107988500Y-73271500D01*
D26*
X129373999Y-75144999D02*
X128524000Y-74295000D01*
X130810000Y-76581000D02*
X129373999Y-75144999D01*
X130810000Y-81534000D02*
X130810000Y-76581000D01*
X132969000Y-83693000D02*
X130810000Y-81534000D01*
X132969000Y-84273000D02*
X132969000Y-83693000D01*
X137414000Y-88519000D02*
X138938000Y-86995000D01*
X137414000Y-89593000D02*
X137414000Y-88519000D01*
X135809000Y-91198000D02*
X137414000Y-89593000D01*
X135809000Y-92791000D02*
X128524000Y-100076000D01*
X135809000Y-91198000D02*
X135809000Y-92791000D01*
X140614401Y-85318599D02*
X141478000Y-84455000D01*
X140208000Y-85725000D02*
X140614401Y-85318599D01*
X138176000Y-85725000D02*
X140208000Y-85725000D01*
X135809000Y-88092000D02*
X138176000Y-85725000D01*
X135809000Y-88428000D02*
X135809000Y-88092000D01*
X137012000Y-84455000D02*
X138938000Y-84455000D01*
X135809000Y-85658000D02*
X137012000Y-84455000D01*
X135009001Y-86457999D02*
X135809000Y-85658000D01*
X134366000Y-87101000D02*
X135009001Y-86457999D01*
X134366000Y-90424000D02*
X134366000Y-87101000D01*
X133604000Y-91186000D02*
X134366000Y-90424000D01*
X131234000Y-91186000D02*
X133604000Y-91186000D01*
X128524000Y-93896000D02*
X131234000Y-91186000D01*
X128524000Y-94996000D02*
X128524000Y-93896000D01*
X113538000Y-110360500D02*
X113538000Y-112141000D01*
X112398500Y-109221000D02*
X113538000Y-110360500D01*
X111598501Y-108421001D02*
X112398500Y-109221000D01*
X111000500Y-107823000D02*
X111598501Y-108421001D01*
X107569000Y-107823000D02*
X111000500Y-107823000D01*
X106807000Y-107061000D02*
X107569000Y-107823000D01*
X106807000Y-104183000D02*
X106807000Y-107061000D01*
X104478000Y-101854000D02*
X106807000Y-104183000D01*
X103378000Y-101854000D02*
X104478000Y-101854000D01*
X112674401Y-113817401D02*
X113538000Y-114681000D01*
X112268000Y-113411000D02*
X112674401Y-113817401D01*
X112268000Y-111379000D02*
X112268000Y-113411000D01*
X110909999Y-110020999D02*
X112268000Y-111379000D01*
X110428499Y-110020999D02*
X110909999Y-110020999D01*
X109628500Y-109221000D02*
X110428499Y-110020999D01*
X110134401Y-111277401D02*
X110998000Y-112141000D01*
X109626401Y-111277401D02*
X110134401Y-111277401D01*
X107570000Y-109221000D02*
X109626401Y-111277401D01*
X106858500Y-109221000D02*
X107570000Y-109221000D01*
X105727130Y-109221000D02*
X106858500Y-109221000D01*
X101600000Y-105093870D02*
X105727130Y-109221000D01*
X101600000Y-98552000D02*
X101600000Y-105093870D01*
X103378000Y-96774000D02*
X101600000Y-98552000D01*
X116967000Y-103197500D02*
X114583499Y-105581001D01*
X114583499Y-105581001D02*
X113783500Y-106381000D01*
X116967000Y-98933000D02*
X116967000Y-103197500D01*
X119126000Y-96774000D02*
X116967000Y-98933000D01*
X89826999Y-90580499D02*
X89027000Y-89780500D01*
X90932000Y-91685500D02*
X89826999Y-90580499D01*
X90932000Y-97155000D02*
X90932000Y-91685500D01*
X93853000Y-100076000D02*
X90932000Y-97155000D01*
X84048599Y-86131401D02*
X83185000Y-86995000D01*
X84709000Y-85471000D02*
X84048599Y-86131401D01*
X84709000Y-84333500D02*
X84709000Y-85471000D01*
X86187000Y-82855500D02*
X84709000Y-84333500D01*
X86187000Y-81707000D02*
X86187000Y-82855500D01*
X93853000Y-74041000D02*
X86187000Y-81707000D01*
X81508599Y-88671401D02*
X80645000Y-89535000D01*
X81915000Y-88265000D02*
X81508599Y-88671401D01*
X84201000Y-88265000D02*
X81915000Y-88265000D01*
X86187000Y-86279000D02*
X84201000Y-88265000D01*
X86187000Y-85625500D02*
X86187000Y-86279000D01*
X85047500Y-89535000D02*
X83185000Y-89535000D01*
X86187000Y-88395500D02*
X85047500Y-89535000D01*
X87630000Y-83566000D02*
X87630000Y-86952500D01*
X86986999Y-87595501D02*
X86187000Y-88395500D01*
X88265000Y-82931000D02*
X87630000Y-83566000D01*
X91143000Y-82931000D02*
X88265000Y-82931000D01*
X93853000Y-80221000D02*
X91143000Y-82931000D01*
X87630000Y-86952500D02*
X86986999Y-87595501D01*
X93853000Y-79121000D02*
X93853000Y-80221000D01*
D25*
X134856500Y-105872000D02*
X135001000Y-105727500D01*
X133350000Y-105872000D02*
X134856500Y-105872000D01*
X131531500Y-105895000D02*
X131699000Y-105727500D01*
X130048000Y-105895000D02*
X131531500Y-105895000D01*
X138158500Y-105872000D02*
X138303000Y-105727500D01*
X136652000Y-105872000D02*
X138158500Y-105872000D01*
X141460500Y-105872000D02*
X141605000Y-105727500D01*
X139954000Y-105872000D02*
X141460500Y-105872000D01*
X131127500Y-112268000D02*
X131127500Y-110568500D01*
X128968500Y-112268000D02*
X128968500Y-110568500D01*
X133286500Y-112268000D02*
X133286500Y-110492500D01*
X135572500Y-111830500D02*
X135572500Y-110492500D01*
X135572500Y-112268000D02*
X135572500Y-111830500D01*
X83693000Y-105791000D02*
X85344000Y-105791000D01*
X80866000Y-105791000D02*
X82042000Y-105791000D01*
X80391000Y-105791000D02*
X80866000Y-105791000D01*
X88620500Y-105816500D02*
X88646000Y-105791000D01*
X86995000Y-105816500D02*
X88620500Y-105816500D01*
X90297000Y-105791000D02*
X91948000Y-105791000D01*
D26*
X127674001Y-87669001D02*
X128524000Y-88519000D01*
X127254000Y-87249000D02*
X127674001Y-87669001D01*
X127254000Y-84709000D02*
X127254000Y-87249000D01*
X128524000Y-83439000D02*
X127254000Y-84709000D01*
X131675000Y-88519000D02*
X132969000Y-89813000D01*
X128524000Y-88519000D02*
X131675000Y-88519000D01*
X131905000Y-85979000D02*
X132969000Y-87043000D01*
X128524000Y-85979000D02*
X131905000Y-85979000D01*
X111672001Y-101004001D02*
X112522000Y-101854000D01*
X108712000Y-100584000D02*
X111252000Y-100584000D01*
X111252000Y-100584000D02*
X111672001Y-101004001D01*
X107442000Y-101854000D02*
X108712000Y-100584000D01*
X111013500Y-103362500D02*
X111013500Y-106381000D01*
X112522000Y-101854000D02*
X111013500Y-103362500D01*
X108243500Y-103592500D02*
X108243500Y-106381000D01*
X109982000Y-101854000D02*
X108243500Y-103592500D01*
X90638500Y-85852000D02*
X89027000Y-84240500D01*
X93853000Y-85852000D02*
X90638500Y-85852000D01*
X94702999Y-87542001D02*
X93853000Y-88392000D01*
X95123000Y-87122000D02*
X94702999Y-87542001D01*
X95123000Y-84582000D02*
X95123000Y-87122000D01*
X93853000Y-83312000D02*
X95123000Y-84582000D01*
X90408500Y-88392000D02*
X89027000Y-87010500D01*
X93853000Y-88392000D02*
X90408500Y-88392000D01*
X125984000Y-83439000D02*
X125984000Y-85979000D01*
X126170400Y-86429010D02*
X126302205Y-86297205D01*
X122428000Y-83693000D02*
X125164010Y-86429010D01*
X119635410Y-83693000D02*
X122428000Y-83693000D01*
X119067500Y-84260910D02*
X119635410Y-83693000D01*
X125164010Y-86429010D02*
X126170400Y-86429010D01*
X119067500Y-84914000D02*
X119067500Y-84260910D01*
X125984000Y-89721081D02*
X125984000Y-91059000D01*
X125984000Y-88519000D02*
X125984000Y-89721081D01*
X114622500Y-84914000D02*
X114622500Y-83497500D01*
X114622500Y-83497500D02*
X115697000Y-82423000D01*
X115697000Y-82423000D02*
X123034158Y-82423000D01*
X123034158Y-82423000D02*
X123317000Y-82423000D01*
X112522000Y-99314000D02*
X115062000Y-99314000D01*
X121617000Y-84914000D02*
X121666000Y-84963000D01*
X119702500Y-84914000D02*
X121617000Y-84914000D01*
X107442000Y-99314000D02*
X109982000Y-99314000D01*
X119067500Y-90114000D02*
X119067500Y-91386504D01*
X119067500Y-91386504D02*
X118616002Y-91838002D01*
X118616002Y-91838002D02*
X118094408Y-91838002D01*
X118094408Y-91838002D02*
X110804810Y-99127600D01*
X110804810Y-99127600D02*
X110432010Y-99127600D01*
X110432010Y-99127600D02*
X110300205Y-98995795D01*
D25*
X100368500Y-78574491D02*
X101046879Y-77896112D01*
X100368500Y-79731500D02*
X100368500Y-78574491D01*
D26*
X98615500Y-70421500D02*
X98615500Y-69215000D01*
X101003500Y-72809500D02*
X98615500Y-70421500D01*
X101003500Y-74531500D02*
X101003500Y-72809500D01*
X96393000Y-83312000D02*
X96393000Y-85852000D01*
X99063412Y-85467588D02*
X98933000Y-85598000D01*
X99063412Y-83562588D02*
X99063412Y-85467588D01*
X104369000Y-81661000D02*
X100965000Y-81661000D01*
X100965000Y-81661000D02*
X99063412Y-83562588D01*
X105448500Y-80581500D02*
X104369000Y-81661000D01*
X105448500Y-79731500D02*
X105448500Y-80581500D01*
X96393000Y-89594081D02*
X96393000Y-90932000D01*
X96393000Y-88392000D02*
X96393000Y-89594081D01*
X98298000Y-85850590D02*
X96074795Y-88073795D01*
X98298000Y-83187002D02*
X98298000Y-85850590D01*
X100893501Y-80591501D02*
X98298000Y-83187002D01*
X100893501Y-79841499D02*
X100893501Y-80591501D01*
X101003500Y-79731500D02*
X100893501Y-79841499D01*
D25*
X117162500Y-91117500D02*
X117094000Y-91186000D01*
X117162500Y-90114000D02*
X117162500Y-91117500D01*
X108712000Y-89789000D02*
X108585000Y-89662000D01*
X109601000Y-89789000D02*
X108712000Y-89789000D01*
X107762000Y-88519000D02*
X100965000Y-88519000D01*
X108585000Y-89342000D02*
X107762000Y-88519000D01*
X108585000Y-89662000D02*
X108585000Y-89342000D01*
X117797500Y-91117500D02*
X117729000Y-91186000D01*
X117797500Y-90114000D02*
X117797500Y-91117500D01*
X109601000Y-91567000D02*
X108585000Y-91567000D01*
X107889000Y-90551000D02*
X99695000Y-90551000D01*
X108585000Y-91247000D02*
X107889000Y-90551000D01*
X108585000Y-91567000D02*
X108585000Y-91247000D01*
X98298000Y-74671000D02*
X98298000Y-74376000D01*
X99192000Y-75565000D02*
X98298000Y-74671000D01*
X102535002Y-75565000D02*
X99192000Y-75565000D01*
X102908500Y-75191502D02*
X102535002Y-75565000D01*
X102908500Y-74531500D02*
X102908500Y-75191502D01*
X98471000Y-74376000D02*
X99314000Y-73533000D01*
X98298000Y-74376000D02*
X98471000Y-74376000D01*
X102273500Y-73781500D02*
X102273500Y-74531500D01*
X102108000Y-73043000D02*
X102273500Y-73208500D01*
X102273500Y-73208500D02*
X102273500Y-73781500D01*
X102108000Y-72748000D02*
X102108000Y-73043000D01*
X103124000Y-71732000D02*
X103124000Y-71628000D01*
X102108000Y-72748000D02*
X103124000Y-71732000D01*
M02*
